<mxfile host="app.diagrams.net" modified="2023-11-06T04:38:58.276Z" agent="Mozilla/5.0 (Macintosh; Intel Mac OS X 10_15_7) AppleWebKit/605.1.15 (KHTML, like Gecko) Version/15.5 Safari/605.1.15" etag="zEPomxwxgbqMN6HZwnE-" version="22.0.8" type="google">
  <diagram name="Page-1" id="J-FUxpCLJH2XWZtCsFEr">
    <mxGraphModel grid="1" page="1" gridSize="10" guides="1" tooltips="1" connect="1" arrows="1" fold="1" pageScale="1" pageWidth="827" pageHeight="1169" math="0" shadow="0">
      <root>
        <mxCell id="0" />
        <mxCell id="1" parent="0" />
        <mxCell id="9Eg1DR7KNLfBf103qCqV-4" value="" style="shape=image;imageAspect=0;aspect=fixed;verticalLabelPosition=bottom;verticalAlign=top;image=data:image/png,iVBORw0KGgoAAAANSUhEUgAAA3gAAAIFCAYAAACApV/lAAAAOXRFWHRTb2Z0d2FyZQBNYXRwbG90bGliIHZlcnNpb24zLjcuMSwgaHR0cHM6Ly9tYXRwbG90bGliLm9yZy/bCgiHAAAACXBIWXMAAA9hAAAPYQGoP6dpAAC9x0lEQVR4nOzdd1xT1/sH8M9l771EEdw466xbnLitey+stVat2tbWOsEutcsOR7UOrLvuvbc4wFlQHCg4UUHZe9zfH/xyv4kkEEggjM/79crLS+6595xgEvLknPs8giiKIoiIiIiIiKjU09P1AIiIiIiIiEg7GOARERERERGVEQzwiIiIiIiIyggGeERERERERGUEAzwiIiIiIqIyggEeERERERFRGcEAj4iIiIiIqIxggEdERERERFRGMMAjIiIiIiIqIxjgERGVEH5+fhAEAYIgYOzYscXev4eHh9T/mTNnir1/Iio7oqKisGDBArRs2RJ2dnYwMDDQ6fsbUXnCAI/KnbFjx0p/ZNq3b1/g48PCwvDnn3+iT58+qFu3LpycnGBoaAg7OzvUqFED/fv3x48//oiwsLA8zxMRESGNQ3bz9vZWexxnzpxRODYxMVGn/RQX+SBIWzcPDw+dPiYqGd59rTDIpaJ25coV6fk2Y8aMXPt/+eUXaf/x48d1MMLC+e+//1CvXj34+fnh8uXLiImJQVZWlsbn1fTvN1F5YaDrARCVFvfv38e8efOwfft2iKKYa39MTAxiYmIQFhaG3bt3Y+bMmWjTpg0WLFiAjh07qtXH8ePHce7cObRr107bw9dJP0REpNr58+elbWXvx2fPngUAGBgYoFWrVsU2Lk2IooiRI0fi9evXAABBEFCvXj24uLhATy9nXqF+/fq6HCJRmccAj0gNGzZswPjx45Genq5wv42NDdzc3ODg4ID4+Hi8fPkSz58/l/ZfuHABnTp1wuLFi/HVV1+p1decOXMU/ugXleLqR9uqV6+Orl275tkmLCwMDx8+lH7Or72zs7NWxkZEVBCy92A9PT20bdtWYV92dra0v1GjRjA3Ny/28RVGUFAQgoODAeQ8rjNnzuR6bERUtBjgEeVj8eLF+Prrr6Wf9fX1MW7cOIwbNw7vv/++9I2kzOPHj7Fv3z788ccf0jLNFy9eqN3fhQsXcOTIEXTr1k07D0DH/WjbyJEjMXLkyDzb+Pn5YcGCBdLPR44cKephaYWfnx/8/Px01n9ERITO+iYqb0RRxIULFwAA9erVg62trcL+//77D7GxsQBQqgKka9euSdtt27YtVWMnKit4DR5RHo4cOYJZs2ZJP1esWBFXr17FqlWr0KJFi1zBHQC4u7vj008/RWhoKJYtWwYzMzO1+qpRo4a0PXfuXM0Hr+N+iIhItdu3b+Pt27cA8l6eqWp/SSV7TADg5uamw5EQlV8M8IhUiImJwahRo6Tr7RwcHBAQEICGDRuqdbyBgQEmTZqES5cuoVq1avm2nz9/PgRBAJDzDeju3bsLPfaS0A8REakmv0Tey8sr135ZgCcIAtq0aVNs49JURkaGtK2vr6/DkRCVXwzwiFRYsWIFoqOjpZ+XL18Od3f3Ap+nQYMG+PTTT/Nt17BhQwwaNEj6ed68ecjOzi5wf7ru586dO/jyyy/RokULODg4wMjICKampnB2dsb777+P8ePHw9/fX+FbXl2RzxAqn0kzNDQUM2fORMOGDeHo6Ag9PT2lmTZTUlKwb98+TJs2DW3btoWLiwuMjY1hbm6OypUro1evXvjjjz/UzjyqbpkE+UyPsmWV8fHx+OOPP9CqVSs4OzvDxMQEbm5uGDp0KE6dOqVW/+qUSfD391eaxe727duYMmUKateuDQsLC1hZWaFBgwb46quv8PLlS7X6l3nz5g2+++47NG3aFHZ2djA3N0etWrXg4+ODy5cvS+3at28vjcXf379AfRSnmJgYLFmyBJ06dUKlSpVgYmICe3t71K9fH9OmTUNgYGCBzhcYGIgpU6agcePGUvp5MzMzuLq6onXr1pg8eTL+/fdfJCUl5Xme4nit3rlzR+H5+uDBA7WP3b59u3SctbU1UlNTlbY7ceIExo0bh3r16sHGxgYGBgYwNzeHm5sb2rdvj88//xz79+9HWlpaoR9HUcgrwYooijh37hwAoHbt2rC3ty/y8ezbtw9jxoxBjRo1YGVlBXNzc1SpUgUDBgzAP//8g8zMTJXHyr93yS+PX79+fa6sxSUp+2V2djYuXLgAX19fdO3aFe7u7jA3N4exsTEqVKiAtm3bYt68eXjy5Eme5zl+/Lj0+ExNTRETE6P2GH744Qfp2Lp16+bb/sSJE5g0aRLq168PBwcHGBsbo2LFiujSpQv++OOPfF/3gOr38aCgIEyePBn16tWDnZ2dyv+vhIQErFixAj179oSbmxvMzMxgaGgIGxsb1KlTB3379sXChQulazFJB0SicmbMmDEiABGA6OXlpbRNenq66OLiIrVr0KCB1scRHh4unR+AGBwcLIaGhor6+vrSfRs3blR5/OnTpxWOT0hI0Gk/2dnZ4pdffinq6ekptFd1q127dsF+YQXg6+ur0Jcq8o/N3d1dFEVRXLhwoWhgYJBrvLL9Mps3bxYtLS3Veqx2dnbivn37CjTuMWPGqGwnf+7w8HAxKChI9PDwyHMMU6ZMEbOzs/Ps393dXWp/+vRppW3WrVuX6/WzaNEipb8z2c3S0lI8efJkvo9fFEXx0KFDoqOjY56P5YsvvhAzMzNFLy8v6b5169apdf68vPtaUfU7KIiNGzeK9vb2+T5HRowYISYmJuZ5rtTUVHH06NFqPecAiN27d1d6nuJ+rTZs2FA6l5+fn9rHffDBB9JxPj4+ufbHxMSIXbt2Vfv38cknn2j0OArrgw8+UHqztrYWAYiGhoa59nXr1k0ad4UKFXLt/+ijj7Q2vocPH4qtWrXK9/fn6ekpXr58Wek53n3Pzeum6u+uOtT5+62u0NBQsWLFimqN2dDQUFywYIHKc2VnZ4tVq1aV2v/5559qjSE7O1usVq2adNwvv/yism1YWJjYoUOHfMdaoUIF8ciRI3n2++77eHp6ujh9+nS1/r9OnjwpVqhQQe3/7ytXrqj1uyDtYpIVIiWCgoIUZh3Gjx9fLP16enpi5MiRWL9+PYCcb0WHDBkCAwPtvlSLop85c+bgp59+kn4WBAE1atSAq6sr9PT0EBMTgwcPHkizWUUxO6mpn376Sbrm0tjYGPXq1YOlpSWePn2aq4bTw4cPkZCQIP3s5OQEDw8PWFpaIiUlBffv35dmgN++fYu+fftiz5496N27t1bHfOfOHQwdOhQJCQnSN8COjo6IiorC7du3pSXGS5cuhbu7u9JaW5r49ttvMX/+fACApaUl6tSpAxMTE9y9exevXr0CkPNtb58+fXD79u08Z8FPnjyJfv36Kcy02Nvbo3bt2sjMzERoaCji4uLwyy+/KL3+taT5448/MG3aNIX73NzcULVqVcTHxyM4OFiaFdm0aRMePXqEo0ePwtLSUun5fHx8sGXLFulnAwMD1KpVC05OThBFEW/fvsX9+/elmS5Vr7Hifq2OGDECN2/eBABs3rwZvr6++R4TExODw4cPK5xDXnZ2Nnr37i0lKQEAExMTeHp6wt7eHhkZGYiOjsaDBw+kJYO6es/Zu3dvnvszMjLybBMZGZlrf2FWkyhz7949dOzYUSERmIWFBerUqQMjIyOEhobizZs3AIC7d++iU6dOOHDgQK5ZHfnsxvJZjF1dXXOVRGjQoIFWxq6p6OhohazXlpaWqF69OmxsbJCVlYUnT55IKyQyMjLg6+uLhIQEhdeOjCAIGD9+PGbPng0AWLNmDaZMmZLvGM6cOSP9royMjDB69Gil7a5fv47u3btLpScAwMrKCrVr14aZmRmePXsmzY5HRkaid+/e2LZtG/r166fW72L69OlYvnw5gP/9/5uYmCA8PFyh3X///YeePXsqzKY7OjqiRo0aMDMzQ2JiIp4+farwey2Jf+vLBV1HmKS+V69eifv37xfnzZsnduvWTeFb4by+7dc2+W9+8rtp41t1bVPnG8BFixYpPI6QkBCtj0PZzJooiuKjR49EQ0ND6f5Vq1YpPV6TGTxt9xMZGalwro8++kiMjIzM1S47O1u8ceOGOGfOHLFNmzZq/Z4KozAzeKampqKBgYFoYGAgfvfdd7keZ1hYmMLP3333ndi6dWtx1apV4vPnz5We//z582Lz5s2lPhwcHMT4+Hi1xq3uDJ7sfeDDDz8UX7x4odAuNDRUrF+/vtTW3NxcjIuLU3negs7g2dnZiYIgiDY2NuK6devE9PR0qV12drbo7+8vGhkZSe1Hjhypsu/Y2FiFb4VtbGzEf/75R8zIyJDapKWlicuXLxfNzMxEQRAU3gNL2gzepUuXFGbJa9SoIZ45c0ahzevXr8Vx48Yp9Dlu3Dil57t69apCu7lz54oxMTG52mVmZooBAQHi1KlTxUGDBuXar4vX6rNnzxRmC4OCgvI9ZtWqVVJ7V1dXMSsrS2H/jh07pP1GRkbib7/9JiYlJeU6T1pamnj8+HHRx8dHnDZtmkaPo7DU/XtZkNu7KwoKIz09XWF21cjISFy8eLHC7zEjI0Ncv369NNsIQHR2dhajoqJUnlfd97HC0OYM3vnz58WqVauKP/zwg3j79m2lKxzCwsIUZs0FQRADAgKUni8yMlJhJcPVq1fzHcOIESOk9sper6IoitHR0QozjbVq1RL37dsnZmZmKrQLDQ0VO3fuLLWztrYWIyIilJ5T/n1cthLFwsJCXLFihZiamqrQ9uHDh9J2r169pONq164tXrhwQen5X716Ja5Zs0Zs3ry5eOnSpXx/D6R9DPBKkbze7BngqU+dPxADBw5U+FD87ocLbVAVeImiKH7yySfS/W5ubrnecEVR8wBPm/38888/0n51Pwy++8dJmwoT4MlueS1XlZffcjqZlJQUsUWLFtL5ly5dqta41Q3wAIhff/21yrZPnjwRzczMpLZr1qxR2bagAR6QExjfuHFD5Tl/+eUXhbaqfm+zZ8+W2hkYGKj8ECWKonjgwIEiea/RZoDXqFEjhQ/jL1++VNl28uTJCv0qWwb3zTffSPvzCpTlKXuN6eq1Kr+0bPr06fm2l19++/nnn+faLx8Yz507V60xFOV7TkGNHTtWGv/9+/dz7Xd1dRWBnC8Gisrvv/+u8LzbsmWLyrYBAQEKX9ZMnDhRZdvSEuAlJyer/bddfvniwIEDVbYbMGCA1C6/JcExMTGiiYmJ1P7o0aNK28kHmM2aNcvzS8KMjAyxe/fuUntVXxi9+z6ur68vnj17Ns/xZmRkiMbGxlKgq+x5q0xJet2VJyV/jQspVblyZXh7e+t6GDh69CiCg4NV3vr27avrIRZKVFSUtF2xYsViXw42d+5cmJiYAACePn2KlStXluh+nj17Jm23bt1arWNKYna1nj175loKpoq6RYdNTEzw/fffSz/nt1yroGrWrIlvv/1W5X43NzcMHDhQ+jkgIECr/c+aNSvPzLIff/wxTE1NAeQkpbl+/XquNpmZmVi7dq308yeffIJWrVqpPGfPnj0xZMiQwg+6iF26dAk3btyQfv7jjz/g7Oyssv3PP/+ssORu6dKludpo6zWmq9eqfO3Kbdu25bls69mzZwoJSJS9Jkv7e47s8bm4uCiUrgGA8PBwaclkUWXPFEVRWpIHAP369cPQoUNVtm/VqhWmT58u/bxhwwbExcUVydiKi6mpqdp/27/99lvpfezQoUMqE85MmDBB2t68eTNSUlJUnnPTpk3SUkd3d3d07tw5V5tnz55h8+bNAHKWcG7ZskXlEm4gZ9n2qlWrYGhoKI1Bnf+niRMn5luKIyoqSlo+7+TklOt5q0pJet2VJwzwSpH58+dj//79ePnyJR4/flxkH/oLombNmqhXr57Km42Nja6HWCiyaw4AwNrautj7d3V1xaRJk6Sff/jhByQnJ5fYfmRBIpCzRr+0kv/jrE3NmzeXtq9evarVc48bNy7fayflPyTevXtXq/1/9NFHee43NzdHo0aN8uz/xo0bCte8fvzxx/n2O3HixAKMsnjt2bNH2q5SpQr69OmTZ3sTExOFx7Nv375cAZC2XmO6eq0OGDAAxsbGAHKuEcors+uWLVukx1+7dm00btw4V5vS/J4TGRkpXXelrAi4/Jcw6gavBXX37l3cu3dP+vnda0WVmTp1qhQQJSUl4cSJE0UytpLIwsJCynCZnJyM27dvK23XpUsXVKlSBQAQFxeHHTt2qDznmjVrpO1x48YpDTa3bt0qBZO9evVSq+RSpUqVpLIbqampuHjxYr7HqPO3T/419/r16wJnR6bixQCvFFmwYAF69eqV5zfBpB3ySR6MjIx0Moavv/4aFhYWAIBXr17hjz/+KLH9NGnSRNo+fPgwZs+eXSq/3S3st+Xh4eFYvXo1pk6dimHDhqFXr17o1q2bdBswYIDUNiYmRqvBesuWLfNtU7FiRWk7NjZWa31XqVIFLi4uGvcfFBQkbTs6OqqVKrx169bSt9QlzZUrV6Ttbt26qXVMr169pO34+PhcgbD8a2zlypX47bff8pwdUEVXr1Vra2uFx7hp0yaVbeX3qZpRl38cCxYswMaNG/NM41+SyMofAMoDPPnEMUUV4Mk/R83NzZWO410VK1ZU+LJG/hylXWxsLLZt24avv/4aI0eORJ8+fRTew7t16yYF5QAUkojIkyVbkZEP4uTduHFDmuXX09PDuHHjlLaTn8nu2LGj2o+nXr160rayVRPyrK2tcyXCUcbW1lYKXkVRRN++fVkGoQRjgFdOpaamYunSpejUqRNcXFxgZGQEJycndO7cGWvWrCk1fyiLivzMY3x8vE7G4OjoqLAk5qeffiqSsWijn7Zt2yp8y75w4UK4uLigV69e+PXXXxEYGJgrC2VJY2NjAzs7uwIdc/fuXXTt2hXVqlXDRx99hD///BNbt27FwYMHcfToUYWbPG1+oFYnwDIzM5O2tRlcqtO3Ov3L15jy9PRU65yGhoZqfZutC2FhYdK2Oh+cgJzHLT8TK38OABg4cKAUKGdnZ+Ozzz6Di4sLBg0ahGXLluG///6TMqbmRZevVflgbdeuXUrr2t25cwe3bt2Sfh4+fLjSc3344YfSF1PJyckYNWoUKlSogNGjR2PNmjW4f/++lkevPXnVvwP+N4Pn4OCg9uuhoOSfX3Xr1lV7qaL88/nd52hpFBMTg4kTJ8LFxQVDhw7F4sWLsWnTJuzfvz/Xe7h8bbu83sPlV1WcPXtW6e9p9erV0nbXrl1RqVIlpecKCQmRttesWZMr6FR1279/v3ScfD1fZapUqQJBEPJsIyP/WeHKlSto0KABGjZsiK+++goHDhwoUP0/KloM8MqhW7duwdPTE59++ilOnTqFV69eISMjA1FRUTh58iTGjx+PVq1aSSnOyyP5D/q6fMOaMWMGbG1tAeSk2v/ll19KZD+CIGDnzp2oXbu2dF9qaioOHjyIL774As2bN4ednR0GDRqEgwcPanXs2pLXdQ3KnDt3Dk2aNMGxY8fU+mAtT5sFlws6w1zQsWqzb1X9y8/qFWRZty6WT6tD/vGoW6DawMBA4bG/+75jZmaG/fv3w9XVVbovPj4eO3bswJQpU/Dee+/ByckJY8eOVQgg3qXL12qPHj2kxxgfH48DBw7kaiM/e9eqVStpxuBdFStWxM6dOxWeA9HR0diwYQPGjx+PWrVqwc3NDVOmTFEIGEsC2f+PspmT2NhYaflfXtehaqowz1EgJ+iUKe0f5iMjI9G8eXOsXLmywO/JebV3cXFRWJb97ixeamqqdF0dkHcZJvnLRW7cuJEr6FR1k59tzO8LxYL87fv0008VLusAcj5T/vTTT+jduzccHBzQvHlzLFmypFSu4ilLGOCVM2FhYfDy8sLjx49hZWWFWbNmYffu3bh69SqOHj2KyZMnw8DAAEFBQfjggw+k+kGq+Pj4wNXVFUZGRnBwcECLFi0wd+5clcsXSouqVatK28+fP9fqsraCsLa2VqhbtmTJEoU3/JLUj4eHB27cuIE//vhDaZ0j2YfRXr16oWXLlrnq6+haQRLpxMfHY9CgQdJslKWlJaZNm4aDBw/iwYMHSEhIQGZmJsScTMVaDarof0pqLbzCLvGWb6vsA2SjRo0QGhqK7777DtWrV8+1Pzo6GuvXr0e7du3Qq1cvld/c6+q1amxsjEGDBkk/y3/IlZGv85dfwiNvb2/cu3cPX331lULgK/Ps2TMsW7YMjRo1go+PT5Fcx5wXDw8PCIKQ6ya7ZjAuLg76+voK+2xtbaX3i3379ik9XhuK6jlamowbN06qHaenp4fBgwdjy5YtCAkJQUxMDNLS0hTew2XXtalD/pq29evXK6yK2rFjh/SZwtnZOc/aqElJSQV8VLnlV4euIO+jgiBg2bJlOHv2LPr16yddVyvfV2BgID7//HNUqVJF6WucikfJ/OtIRWbMmDGIi4tDo0aN8PDhQ/zwww/o27cvmjRpAm9vbyxduhT79++Hnp4erly5An9//zzPd+bMGURGRiIjIwNv3rzBlStX8P3336N69eolIglMYclfiyWKIgIDA3U2lmnTpsHJyQlATsHoRYsWldh+jI2N8emnn+LWrVt4/vw5Nm7ciI8++ijXUrrLly+jQ4cOpfYb4LVr10oFZ21tbXHt2jX89ttv6NGjB6pXrw4LCwuFzGHyBdEpN/lZmIJ861tSnz/yj6cg//fybVXNZFpZWWHOnDl48OABHj58iDVr1mD06NEK1zkCwMGDB9GtWzeVy+119VqVD9oOHTqk8OXZxYsXpWDS0NBQrUypzs7OWLx4MZ4/f47bt29j2bJlGDx4sMJMkyiK8Pf3x7Bhw7TyGMqConyOlgY3b97EkSNHpJ+3bduGbdu2YejQoahbty5sbGxyBb4F+T15e3vDw8MDQM5M4aFDh6R98jN6o0ePzvNaYvn/p+3btysEnOre8vscVxjt2rXDrl27EBsbixMnTmDevHlo166dwjLzmJgYjBgxArt27dJ6/5Q/BnjlyPnz56VsSuvXr1f4AyivW7duUlp1VW8MVatWxYwZM7Bz504EBgYiMDAQW7duxaBBgyAIAlJTUzFx4kSsWrWqSB5LUfPy8lL4pnTbtm06G4u5uTlmzZol/bxs2TJERkaW+H5cXV0xYsQIrFq1CmFhYbhx4wb69+8v7X/8+LHSdPClwfHjx6XtadOm5ZsuurTPaBe1ypUrS9vqZvnMyMjAo0ePimpIGnF0dJS21Z39ioqKUvgAKX8OVapWrYpx48Zh/fr1ePr0Kc6fP68wy3Dt2jWFGTFVivO12q5dO7i5uQHImQHauXOntE/+2/6uXbsWaOkgANSpUweTJk3Ctm3b8PLlSxw6dEhhhnLfvn15Ll/VNi8vL3Tt2lXhJn+tlbL9skyFpqamufbJbtpQmOcoAIWlf+o8R0sq+ffw9u3bK5SSUaUg7+OCIChkGJYFdQ8fPsTZs2el+/NanglAIame7EvFksTExASdOnXCN998g7Nnz+LVq1dYvHixwnXXX375pQ5HWH4xwCtH9u3bBwCoVatWvhf+yy78DgoKyvUNcL9+/RAWFoaffvoJ/fv3R7NmzdCsWTMMGTIE//77L/bt2yd9I/XZZ5+VylS6FStWRPfu3aWft23blu+FykXpk08+kT4YpKSkKNRVKy39NGzYEDt27ECHDh2k+44dO6a18xcn+aQgTZs2zbf9pUuXinI4pZ787/D169e4c+dOvsdcunQJ6enpRTmsQpNPYqLu7L98RkJBEBSyFapDEAS0adMGR44cUUjMUZjXWFG+VgVBUJhJk11zl5mZiX///Ve6X916lKro6+uje/fuOHnypMKXmcX5nrN+/XocOXJE4SZb/m9hYYGTJ08q7NuxY4d0WYSXl1euY2U3bZB/jkZERKgVPGRlZSmUeVFWvqK0KOh7eHh4eIHzEsgnWzl06BAiIyOxZs0aaQlu27ZtUbNmzTzP0aJFC2n78uXLBepfF+zs7PDVV19h2bJl0n2PHj1S+GKAigcDvHJE9sZ87949pev65W9TpkwBkPMt+du3bxXOY21tned1AL169cL8+fMB5GQ3U5UmuKST/9YpKSlJ+p0Uhmydf2EZGxtj3rx50s9///03Hj9+rNE5ddGPIAgKF5+X1kQ++V2b+q6iWCJTljRp0kThm2p1Zv5L8hJw+ZTzx48fV+vLoY0bN0rbmtQQNTExUZjlKexrrChfq/LB29mzZ/H8+XMcO3YMUVFRAHKCn/xqB6rLwcFBodSALt9z0tLSpEC+ZcuWuQpAX7x4Ucpgml/RaU29//770hJEURTVWqVy/PhxhUBQndIKJVVxvIe7uLhI19dlZmZizZo1WL9+vbQ/v9k7AAqv5b1795aaxCV9+/ZV+Lm0/q0vzRjglSOFnd4vzIXpEyZMkIJA+eUIpUn79u0xdOhQ6edt27bBz8+vQOdISUnB6NGjFb7NKqxx48ZJ3/6mp6cX2SxeYfopSBIR+WVoBS1LUFJUqFBB2pYvSqzM9u3bFepeUW4GBgbw8fGRfl6+fHme31YfOXJEraWHujJ06FBpiVJ6enq+7xtBQUHYvn279POHH36Yq422XmMl4bXaoEEDaRVJdnY2tm7dqrA8s1+/fgpLvJQpCY+joK5cuSIlJlEWwOVXPkGbrK2tFepzLly4MM/yOJmZmZg9e7b0c8OGDUv1DF5B3sPDw8MLncFaPtnK999/jxcvXgDI+f2rsyy0f//+cHd3B5CT/OiLL74o1Di0obCvOaD0/q0vzRjglSOybwbfe+89BAcHq3179+J9dTg5OUnXT5Tm649WrVqlsIRiwYIFGDJkSL6zWtnZ2Vi/fj08PT2xYcMGrYzFwMBA4YOiprOC2uzns88+w+zZs/H06dM824WHh2P58uXSz0X9IaaoyF/ntHTpUpXFXo8ePYqxY8cW06hKt5kzZ0qzeBkZGejRowc2bdqkUJMtPT0dK1eulD6YltQPDTY2NgqpxJctW6byS5779++jf//+UqY7V1dXhWBXZtiwYVi8eLE0y6XKtWvXsHXrVunnd19jJeW1Kj+Lt27dOuzZs0f6eeTIkfke36lTJ6xYsSLfmp0HDx7EmTNnpJ9VPQ75jJft27fPt//CkP+yU9nsl+yLIFNTUzRr1qxIxiDvq6++kpYQRkZGon///kp/n+np6fDx8ZEKcwPA3Llzi3x8RUn+PfzSpUsKM2vywsPD0bVr10Jns5RPtiJf93HYsGH5fokB5Pw9Xrx4sfTzmjVrMHHixHy/eE9KSoK/vz86depUqHErc+7cOfTq1QtnzpzJM9jLysrC119/Lf3s4uKS71JU0j6D/JtQWSELuBITE1GvXr0i709b6Zx1ydLSEidPnkTPnj2l1Nb//vsv9uzZg06dOqFLly6oUqUK7O3tER8fj8jISFy8eBEHDx4skguiR4wYgUWLFql1jVJx9hMbG4vff/8dixYtQqtWreDl5YX33nsPjo6OMDQ0xMuXL3Hu3Dn4+/tL3+xZWVlh6tSpRfkwisyECRPw448/IiUlBQkJCWjVqhU++eQTdOjQAebm5njy5Al2794tZQ8bP368QmFbys3Gxgb//PMPevfujfT0dMTExGDkyJGYPn06PD09kZ2djTt37khZF7/44gtcvXpV+tBcmJp8+fH29i5QCvFRo0bh77//BgB88803OHTokPQamjJlCnbv3o2RI0eiSpUqiI+Px6lTp7Bq1Srpw5qenh7WrFkDKyurXOd++fIlvv76a8ydOxcdOnRAmzZtUK9ePdjb20MQBDx//hzHjx/Hpk2bpGsTK1eujFGjRimcp6S8VocNG4ZZs2ZBFEWp7huQk1RCnQ+ljx49wqRJk/D555/D29sbLVu2RO3atWFnZ4esrCxERETg0KFD2LlzpxQ8N23aVGtJSgpD/rnavHlzhX3p6enS9ZrNmzcvkufzuxo2bIh58+bB19cXAHDy5EnUrVsXEydORNOmTWFoaIjg4GCsXLkSoaGh0nHDhg1TmP3TlXPnzklJadR17949uLu7S897WY1EHx8fHDt2DP3794ezszOio6Nx4sQJrFu3DsnJyWjQoAFMTEwKnFFbT08P48ePzxUQq7M8U2bIkCG4cuUKlixZAiBnefrOnTsxfPhwtGrVSvpiLCYmBnfv3sWVK1dw/PhxJCcnKyx915Qoijh48CAOHjwINzc3dO/eHU2bNoWbmxssLS2RkJCA4OBgrF+/XuE1PWvWrBJb0qZME6nUCg8PFwGIAMQxY8bk237y5MkiAFEQBDEyMrJIx/b69WtREAQRgNi5c+ci7augxowZI/3evLy81DomPj5eHD16tKinpycdq+6tS5cu4u3bt3OdU/7/D4AYHBys1lh27NihtJ+EhASl7YujH/nfqTo3c3Nz8dixY2qNozB8fX0V+lPl9OnTUht3d/cC9fHPP/9Iz/G8bm3bthVTUlIU7gsPD8933Hm9ptU5V2Eep7u7u9Tu9OnTStusW7euwK8f+eeHr69vnm0PHDggOjg45Pk7nTZtmpiRkSE2b95cuu/AgQNqjSUv775WCnp79//sxYsXYr169dQ61tDQUNyyZYvKsXl5eRVoLE5OTuKNGzdynackvVbbtWun9P9WHfLPVXVuNWrUEB8/fqzW+dR9XhdEenq6aGZmJgIQW7dunWv/+fPnpf7nz5+v9f7z8sUXX6j9e+zfv7+YlpaW5/nUfR8rjII+f9+9yb9fhoSEiNbW1vkeU7FiRfHevXsKr8F169apPeYXL16IBgYG0rENGzYs1GP/7rvv1PqbI39zdnZWeq7CvI/L/x1R9zZx4kQxOzu7UI+XNMOQuhyRXbQuiiJ+//33Iu1r1apV0hR+QYqDllSWlpZYv349bt26hZEjR6osMSFjZWWFMWPG4Ny5czh27Bjq1KmjtbH079+/WK59KEg/EyZMwLhx4xRSgCtjYmKC4cOHIyQkBF26dNHGMHVm1KhR2Lt3L6pUqaJ0v62tLebMmYNTp04V+Fvm8qxnz54IDQ3FggUL0KhRI9jY2MDMzAzVq1fHqFGjcP78efz2228wMDBQmCXP7zWpCxUqVMCVK1fg6+sLW1tbpW309PTQvXt3XL9+XeGa33fNnDkTw4YNyzc1vaWlJSZOnIiQkBA0bNgw1/6S9FpVlilT3eyZCxcuRN++fRXqhCnj4OCAr7/+GtevX1cox1Hcrl69Ks3U6vr6u3f9/PPPOHTokNLni4yHhwf8/f2xY8eOYpldLA5169bF5cuXFereypPVYrx586ZGSwxdXFwUZtIKMnsnb86cObh58yYGDhyYq8D4uzw9PTFz5kyF5cmaql+/Pvz8/NC0adNcCYLe1bhxY+zatQsrVqwoE6u5SiNBFAtw1SSVKBEREdKHyzFjxqiV5al58+YIDAyEvr4+Nm/ejMGDB6tsGxwcjIiICCkLlKzPmJiYPFN4HzhwAAMGDEB6ejpMTU3x4MGDQl3HV5JlZ2fjxo0bCAsLQ1RUFOLi4mBhYQEHBwc0aNAAdevWLbdLEp48eYLg4GA8fvwYsbGxEAQB1tbWqFWrFpo1a6Z0+VlplpmZiUuXLuHWrVuIj4+Hg4MDPDw80L59+zLzQagkio6OloIdPT09xMfHw9zcXMejUi0zMxMXL17E3bt38ebNG5iZmaFixYrw8vIqcD2xBw8e4M6dO3jy5AkSEhKgp6cHW1tb1KlTB02bNoWpqala5ykLr1XZ0t179+7h2bNnSEhIgJGREezt7VG/fn00atQoz0LSpOjhw4e4dOkSXr16haysLDg6OqJx48Z47733dD20InX79m1cvHgR0dHRsLS0lF6b2rjO9+zZs9J1naampnjx4oXGReJTUlIQEBCA8PBwvHnzBkBO4paqVauifv36cHV11XDUeUtMTMTNmzelz0BpaWmwsLBAxYoV0bRpU5VffFLxYYBXily4cAFhYWHSz9HR0VIq/9atW+f6VkhZcoeHDx/i/fffl0of9O7dG0OGDEGNGjWgr6+P169f48aNG9i/fz8uX76ML774Aj///LN0/JkzZ9ChQwe0bNkSvXv3xnvvvQcnJycAOddE7NixAzt27JBm75YtW6aQbICISBt++uknfPXVVwCARo0a4fr16zoeERFRbiNGjJCyxI4aNQr//POPjkdE5QEDvFJk7NixKjM9KaPqv/b+/fsYMGAAQkJC8j3HggULpJp2wP8CvPyYmZlhyZIlCimCiYjyIoqiWst5bt++jRYtWiAxMREA8Pvvv5fahD1EVHaFh4ejVq1aUt29S5cuKRQvJyoqzKJZDtWsWRM3b97Ev//+i507dyIoKAhRUVHIysqCvb09atWqhTZt2qBfv365rsFq0qQJNm7ciEuXLuHq1auIjIxEdHQ0MjMzYWtri7p166JTp04YP368NLNHRKSO48ePY8mSJRg3bhy6desGS0tLhf2JiYlYv3495syZIwV3bm5uLEVBRCVObGwsxo0bJwV3bdu2ZXBHxYYzeEREVCIcOXIE3bt3B5BzXV21atVQoUIF6OvrIzo6GqGhocjMzJTam5iY4PDhw0VWt4yIqCDmzp2LkJAQxMfH4/r164iLiwOQ83524cIFtGzZUscjpPKCM3hERFQiyCcmys7OxoMHD/DgwQOlbatWrYoNGzagVatWxTU8IqI8XbhwQaGgvYyfnx+DOypWDPCIiKhE8Pb2RmBgIPbv349Lly5JGdpSUlJgaWkJR0dHNGvWDD169MDQoUNhYMA/YURUMllaWqJx48aYOnUq+vfvr+vhUDnDJZolWHZ2Nl68eAFLS0vWESEiIiIiKsdEUURCQgJcXV3zLMfFrz9LsBcvXsDNzU3XwyAiIiIiohLi6dOnqFSpksr9DPBKMFkGuadPn5aKgrNERERERFQ04uPj4ebmlivL9LsY4JVgsmWZVlZWDPCIiIiIiCjfS7dUL94kIiIiIiKiUoUBHhERERERURnBAI+IiIiIiKiMYIBHRERERERURjDAIyIiIiIiKiMY4BEREREREZURDPCIiIiIiIjKCAZ4REREREREZQQDPCIiIiIiojKCAR4REREREVEZYaDrAVDRE0URGRkZyM7O1vVQiIioGOjp6cHQ0BCCIOh6KEREVMwY4JVhWVlZiI6ORkJCAjIyMnQ9HCIiKkaGhoawtLSEg4MD9PX1dT0cIiIqJgzwyqisrCw8ffoUaWlpsLa2hoWFBfT19fltLhFRGSeKIrKyspCYmIjY2FikpKTAzc2NQR4RUTnBAK+Mio6ORlpaGipXrgxTU1NdD4eIiIqZhYUFrK2t8eTJE0RHR8PZ2VnXQyIiokI6GnYUE3dNVKstk6yUQaIoIiEhAdbW1gzuiIjKMVNTU1hZWSEhIQGiKOp6OEREVEjBr4MREROhVlsGeGVQRkYGMjIyYGFhoeuhEBGRjllaWkp/F4iIqHS6HXVb7bYM8MogWbZMXm9BRESyvwXMpExEVHqFvA5Ruy0DvDKMCVWIiIh/C4iISrdsMRt3ou6o3Z4BHhERERERUQkVERuB5IxkGOobqtWeAR4REREREVEJdft1zvV3texrqdWeAR4REREREVEJJbv+rrZjbbXaM8AjIiIiIiIqoWQZNGs7MMAjIirVxo4dC0EQ4OHhUWR9nDlzBoIgQBAEnDlzpsj6ISIiosKRArzyPIN39epVfPPNN/D29kalSpVgbGwMCwsL1KxZEz4+Prhw4YJW+vHz85M+GOV34wenskn+w7Gfn59ax5w+fRrTp09H48aN4eLiAiMjI9jY2MDT0xMjRozAxo0bkZycrPRY2Qd+QRAQERFRqDFnZGRg06ZN6NevHzw8PGBmZgZDQ0PY29ujYcOGGDFiBP7880/cv39fOsbf31/t57qqW/v27ZU+DkEQMG7cOLXGvmnTJoXjChr4vNtvYW7q/j+TbhTmNUlERFRSZWVnITQqFADgae+p1jEGRTkgXWjXrh3Onz+f6/709HQ8ePAADx48gL+/P0aPHo2///4bRkZGOhgllUf//fcfJk+erPQLhri4OMTFxeHevXvYvHkzpk6dijlz5uCzzz6Dnp72voe5d+8eBg4ciJCQ3LVU3r59i7dv3+LWrVvYvHkzACAlJQUmJiZa61+VnTt3Yvny5fn2tWHDhiIfCxEREVFJ8TDmIdKy0mBqYAoPWw+1jilzAd6LFy8AAK6urhg0aBDatm2LypUrIysrC5cuXcIvv/yC58+f459//kFGRob0QVZTwcHBee6vUqWKVvqh0unw4cMYPHgwEhMTAQB169bFkCFD0KxZMzg6OiIpKQmPHz/GkSNHsG/fPsTExGDGjBn48MMPYWNjo5UxvHnzBh07dpReI15eXhg5ciTq1KkDMzMzxMTEICQkBKdPn8aRI0eQkpIiHdu3b180bdpU6XmDgoKkGbhPPvkEkyZNUtrO3Nxc6f0mJiaIj4/H3r17MWTIEJXjf/nyJU6cOCEdk5qamv+Dfsf333+PGTNmKN23fPlyrFixAgCwdu1aNGvWTGk7JyenAvdbWP7+/vD39y/SPtq3bw9RFIu0DyIiIiocWYKVOo51oCeo96V/mQvwPD098cMPP2DAgAHQ19dX2NeiRQuMGjUKrVu3xv3797FlyxZMnDgR7dq107jfevXqaXwOKptu376NgQMHIjk5GQYGBvjtt9/wySefKJ2ZGzVqFKKiorBgwQIsW7ZMq+NYtGiRFNz5+voqXb7WoUMHfPrpp0hISMC6deuk15CNjY3KQDM6OlradnJyKvBroU+fPvj333+xYcOGPAO8zZs3IysrC66urqhWrZrSmfr8VKxYERUrVlS6Tz5wq1KlCl/TREREpHOyEgn1nNT/XFLmrsE7cOAABg8enCu4k3FwcMAvv/wi/bxjx47iGhqVQ6IoYsSIEdI1devWrcPkyZPzXHbp6OiIpUuXYseOHTA0VK+gpTr27t0LAHB2dsb8+fPzbGtpaYmpU6dqtX9VRo8eDQA4evQoXr9+rbKdbHnmiBEjtLpslYiIiKikkiVYqetYV+1jyuWnpA4dOkjbDx8+1OFIqKw7ePAgbt26BQDo3bs3Ro4cqfaxAwYMULmssTCePHkCIGd2qiQFSF27doWjoyMyMzOxdetWpW1CQkJw8+ZNADmznLrwbrbJ7OxsrF27Fh06dICzszP09PQwduxYqX12djZOnTqFGTNmoHXr1nBwcIChoSFsbGzQsGFDzJgxQ/o/USW/LJrvJhMJCgrCsGHDpORSFStWxKhRoxAaGqr248pvDLGxsZg/fz7q1q0Lc3Nz2NjYoF27dti0aVOej0Vm//796NatGxwdHWFmZoaaNWviyy+/xMuXLwEAHh4eEARB4XdZ3NLT07F8+XJ06NABjo6OMDIygouLC3r06IGNGzciOzs7z+Pv37+PTz/9FPXq1YOlpSWMjIzg6uqKhg0bYty4cdi2bRvS0tJyHZeVlQV/f3907dpVSsBkbW2NGjVqoFOnTvjhhx9w586donrYRERUAsmWaNZ1Uj/AK3NLNNUh/4dV1UwfkTasW7dO2p4+fbruBgLAyMgIaWlpCAsLQ2ZmJgwMSsbL38DAAMOGDcMff/yBDRs2YOrUqbna/PPPPwCA9957D/Xr1y/uIeaSmpqKrl27StcEKvPNN99gwYIFue6Pi4vDrVu3cOvWLaxYsQIbN25Ev379NB7T8uXLMW3aNGRmZkr3vXjxAhs3bsSuXbtw+PBhjZej37t3D926dcuVwfX8+fM4f/48Ll26hKVLl6o8fvLkyVi+fLnCfQ8ePMDPP/+MjRs34tChQxqNTxsiIiLQvXt33L17V+H+V69e4fDhwzh8+DBWrlyJvXv3ws7OLtfx27dvx8iRI5Genq5wf2RkJCIjI3Hr1i2sW7cOwcHBCsuAExMT0aNHj1xLjzMyMhAfH4+wsDCcOnUK169f58oTIqJyIj0rHffe3ANQzpdoquPs2bPSdu3a6tWTyI+3tzecnJxgZGQEJycntG/fHosWLUJMTIxWzk+lk+zDmrm5Oby8vHQ6lsaNGwPIuWZu+vTpuT6A6pJsVu7q1au5PlhnZ2dLyZB0NXv3rpkzZ+LEiRPo06cPdu3ahWvXruHQoUPo3r271CYzMxMVKlTApEmTsGHDBgQEBODatWvYs2cPvvrqK1hYWCA5ORnDhw/Pc4ZNHUePHsWnn36KunXrYu3atQgKCsK5c+ekLKzJyckYNWqURv/nycnJ6N27N968eYO5c+fizJkzuHr1Kv7++29UqlQJALBs2TIcPXpU6fE//vijFNy5ublh2bJluHLlCs6dO4c5c+YgLi5OulZVVxITE9GpUyfpOdi3b1/s27cPV69exfbt26XX8IULF9C7d29kZWUpHP/q1Sv4+PggPT0dTk5O+Oabb3Ds2DFcv34dAQEBWL9+PcaNG6c0MPTz85PeL3r16oUtW7ZIz5nDhw/jhx9+QKtWrSAIQhH/FoiIqKR48OYBMrMzYWlkCTcrN/UPFMuZrKws8f333xcBiADEq1evFvpcvr6+0nlU3WxsbMQ9e/aodb7U1FQxLi5Ouj19+lQEIMbFxRVoXCkpKeKdO3fElJSUwjwsKoDTp09L/9e+vr4K+549eybta926tVb6GzNmjHTO8PDwAh27Y8cOheems7OzOGHCBHH9+vViaGiomJ2dXagx5fU7UEX+ccjUrl1bBCDOnj1boe3x48dFAKK+vr4YGRkpiqIoenl5iQBEd3f3Qo1ZGfnX8+nTp3Ptl3+cAMS5c+fmeb7w8HAxPT1d5f6nT5+KFStWFAGII0eOVNpG9ntS9Tjlx9OjRw8xLS0tV5vvvvtOarNr1648H5eyxy3/f2VtbS2GhITkavPgwQPRxMREBCD26dMn1/7IyEhpf/Xq1cWoqKhcbQICAkQjIyOprzFjxih9zPkpzPNRZsaMGXn+/2ZnZ4sjRoyQ2ixfvlxh/5o1a6R9wcHBKvtJTk4Wk5OTFe5zc3MTAYgDBw7Mc4xv3rwpwCPKwb8JRESl07aQbSL8ILZY3UIURVGMi4tTKzYodzN4S5YsQWBgIACgf//+aNKkiUbnq1+/PubNm4f9+/fj2rVruHz5MtavXw9vb28AOderDBgwAIcPH873XAsXLoS1tbV0c3MrQKReGKIIZCaV/ZuOUsC/efNG2i7O1PqqDBgwAL6+vtIMwKtXr7Bq1SqMGTMGtWvXhp2dHT744ANs3rwZGRkZxT4+2ezcpk2bFNL2y5KrdO7cGS4uLsU+LmVq1qyZbxFtDw+PPJPUVKpUCV9++SUAYN++fRqVKjAxMcG6deuU1vWcOnWqdH9hMo/K+/bbb1G3bu5rAKpXr46+ffsCgNI6j+vXr5fKWvz2229wcHDI1aZVq1aYPHmyRuPTRFpaGlavXg0gp4yJsv9fQRCwfPly2NvbA0Cu5aiy6whtbW3zzMJqamoKU1NTpce2bds2z3Eqm/0jIqKySbr+rgAJVoBydg3e2bNn8fXXXwPI+cAtq3lVWNOnT1f6IaB58+YYPXo0Vq5ciYkTJyIrKwvjx4/Hw4cP8yzkPGvWLHz++efSz/Hx8UUb5GUlA/9aFN35S4rBiYCB9pKVqCshIUHa1mayFE34+fmhZ8+e+PHHH3HgwAGFWnKxsbHYt28f9u3bBz8/P2zevFll7buiMGLECMyZMwePHz/G+fPn0a5dOyQnJ2PXrl0ASs7yTAAYMmRIga/fjY+Px5s3b5CcnCwFc2ZmZtK+8PBwVK1atVDj6dKli8ovESwtLVGjRg3cvn0bjx49KtT5gZzgZvjw4Sr3N2nSBFu3bsXbt28RGxurUFZDdq2ig4ODwjLWd40ePRpLliwp9Bg1ce3aNcTGxgLISSyj6v/XysoKgwcPxooVK3Dnzh1ERkaiQoUKACD9GxMTg7179+KDDz5Qu/8KFSrgyZMn2LZtG8aPHy89N4iIqPySZdAsyPV3QDm6Bu/27dvo168fMjMzYWJigu3bt2s8q5JfAeqPP/4YH374IYCcZAc7d+7Ms72xsTGsrKwUblR6WVpaSttJSUk6HImiZs2aYfv27Xj79i1OnTqFhQsXYuDAgXB0dJTaPHjwAO3bt0dISEixjaty5cpo3749gP/N2u3atQuJiYmwsLDQSiISbWnQoIFa7R4/foxPP/0UHh4esLa2RtWqVVGvXj3Ur18f9evXx4QJE6S28vUEC8rT0zPP/bJZH/kvHQrKwcFBmrnKqw9l/cieRw0bNswzg2v9+vWVzkIWB/nnevPmzfNsK79f/rg+ffpIfxf69euHjh07YsmSJbh27Vqu6/XeNWbMGADAxYsXUaVKFUyZMgW7d+9GVFRUQR8KERGVEbIaeJzBUyI8PBze3t6IiYmBvr4+tm7dqpXi5ur4+OOPsWbNGgA5M4gjRowoln7Vom+WM7tV1unr5ptw+Q/Dr1690skY8mJqaooOHTpIZUOysrKwf/9+TJ06FU+fPkVSUhKmT5+eZ6ZIbRs1ahROnz6N7du3488//5QCvQEDBpSoGQ1bW9t82xw+fLhASUNSUlIKPZ78fjeyoCq/IEMbfSjrR5ZsSv5LBGX09fVhZ2cnLVcsTm/fvpW28/vyT36psPxx9vb22LdvH4YNG4bnz5/j9OnTOH36NICcmb9OnTph3Lhx6NWrV65zzps3D8+fP8e6devw+vVrLFu2DMuWLQOQs2R0wIABmDRpEpydnTV6nEREVDqkZqbiwdsHAApWIgEoBzN4L168QOfOnfHixQsIgoC1a9cWaNmMpurUqSNtP3/+vNj6VYsg5CxdLOs3HWWdq1ixonSt0a1btzT6cF0c9PX10bdvXxw8eFCaRTl16pTCB9iiNnDgQJiamiIuLg6rVq3CyZMnAZSs5ZlA/uVVoqOjMXz4cCQnJ8PCwgJ+fn64dOkSXr9+jbS0NIiiCFEUpccHQKNr8Ei7NMlU2bZtW4SFhWHjxo0YPny4lGE0Pj4eu3fvRu/evdGtW7dcgb+hoSHWrFmDkJAQzJ07F61atZJeh7dv38Y333yD6tWrY+/evYV/YEREVGrci76HbDEbtia2qGBRoUDHlukALzo6Gl26dJGuO/nzzz8xevToYh0DU1qXb7KZ4qSkJIXyHCVZ/fr1pSVooiji4cOHxda3paWllKxj5syZyMrKQqVKlaRZxtJix44d0vVcu3fvhq+vL1q0aCEVzZYpzuBZl2QznvktN8zKytJZaRn5Jab5zbjLzzAqS3piYmKCESNGYNOmTXj69CkePXqEP//8EzVr1gSQU9Zizpw5Ss9dp04dfPvttwgICEBcXByOHz8OHx8f6OvrIzExEcOGDUNkZGRhHiIREZUi8gXOCxpPlNkALy4uDl27dsWdO3cAAIsWLdJJhjZZ/wDg6upa7P2Tbvn4+Ejbv/32m+4GUkDyz9Xi/pJCNlsnSwAzYsSIPK/bKolu385ZM29nZ4fOnTurbHf16tXiGpJOyTJv3rx5E9nZ2SrbBQcHIy0trbiGpUA+6+WVK1fybCvLxPzucarIrqkLCgqSZvT+/ffffI8zMTFB586dsXbtWvz0008AcpbyHjhwIN9jiYiodJMSrDgWLMEKUEYDvOTkZPTs2RPXr18HAMyZMwczZ87UyVhWrlwpbeu60DUVv549e+K9994DAOzfvx8bN25U+9hdu3ZpNTmLuksARVGUXjuCIMDDw0NrY1CHt7c33NzcYGxsDGNj4xK3PFMdmZmZAHKCVFUBTXJysnSNYVnXqVMnADmrKvIqGfPPP/8U15ByadKkiZQgZf369Sr/3xISEqTgrE6dOlLmTHVYWVmhWbNmAAqeVEf2OyzMsUREVPrIz+AVVJkL8NLT09GvXz8EBAQAAKZNm4bvvvuuwOfx9/eHIAgQBEFpKYTg4GCEhYXleY5Vq1ZJdZVcXFxKVBZAKh6CIGDTpk1SggofHx8sX748z1mM6OhoTJ06FQMHDtRqPbp27dph06ZNSE9Pz7PdggUL8OBBzkW9rVu3VlqzrCjp6+vjyZMnSE1NRWpqqtK6ayVdjRo1AOQEccpmamSlU168eFHcQ9OJMWPGwNjYGEBOeRllAcqlS5ekpCK6YGxsjPHjxwPIyYz57bff5mojiiKmTJkijX/KlCkK+48ePZrn8sm4uDhp9q9KlSrS/W/fvsX+/fvz/BLm2LFj0rb8sUREVDbJZvAKmkETKINZNIcNGyb9IezYsSM+/PDDPFO9GxkZSddFFMS1a9cwfvx4dOjQAd27d0f9+vVhb2+PzMxM3L17F5s2bZLGoa+vj1WrVpWYWmhUvOrWrYsdO3Zg8ODBSExMxOTJk7FixQoMGTIEzZo1g6OjI5KSkvDkyRMcO3YMe/bsQXx8fL7n3bFjR77Bl5GRkVS7LDQ0FCNHjsTUqVPRt29ftGnTBtWqVYO1tTUSExMRHByMjRs3Sl+OGBkZ4eeff9b8F1AODR48GLNnz0ZaWhp8fHxw8+ZNdOnSBdbW1rh9+zb+/PNPXLt2Da1bt5Z+32WZq6srfH19MXv2bISFhaFJkyb4+uuv0bRpU6SlpeHo0aP45Zdf4OrqiqSkJERFRWllafDNmzfh7++fb7uOHTuicuXKmD9/Pnbt2oVHjx7Bz88PwcHB8PHxQYUKFRAeHo6lS5fizJkzAICWLVsqlLkAgC1btqB3797o0qULvL29Ua9ePdjZ2SEhIQEhISFYunSplGxr4sSJ0nHx8fHo06cPPDw80L9/fzRv3hzu7u4wMDBAZGQk9u/fL31ZWLFiRaVZOImIqOxISk9CeEw4gILXwAPKYIAnK4oM5GQAzK9elbu7OyIiIgrVV1ZWFk6cOJFnGnl7e3usWbMGvXv3LlQfVDZ0794dAQEBmDRpEgICAhASEpLnFw/29vbw9fXNsxbil19+mW+/1tbWUoBXqVIlvHnzBm/fvsXatWuxdu1alcdVqFAB69aty7ceGClXqVIlrFixAuPHj0dqaioWL16MxYsXK7QZMmQIPvroozyv0StLvv76azx+/BgrV67EkydPMGnSJIX9Dg4O2L59O/r37w8g5/ozTe3du1etrJO7d+9G5cqVYWlpiZMnT6J79+64e/cudu7cqbR+aevWrbFv3z6l2VQzMjJw6NAhHDp0SGV/EydOxNSpU3PdHxERgV9//VXlcRUqVMDevXthYWGR72MiIqLSKzQ6FCJEOJo5wtE87xJDypS5AK+49OjRA2vWrMGlS5dw48YNvHr1Cm/evIEoirCzs8N7772Hbt26YezYsSxYTgByimNfuHABp06dwt69e3Hu3Dm8ePECb9++hZmZGSpUqICmTZuiZ8+e6Nevn1Y+4Mq7efMmbty4gePHj+PixYsIDQ1FZGQkkpKSYGZmBmdnZ9SvXx89e/bEkCFDFAq1U8H5+PigVq1a+OmnnxAQEIDY2Fg4ODjgvffeg4+PDwYPHizNBpUHgiDgr7/+Qo8ePbBs2TJcvXoVycnJqFSpEnr06IEvv/wSlSpVkmavra2tdTJODw8P3Lp1C3///Te2b9+OkJAQxMfHw87ODo0aNcKIESMwfPhwpYl/lixZgi5duuDUqVP477//EBkZiaioKOjr68PNzQ0tW7bE+PHj0aZNG4Xj3N3dERgYiEOHDuHixYt4/PgxXr16hcTERNjY2KBOnTro3bs3JkyYwL8nRETlgKzAeWFm7wBAEFl8qcSKj4+HtbU14uLiCvRHPTU1FeHh4ahSpYrWgwQioqLy7NkzuLm5AQBWr16NDz/8UMcjKhv4N4GIqHT58tiX+PnSz5jSbAr+7PGndL+6sUGZS7JCRESl05YtW6TtFi1a6HAkREREuiOVSCjkDB4DPCIiKnJJSUl5Zpi8ceOGlLmySZMmpTJ7KhERkTZIGTQLUSIB4DV4RERUDKKiolC7dm307dsX3bp1Q61atWBsbIwXL17gyJEjWLNmDVJSUiAIQp6JRoiIiMqy+LR4PIl7AqBwJRIABnhERFRMUlNTsXXrVmzdulXpfiMjI/z9999o165dMY+MiIioZLgTdQcA4GrpCltT20KdgwEeEREVuYoVK2Lbtm04cuQIgoKCEBUVJWWQ9fDwQOfOnfHpp5/C3d1d10MlIiLSmZDXOWW0Cjt7BzDAIyKiYmBoaIjBgwdj8ODBuh4KERFRiaVpiQSASVaIiIiIiIhKhJAozWfwGOARERERERGVALIZvMJm0AQY4BEREREREenc25S3iEzMKSlUx7FOoc/DAI+IiIiIiEjHZLN3la0rw8rYqtDnYYBHRERERESkY7IC55okWAEY4BEREREREemcNkokAAzwiIiIiIiIdI4zeERERERERGWElEGTM3hERERERESl1+uk14hKjoIAAbUda2t0LgZ4REREREREOiSbvatqWxVmhmYanYsBHhERERERkQ5JCVY0KHAuwwCPiIiIiIhIh6QEK46aJVgBGOARERERERHpFGfwiIhKGQ8PDwiCgLFjxxZZH35+fhAEAYIgFFkfREREpF2iKEozeJpm0AQY4BFp5MyZM9IHaj8/P7WOOX36NKZPn47GjRvDxcUFRkZGsLGxgaenJ0aMGIGNGzciOTlZ6bFjx46V+pO/6enpwcbGBvXr18dHH32Ey5cv5zsOf39/hXPMnDkz32Pat28PQRDg4eGh1vgOHz6c7zllbQsa+MgCJk1uZ86cKVCfVLzkA1b+XxERUVkVmRiJ2NRY6Av6qOVQS+PzMcAjKib//fcf2rZti44dO+L333/HjRs38OrVK2RkZCAuLg737t3D5s2bMWrUKFSqVAm//PILsrOz1Tq3KIqIi4tDSEgIVq9ejZYtW+LTTz+FKIpqj2/ZsmV4/fp1YR+eUr6+vlo9HxEREVFZI1ueWd2uOkwMTDQ+n4HGZyCifB0+fBiDBw9GYmIiAKBu3boYMmQImjVrBkdHRyQlJeHx48c4cuQI9u3bh5iYGMyYMQMffvghbGxslJ7z6NGjcHV1BQBkZmYiIiICJ06cwMqVK5GZmYmlS5eicuXK+PLLL9UaY1JSEhYtWoRff/1VK48ZAIKCgrBv3z706dNHa+eUOXbsGNLT05Xu8/HxwdWrVwEAwcHBKs9RpUoVrY9LlYiIiCLvw8/PT+2ZZCIiIioZZCUS6jlpnmAFYIBHVORu376NgQMHIjk5GQYGBvjtt9/wySefQE8v9wT6qFGjEBUVhQULFmDZsmV5nrdmzZoKSyUbNmyIvn37omvXrlJA9cMPP2D69OkwNDTM81wODg6Ijo7GihUr8OWXX6JChQoFf6Aqzunr64vevXtr/bqwmjVrqtxnbm4ubderp503SyIiIqKiICVY0cL1dwCXaBIVKVEUMWLECOmaunXr1mHy5MlKgzsZR0dHLF26FDt27Mg3MFOmd+/eaNOmDQAgNjYW165dy/cY2SxfamoqfvjhhwL3qcxXX30FALh58yZ27dqllXMSERERlTVSiQQtzeAxwCMqQgcPHsStW7cA5AReI0eOVPvYAQMGKMxEFUT9+vWl7adPn+bb/v3330fv3r0BAH///bdax+Rn8uTJcHZ2BpBzLZ661xMWh3ezTcbFxeHbb79Fo0aNYGNjA0EQ4O/vL7VPSkrCtm3bMH78eDRs2BDW1tYwNDSEo6MjvLy88PPPP0vLb1XJK4umfLIeWTKRf//9F506dYKjoyNMTU1Rq1YtfPXVV3j79q3ajyu/Mdy7dw8fffQRPDw8YGxsDGdnZ/Tr10+tJD2ZmZn4448/8P7778PKygo2NjZo2rQplixZgvT0dEREREhjkf9dFreoqCjMnTtX+r81MTGBh4cHRo0ahQsXLuR7/KlTpzBs2DBUqVIFpqamMDMzg7u7O1q0aIEZM2bg1KlTSo+LjY3F999/j5YtW8LW1lZ6vtSpUwf9+vXDihUr8OrVK20/XCIiKmUUMmhqoUQCwCWaREVq3bp10vb06dOLrV8jIyNpW91ZwAULFuDAgQNIS0vDd999h5UrV2o0BjMzM3z99df47LPPcPv2bWzbtg3Dhg3T6JxF4cGDB/D29s7zGrmePXvi7Nmzue6Pjo7GuXPncO7cOSxfvhyHDh2Cp6enRuPJzs7GqFGjsHHjRoX779+/j59++gm7d+/G+fPn4eLiolE/u3fvxsiRIxUytr5+/Rp79uzB/v37sWnTJgwZMkTpsfHx8ejatWuuQPDatWu4du0atm7dqvHzRxuOHTuGQYMGIT4+XuH+x48f4/Hjx9i4cSMmT56MP/74Q+ms+meffYbffvst1/1PnjzBkydPcOXKFfj7+yM6Olphf2hoKDp37owXL14o3B8dHY3o6GiEhoZiz549yMrKwpQpUzR/oEREVGo9iXuCxPREGOoZooZdDa2ckzN4REXo/PnzAHKuCfPy8iq2fkNDQ6VtVSUN3tWoUSP069cPQE5gGh4ervE4Jk6cKCWCWbBgAbKysjQ+p7YNHDgQz58/x6efforjx4/j6tWr2LJlC2rV+l+a4szMTNSvXx9z5szB7t27ceXKFVy+fBnbtm3D0KFDoaenh/DwcPTt2xepqakajWfevHnYuHEj+vbti127duHatWs4dOgQevbsCQAICwvDZ599plEfwcHBGD58OJydnbF06VJcvnwZly5dgp+fH0xMTJCVlYUJEyYgKipK6fFDhw6VgrvWrVtj69atuHr1Kg4fPowRI0YgMDAQEydO1GiMmrp58yZ69+6N+Ph4GBoa4rPPPsPp06cRGBiIlStXSgl2li1bhlmzZuU6/sCBA1Jw16BBA6xYsQJnzpzBjRs3cPr0aSxduhR9+/aFsbFxrmNHjRqFFy9ewNDQEJMmTcL+/fsRFBSEK1euYOfOnfjyyy9RvXr1In38RERUOshm72o51IKhfsEvzVFKpBIrLi5OBCDGxcUV6LiUlBTxzp07YkpKShGNjGROnz4tAhABiL6+vgr7nj17Ju1r3bq1VvobM2aMdM7w8HClbYKCgkQ9PT0RgFijRg0xKytLabt169ZJ5zp9+rQoiqIYHBwsCoIgAhB9fHxyHePl5SUCEN3d3fMdn8yyZcuk+9avX5/rGNm+MWPG5PnYC0I2TlVvcb6+vtJ+PT098ejRo3me7/79+3nuP378uPQ7X716tdI27u7uKh+n/PMIgPjdd9/lapOdnS16e3uLAEQDAwPx9evXeT6uvMYAQGzSpInS95aNGzdKbX799ddc+/fs2SPt79+/v9Ln188//6zweNatW6d0PPmRfzyy56i6mjVrJgIQ9fX1lf7/vn37VqxTp470HAgJCVHYP2rUKOm5npCQoLKfN2/eKPz88OFDacx//vmnyuOys7PFt2/fFugxFRb/JhARlVyLLywW4QdxyPYh+bZVNzbgDF45JooiktKTyvxNLEAtOG168+aNtO3k5FSkfWVlZeHhw4dYsWIFunXrhuzsbOjr6+Onn37KM6HLu+rVq4fBgwcDAP755x88ePBA47GNHz8elStXBgB88803yMzM1Pic2jR27Fh4e3vn2aZGjbyXTHTu3FnKXLpnzx6NxtOkSRPMnj071/2CIODzzz8HkDOjeOnSJY36Wbt2LaysrHLdP3z4cGnWVTYDLe+vv/4CAJiamuKvv/5S+vz6/PPP0bhxY43Gp4nAwEAEBQUBAD766COl/7+2trZYtWoVgJxlscuXL1fY//LlSwBA48aNYWFhobIvOzs7pccBQLt27VQeJwgCbG1t83kkRERU1mk7wQrAa/DKteSMZFgsVP3BpaxInJUIc6PCJSvRREJCgrRd2GQpecmrhluNGjXw888/F6r+nJ+fH7Zv346srCwsWLAg17VgBWVkZIS5c+diwoQJePjwIfz9/TF+/HiNzqlNI0aMKPAxUVFRiI2NRVpamnSfo6MjAEhJdQpr+PDhKpOkNGnSRNp+9OhRofuoX78+GjRooHSfIAho1KgRXrx4kauPzMxM6VrEbt26SY9Z2TlGjRqF69evF3qMmjhx4oS0/eGHH6ps17p1a9SuXRuhoaEKxwCQSoWcO3cODx8+RLVq1dTqW77EiL+/v1brShIRUdmj7RIJAK/BIyoylpaW0nZSUlKx9SsIAoYMGYJevXoV6nhPT08p6NmyZYvC9XyF5ePjg6pVqwIAvvvuO5UFynVBVaDzroCAAAwZMgT29vZwcnJCzZo1Ub9+fen2999/A0CuhBsFlVeSFvnZIvkvELTZh3w/7/bx8OFDpKSkAFAMNpVp2rRpocenqZCQnD+WRkZGaNiwYZ5tmzdvDiAn2Y7883L06NEAcmbi69Wrh6FDh2LdunUICwvL83xVqlRB27ZtAQBLlixB3bp1MX/+fJw6dUohoQ0REVG2mI3QqJzPWdrKoAlwBq9cMzM0Q+KsvFO7lwVmhmY66dfe3l7aLop06EePHpWW0iUmJiI0NBR//PEHbt68ie+++w5v377Nt1i6Kr6+vtiyZQsyMzPh5+eHbdu2aTRWAwMDzJ8/H2PHjsXjx4+xZs0afPLJJxqdU1vUWSbn5+eHBQsWqHU+WQBUWGZmqp+v8sshNUlYk1cf8v2820dMTIy0rWr2Tt39RUlWSsLOzg4GBnn/mZNlIxVFETExMVJpj06dOmHp0qX48ssvkZKSgm3btkmvg4oVK6JXr1745JNP8N577+U655YtWzBo0CBcunQJd+7cwZ07d/Dtt9/C0NAQLVq0wPDhwzF27FiYmJho82ETEVEpEx4TjpTMFBjrG6OarXorRdTBGbxyTBAEmBuZl/mbquVuRa1ixYpwcHAAkLNsT9sZJGvWrIl69eqhXr16aNGiBXx8fBAYGChdb7R8+XLs3r27UOeuVq2aNIOxfft2BAcHazzekSNHombNmgCA77//XmF5oy7p6+vnuf/kyZNScFe1alUsX74c//33H2JjY5GRkQFRFCGKIubNm1ccw6UC0PS1P3nyZERERGDJkiXo0aMHrK2tAQDPnz/HypUr0ahRI8ydOzfXcRUrVsTFixdx4sQJTJo0CXXr1oUgCMjIyMD58+fxySefoF69erh//75G4yMiotJNtjyztmNt6Ovl/XmkIBjgERUhWZKFpKQkpXXUtM3Q0BD+/v7S8tAZM2YgIyOjUOeaN28eDA0NIYoi5s+fr/HY9PX14evrCyDnA7IsWUdJJ1t6aWtri8uXL+OTTz5B/fr1YW1trTA7lFcB8rJCfrZTVQkFdfcXJdkS0zdv3uSb1EeWFEVV0hMnJydMnz4dBw8exNu3b3Ht2jXMnTsXNjY2EEUR33//Pfbu3av03J06dcKyZcsQEhKCqKgobN26FR07dgSQs9xVVZ1BIiIqH4oiwQqgowAvPDwcly9f5reXVOb5+PhI28oKJheFChUqYNq0aQByEnGsWbOmUOfx8PCQElTs2bNHKwkzhg4dijp16gAAFi1apPFyxuJw+3bOm2+HDh3yXHZ49erV4hqSzlSrVk1aVnjt2rU82+ry91GvXs4fyvT0dNy8eTPPtoGBgQByEhMZGRnl2VZPTw+NGzfGt99+i5MnT0r3//vvv/mOyd7eHkOGDMHJkyel5Ec3b97USqZaIiIqnYoiwQqgpQDv6tWrCAwMRGBgYJ4p6ffs2YMaNWqgevXqUvayihUrFvo6IaKSrmfPntI1Ovv37y9QRspdu3YVOjnLZ599JqV2X7RoUaFLE8yZM0cq5KyNWTw9PT1puePLly9LxWtf9rvL6//ixo0buHLlSnENSWcMDAykWekjR46onKUTRREbNmwozqEp6Ny5s7S9du1ale1k18i9e4w6GjduLM34FTSxTqdOnaRtTZPyEBFR6VViZ/BCQkLw/vvvo2XLlpg+fbrKax62bNmCAQMG4NGjR9I1K6IoIjIyElOnTsWUKVM0HQpRiSMIAjZt2iQltfDx8cHy5cuRnZ2t8pjo6GhMnToVAwcOLPTySjs7O0ycOBEA8Pjx40J/2K5UqRImTJgAADh48KA0m6WJAQMGSEHv4sWLNT5fUZPVwLtw4YLSDIpRUVEYNWpUcQ9LZz7++GMAOclkJk6cqPS5/Ouvv+qsRAIAvP/++1IWz7///lthtk0mLi5Oeix6enq5kv5s27Ytzxnmq1evSkln5EuW3Lx5M89ZQ1EUpZIMgiDAw8NDrcdERERlS2Z2Ju5G3wWg/Rk8jbNoHjhwQNqWfRB8V3x8PKZMmQJRFJUGgKIoYsWKFfD29i5U3S6ikqxu3brYsWMHBg8ejMTEREyePBkrVqzAkCFD0KxZMzg6OiIpKQlPnjzBsWPHsGfPHsTHx2vc7xdffIGlS5ciNTUVixYtwpgxYwpU9Fxm1qxZWL16NVJSUrQy2yAIAhYsWIC+ffuWitmL0aNHY//+/UhKSoKXlxe+/vprqUTAxYsX8euvv+Lly5do2bKlxsXHS4P+/fvD29sbx44dw65du9CuXTtMnToV1atXR1RUFDZu3IiNGzfi/fffl5Y/aiPR0ZEjRxAREZFvu+HDh8PIyAh///03mjdvjvT0dPTo0QOffvopevfuDXNzc9y4cQOLFi2S6vzNmDFDWtYpM3PmTEycOBEffPAB2rVrh5o1a8Lc3Bxv3rzBhQsX8OeffwLIubZUvq7jzZs34ePjg2bNmqF3795o3LgxXFxckJGRgfDwcKxbtw7Hjx8HAPTp00ehbh4REZUfYW/DkJ6VDjNDM7jbuGv13BoHePLLklTV3Vq7di1iYmIgCALMzMywdOlS9O3bFwkJCZg5cya2bNkCURTx3XffMcCjMql79+4ICAjApEmTEBAQgJCQEKlWlzL29vbw9fWFlZVVoft0cXHBuHHjsHz5cty/fx/btm3DsGHDCnyeChUqYNKkSfjll18KPZZ3ffDBB2jatGmpuG5t4MCB8PHxwbp16/DixQtMnTpVYb++vj6WLFmCmJiYchHgATmzW127dkVgYCACAgIQEBCgsL9Ro0ZYvny5NIumjXIA6s729u3bV6p/t3//fgwaNAjx8fH45ZdflD6HJ0+ejIULFyo9V2xsLNavX4/169cr3W9sbIy//vpLac2/oKAgBAUFqRxnq1atCn19LBERlX63X+esiqrrWBd6gnbTomh8NlmiFPmU8O/aunWrtO3r64sxY8bA2toalSpVwoYNG1C3bs605LVr1/D48WNNh0RUIjVo0AAXLlzAyZMnMXXqVDRs2BBOTk4wMDCAlZUVatWqhREjRmDz5s149uwZPv3000LNuMn76quvYGhoCAD44Ycf8rxGNi8zZ86Eubm5RmN51zfffKPV8xWltWvXYsOGDWjbti0sLS1hbGwMd3d3jBo1ChcvXpSS2pQXNjY2uHDhApYsWYImTZrAwsIClpaWaNiwIRYuXIiLFy8qlJ+QlRcobt7e3ggLC8Ps2bPRsGFDWFlZwdjYGJUrV8aIESNw/vx5LF26VOnr7PTp0/j9998xYMAA1K9fH46OjtJrtVGjRpgxYwbu3LmDsWPHKhw3bNgwHDp0CJ999hnatGmDKlWqwMzMDEZGRqhUqRL69OmDTZs24fz58wq1MomIqHyREqxoscC5jCAW9hPf/7O1tUV8fDxatGiR61tcIOcbUAcHB2RnZ8PQ0BCvXr2CjY2NQpuff/4ZX331FQRBwL///osBAwZoMqQyIz4+HtbW1oiLiyvQTE5qairCw8NRpUoVFtIlIp3YuHGjdG1iWFgYqlXTXgFXKhj+TSAiKnkGbx+M7Xe24+cuP+OLVl+odYy6sYHGM3iyzHKyjH3vCggIQHZ2NgRBQKtWrXIFdwBQv359afv58+eaDomIiHRsy5YtAABHR0dUrVpVx6MhIiIqWYpyBk/jAE+2/Cs5OVnp/nPnzknbXl5eStvIijIDQGJioqZDIiKiIvT8+fM8M0yuXr0ahw4dApCTpEYbSVaIiIjKivSsdDx4m1MHVdsZNAEtBHj29vYQRVFlsdZjx45J26oCvISEBGlbVnNLE1evXsU333wDb29vVKpUCcbGxrCwsEDNmjXh4+ODCxcuaNzHu7Zs2QJvb2+4uLjAxMQE7u7uGDlyZLlJukBE5cfx48fh7u6OqVOnYteuXbh27RqCgoKwdetW9OvXDx999BEAwNnZGbNmzdLxaImIiEqW+2/uIzM7E1bGVqhkVUnr59c4i2aDBg3w7NkzREVF4fLly2jRooW0LyQkBLdu3QKQE7i1bt1a6TmePn0qbTs6Omo0nnbt2uH8+fO57k9PT8eDBw/w4MED+Pv7Y/To0fj7779hZGSkUX8pKSkYOHCg9G21zJMnT7Bp0yZs2bIF8+fPh6+vr0b9EBGVJFFRUfjzzz+lcgHvqlChAg4ePMhEIkRERO+Qlmc61i2SVS4az+DJl0YYP368VFfo9evX0re4giCgR48eKoMp+VTp1atX12g8L168AAC4urpi2rRp2LFjBwIDA3Hp0iX8+uuvqFixIgDgn3/+yZX9rDDGjRsnBXcdOnTAnj17EBgYiDVr1qBatWrIzs6Gn58fVq1apXFfREQlQa9evbBixQr07dsXNWvWhK2tLQwMDODg4IC2bdvixx9/xL1799CoUSNdD5WIiKjEkZVIqOdUL5+WhaNxFs3ExETUqlULL1++zDmhIMDJyQmvX7+GKIpScfOzZ8+iTZs2Ss/h7u6Op0+fwsDAALGxsTAzMyv0eHr16oXRo0djwIABCmm6ZaKjo9G6dWupvMPZs2fRrl27QvV16tQpdOrUCQDQu3dv7N69W6HP6OhoNGnSBE+ePIGNjQ0ePXoEW1tbtc/PLJpERKQp/k0gIipZ+m3rhz139+C3rr9hWgv1Sy0VWxZNCwsLbNiwAcbGxhBFEdnZ2Xj16hWys7OlmluTJk1SGdydPXsWT58+hSAIaNSokUbBHQAcOHAAgwcPVhrcAYCDg4NCsdsdO3YUuq+ff/4ZAGBgYIDly5fn6tPBwUEqzhsbG4vVq1cXui8iIiIiIir9inoGTytl0zt27IjLly+jZ8+eUqAHAFWqVMHvv/+u8hoN4H9BkiiKCss9i1KHDh2k7YcPHxbqHAkJCTh58iQAoHPnzqhUSfkFkv3795ci7N27dxeqLyIiIiIiKv1SMlLwMCYn/iiKEgmAFpKsyDRo0AD79+9HVlYWoqKiYGJiorTm3bu+/PJLzJgxA4BiPbyilJaWJm2rmunLT1BQENLT0wGozg4KAEZGRmjRogWOHTuGoKAgZGRkSKUliIiIiIio/LgbfRfZYjbsTO3gbO5cJH1oLcCT0dfXh4uLi9rtC3v9mybOnj0rbdeuXbtQ57hz54607enpmWdbT09PHDt2DJmZmXjw4AHq1KlTqD6JiIiIiKj0uh31v+WZRVUnVitLNEuT7OxsLFq0SPp58ODBhTrPs2fPpG1VyzNl3NzcpG35khBFTcP8OUREVAbwbwERUckhXyKhqGh9Bk8dGRkZePPmDWxtbbVS2LwglixZgsDAQAA518c1adKkUOeRL85uYWGRZ1tzc3NpOzExUWW7tLQ0heWj8fHxhRqbnl5O3J6dnV2o44mIqOyQ/S2Q/W0gIiLdkZ/BKypaebePjo7G69ev8fr16zzbBQYGokuXLrCwsEDFihVhZmaGli1b4uDBg9oYRr7Onj2Lr7/+GgDg5OSEFStWFPpcqamp0nZ+xdLlg9iUlBSV7RYuXAhra2vpJj/zVxAGBgbQ09NTGCMREZVPqamp0NPTg4GBTr7TJSIiOcUxg6dxgPfo0SM4OzujQoUKUk04ZU6ePAkvLy+cOnUKGRkZUo28K1euoE+fPlI5gaJy+/Zt9OvXD5mZmTAxMcH27dvh5ORU6PPJ1xKSJVtRRX5WztTUVGW7WbNmIS4uTroVdjmnnp4ezMzM8pwtJCKi8iExMRFmZmacwSMi0rHE9ERExEYAKLoMmoAWArx9+/ZJ6/snTpyotE1aWhrGjh2rEOjIE0URs2fPRkBAgKbDUSo8PBze3t6IiYmBvr4+tm7dqnFyF0tLS2k7v0AqKSlJ2s5rOaexsTGsrKwUboVlZWWF5ORkxMTEFPocRERUusXExCA5OVmjvydERKQdoVGhAABnc2c4mDkUWT8ar9e4dOmStP3BBx8obbNhwwY8f/4cgiBAX18fc+bMQd++fZGQkID58+fjzJkzEEUR8+bNw6lTpzQdkoIXL16gc+fOePHiBQRBwNq1a1WOsyDkE6s8e/YMTZs2VdlWfiausMsuC8ra2hopKSl4+fIlkpKSYG1tDQMDgyLL1kNERCWDKIrIzMxEXFwcEhISYGtrC2tra10Pi4io3JOWZxbh7B2ghQDv7t27AHKuaVOVTXLz5s3S9ldffQVfX1/p54MHD6JOnTp4/Pgxzp07h5cvXxaozEJeoqOj0aVLFzx69AgA8Oeff2L06NFaObd8qQPZ70AV2X4DAwPUqFFDK/2rw9nZGUZGRoiNjVXI+klERGWfsbExnJ2dYWtrq+uhEBER5BKsOBZdghVACwHe06dPIQgCqlSponR/cnKytPRSEARMmTJFYb+pqSnGjRsHX19fiKKIoKAg9O7dW9NhIS4uDl27dpXq1S1atAiTJ0/W+LwyzZo1g5GREdLT0xWSt7wrPT0dly9flo4pziLngiDAzs4Otra2yMzMRFZWVrH1TUREuqOvr89VG0REJUypmcGTXV8mf02avIsXLyIjIwOCIKBp06ZKZ+fkSxVERERoOiQkJyejZ8+euH79OgBgzpw5mDlzpsbnlWdpaYlOnTrh8OHDOHHiBJ49e6Z0BnPXrl1SuYN+/fppdQzqEgQBhoaGxRpcEhERERHR/xRHiQRAC0lW9PX1AUBlSv7z589L2+3bt1faxsbGRtrWNPNjeno6+vXrJ80aTps2Dd99912Bz+Pv7w9BECAIAvz8/JS2mTFjBgAgMzMTkydPzjVDFh0dLQWWNjY2GD9+fIHHQUREREREpVtcahyexedcMlXHsU4+rTWj8Qyera0tIiMjER4ernT/iRMnpG0vLy+lbeSzTGpap2fYsGE4duwYAKBjx4748MMPERISorK9kZERatasWai+OnbsiKFDh2Lr1q3Yt28funTpgunTp8PV1RXBwcH4/vvv8eTJEwDA4sWLeR0EEREREVE5JJu9q2hZETYmNkXal8YBXt26dREZGYnnz5/j9u3bqFv3f2tKIyIipOvPDAwMVJYmiIyMlLbt7e01Gs+uXbuk7VOnTqFBgwZ5tnd3d9doWejatWsRHx+PQ4cO4fTp0zh9+rTCfj09PcybNw8TJkwodB9ERERERFR63X5dPMszAS0s0fT29pa2J02aJF1vlpaWhilTpkAURQiCgA4dOsDc3FzpOa5duyZtV6tWTdMhFStTU1McPHgQmzZtQpcuXeDk5AQjIyO4ublh+PDhuHDhgsolnkREREREVPZJCVYcizbBCgAIoqxKeSFFR0ejRo0aUmBnYWGBunXr4sGDB3j79q0U4O3duxe9evVSeg5PT0/cv38fenp6ePPmDev1/L/4+HhYW1sjLi6ORWqJiIiIiEqpzv90xsnwk1jbZy18GvkU6hzqxgYaz+A5ODhgxYoVUirmhIQEXLlyBW/fvpXa9O3bV2Vwd/36ddy/fx+CIKBu3boM7oiIiIiIqEwprhIJgBYCPAAYOnQoDhw4IBX/FkURoijCxMQEn332GbZs2aLy2F9//VU6pkePHtoYDhERERERUYnwJvkNXiW9AlD0GTQBLSRZkenWrRu6deuGZ8+e4dmzZzAxMUHt2rVhbGyc53Hdu3dHly5dAAAdOnTQ1nCIiIiIiIh0TpZB08PGAxZGFkXen9YCPJlKlSopLfityogRI7Q9BCIiIiIiohKhOBOsAFpaoklERERERES5FWeJBIABHhERERERUZEJiSreGTytL9EEcjJpnjhxAleuXEFYWBhiYmKQlpYGGxsbODo6onHjxmjbti0aNmxYFN0TERERERHpnCiKxT6Dp9UA7+3bt5g3bx42bNiApKQkle3++ecfAECjRo0wd+5c9O3bV5vDICIiIiIi0rnXSa/xJuUN9AQ9eDp4FkufWluiee7cOdSrVw9//fUXEhMTAfyvXIKq2/Xr1zFgwACMGjUKmZmZ2hoKERERERGRzskSrFS1rQpTQ9Ni6VMrM3iBgYHo2bMnkpKSpILngiCgcePGqF+/PhwcHGBkZISEhAQ8fPgQV69exevXrwHkBIGbN29GWloa/v33X20Mh4iIiIiISOdkJRKKa3kmoIUALysrC2PHjpWCO0NDQ0yfPh1Tp06Fq6ur0mOys7Nx7NgxzJ49Gzdv3oQoiti5cyc2btyIkSNHajokIiIiIiIinSvuEgmAFpZobt68GXfv3oUgCLC2tsbp06exaNEilcEdAOjp6aFbt24ICgqS6uCJoghfX19Nh0NERERERFQi6GIGT+MAb+/evdL2H3/8gZYtW6p9rL6+PtauXYvatWsDACIiIhAcHKzpkIiIiIiIiHRKFMXSOYN3/fp1AIC9vT2GDx9e4OMNDQ3x8ccf5zofERERERFRafU84Tni0+JhoGeAWg61iq1fjQO8169fQxAE1K5dG3p6hTtd/fr1pe2oqChNh0RERERERKRTsvp3NexqwEjfqNj61TjA09fXBwCkp6cX+hwZGRm5zkdERERERFRaScsznYpveSaghQDP2dkZoijizp07SE1NLdQ5rl69qnA+IiIiIiKi0kxKsOJYfAlWAC0EeK1atQIAJCYmYtmyZQU+PiEhAX/99Zf0c0GStBAREREREZVEpXYGb8CAAdL23LlzsX37drWPTUxMxIABA/Ds2TMIgoCGDRuiSpUqmg6JiIiIiIhIZ7LFbNyJugOgeEskAFoI8Hr37i3NuqWlpWHo0KEYNGgQzp8/r/KY6OhoLFu2DJ6enjh58qR0/w8//KDpcIiIiIiIiHTqSdwTJGUkwUjfCNXtqhdr3wbaOMmGDRvQtm1bvHz5EqIoYteuXdi1axfMzc1Rt25d2Nvbw8jICAkJCQgPD0dERAREUYQoihAEAQDwxRdfoGvXrtoYDhERERERkc7IlmfWsq8FAz2thFxq00pvVatWxalTpzB06FDcunULQE5hv8TERAQGBiq0FUURAKTATl9fH/PmzcO8efO0MRQiIiIiIiKdkpVIKO7lmYAWlmjK1KpVC0FBQfjtt99Qs2ZN6X7ZTJ3sJmNoaIhhw4YhKCiIwR0REREREZUZIVH/n2DFsXgTrABamsGTTmZggKlTp2Lq1Km4e/curly5grCwMMTGxiItLQ3W1tZwdHRE48aN8f7778PKykqb3RMREREREemcLmfwimxBqKenJzw9PYvq9ERERERERCVOVnYWQqNDARR/iQRAi0s0NWFmZgZ9fX0YGBTvBYhERERERETa9CjmEVIzU2FqYIoqNsVfAq5ERFTvXp9HRERERERUGt2OylmeWduxNvT19Iu9/xIxg0dERERERFQWyEok6CLBCsAAj4iIiIiISGtkM3i6SLACMMAjIiIiIiLSGs7gERERERERlQEZWRm4F30PAGfwiIiIiIiISrWwt2HIyM6AhZEFKltX1skYGOARERERERFpgWx5Zh3HOhAEQSdjYIBHRERERESkBVKCFUfdLM8EGOARERERERFphZRgxUk3CVYABnhERERERERaoesSCQADPCIiIiIiIo2lZabhwZsHAHRXIgEADNRtOG7cuCIbREZGRpGdm4iIiIiIqKjde3MPWWIWbExs4GrpqrNxqB3g+fv76ywTDBERERERUUl2+3XO8sy6jnV1GjepHeDJiKJYFOMgIiIiIiIqtaQEKzpcngkUIMBr164dZ/CIiIiIiIiUKAkJVoACBHhnzpwpwmEQERERERGVXiWhRALALJpEREREREQaSc5IxqOYRwB0P4PHAI+IiIiIiEgDoVGhECHCwcwBTuZOOh0LAzwiIiIiIiINyK6/03WCFaCMBnivX7/GgQMHMH/+fHTv3h0ODg4QBAGCIGDs2LFa68fPz086b343XsNIRERERFQ2yUok6Hp5JlCIMgmlgbOzs66HQERERERE5URIVMkokQCU0QBPXuXKleHp6Yljx44VaT/BwcF57q9SpUqR9k9ERERERLrBGbwiNn/+fDRr1gzNmjWDs7MzIiIiijzAqldP9/+ZRERERERUvBLSEvA47jEA3ZdIAMpogLdgwQJdD4GIiIiIiMqBO1F3AAAVLCrAztROx6Mpo0lWiIiIiIiIioOUQbMEzN4BDPCIiIiIiIgKLeR1yUmwAjDA0xpvb284OTnByMgITk5OaN++PRYtWoSYmBhdD42IiIiIiIqIbAavJCRYARjgac3x48cRFRWFjIwMREVF4ezZs5g1axaqVq2KvXv3qnWOtLQ0xMfHK9yIiIiIiKjk4gxeGVO/fn3MmzcP+/fvx7Vr13D58mWsX78e3t7eAIDY2FgMGDAAhw8fzvdcCxcuhLW1tXRzc3Mr6uETEREREVEhxaTE4EXCCwAl5xo8QRRFUdeDKGryZRLGjBkDf39/rZw3NjYWNjY2KvevXLkSEydOBAC4urri4cOHMDExUdk+LS0NaWlp0s/x8fFwc3NDXFwcrKystDJmIiIiIiLSjgtPLqDturZws3LDk8+eFGlf8fHxsLa2zjc24AyeBvIK7gDg448/xocffggAePHiBXbu3Jlne2NjY1hZWSnciIiIiIioZJIVOC8ps3cAA7wi9/HHH0vbZ8+e1eFIiIiIiIhIm6QEK44lI8EKoIVC5x07dtR4EEZGRrC2toaDgwPee+89tGrVCvXqlZxfkibq1KkjbT9//lyHIyEiIiIiIm2SEqyUoBk8jQO8M2fOQBAEbYxFQePGjTF//nz07t1b6+cuTkXxuyEiIiIiIt0raSUSAC0t0RRFUeGm6v539+fV5tq1a+jbty+mTJmijSHqzJ07d6RtV1dXHY6EiIiIiIi0JSopCq+TXgMAajvU1vFo/kfjGbx169YBABISEvDNN9/gzZs3EEURHh4e8PLyQu3atWFtbQ09PT3ExMTg7t27OHv2LMLDwwEAjo6OmDdvHgwNDfH69WsEBQXh6NGjyMjIgCiKWLFiBVxcXDB37lxNh6oTK1eulLa9vLx0OBIiIiIiItIW2exdVduqMDcy1/Fo/kfjAG/MmDGIiIhAly5d8ObNG9SoUQO///47unbtmudxx48fx7Rp03D37l38/vvvOHbsmFTK4Pnz5xg3bhyOHz8OURTxww8/4MMPP0SFChU0Ha7a/P394ePjAwDw9fWFn5+fwv7g4GCYmpqievXqKs+xatUqrF69GgDg4uKCfv36Fdl4iYiIiIio+EgZNEtIgXMZjQO89PR0DBgwAA8fPkTDhg1x6tSpfMsHAECXLl1w+fJleHl54datWxgwYAAuXboEY2NjVKxYEQcPHkTbtm1x5coVpKWlYd26dZg9e7ZaY7pw4QLCwsKkn6Ojo6XtsLCwXHXwxo4dq9Z55V27dg3jx49Hhw4d0L17d9SvXx/29vbIzMzE3bt3sWnTJhw7dgwAoK+vj1WrVsHcvORE9kREREREVHhSgpWyFuBt2bIFN27cgCAI+Pvvv9UK7mSsrKywevVqNGvWDLdu3cLmzZulWTMDAwMsXLhQytJ56tQptQO81atXY/369Ur3BQQEICAgQOG+wgR4AJCVlYUTJ07gxIkTKtvY29tjzZo1pT5ZDBERERER/U9JTLACaCHJyoYNGwAAVatWRZMmTQp8fJMmTVCtWjUAwMaNGxX2tW/fHjY2NhBFEffv39d0qFrVo0cPrFmzBuPHj0eTJk1QqVIlmJqawsTEBK6urujevTt+//13PHr0CB988IGuh0tERERERFoiimKJLJEAAIL4blrLAqpcuTKeP3+O9u3b4+TJk4U6R6dOnXD69GlUrFgRT58+VdjXsmVLXLlyBaampkhKStJkqKVOfHw8rK2tERcXBysrK10Ph4iIiIiIAEQmRML1V1foCXpImp0EEwOTIu9T3dhA4xm8qKgoAEBcXFyhzyE7Vv5aORlLS0sAQGZmZqHPT0REREREpC2y2bvqdtWLJbgrCI0DPAcHB4iiiODgYLx9+7bAx7958wb//fcfBEGAvb19rv2JiYkAAAsLC02HSkREREREpDHZ9XclLcEKoIUAr3HjxgByZthmzZpV4OPnzJkjzc7JziXv4cOHEAQBlSpV0mygREREREREWiArkVDSEqwAWgjwRo4cKW2vXr0aU6dORUpKSr7HpaamYvr06Vi1apV036hRoxTaPHz4UFoCWq9eyfvlERERERFR+RMSVTJLJABaKJMwaNAgrFixAmfOnIEgCFi2bBl27tyJkSNHokOHDvD09JRKJ8TFxeHu3bs4ffo0Nm7ciMjISACAIAjw8vLCoEGDFM69a9cuadvLy0vToRIREREREWlEFMUSPYOncRZNIOc6ui5duuDmzZsQBAGiKEIQhDyPkbURRRENGjTAyZMnc12D17p1azx69Ah6enq4efMmHB0dNR1qqcIsmkREREREJcuTuCdw/80dBnoGSJqdBCN9o2Lpt9iyaAI5xbzPnTuHiRMnSvfJ4kZRFBVu8vsAYMKECTh//rzSBCsBAQGIjIzE8+fPy11wR0REREREJY9s9q6Wfa1iC+4KQisBHpCT5XL58uUIDQ3FjBkzUKdOHZWzeJ6envj8889x+/Zt/PXXX1IpBCIiIiIiopJMyqBZwgqcy2h8Dd67atasiR9//BE//vgjkpKS8OzZM8TGxgIArK2tUalSJZY8ICIiIiKiUklWA68kJlgBiiDAk2dubo5atWoVZRdERERERETFRjaDVxITrABaXKJJRERERERUlmWL2bgTdQdAyZ3BY4BHRERERESkhojYCCRnJMNY3xjV7KrpejhKMcAjIiIiIiJSg+z6O08HTxjoFenVboWm1VElJiZix44dCAgIwN27dxEbG4vk5GSoW2pPEAQ8fPhQm0MiIiIiIiLSClmJhJKaQRPQYoD366+/ws/PD0lJSYU6Xp3i6ERERERERLoiJVhxLJkJVgAtBXjTpk3D0qVL1Z6pIyIiIiIiKm2kEglleQbv9OnT+PPPP6XZNzMzMwwcOBBt2rRBxYoVYWZmpvEgiYiIiIiIdCkzOxN3o+8CKLklEgAtBHirVq2Sths0aIADBw6gUqVKmp6WiIiIiIioxHj49iHSstJgZmgGDxsPXQ9HJY2zaAYEBADISZDy77//MrgjIiIiIqIyR3b9XR3HOtATSm4xAo1HFhUVBUEQULduXdSsWVMbYyIiIiIiIipRpAyaJbTAuYzGAZ61tTUAwNHRUePBEBERERERlUQhUf+fYKWsB3jVqlWDKIqIiorSxniIiIiIiIhKHNkMXklOsAJoIcAbMmQIAOD27dt49eqVxgMiIiIiIiIqSdKz0nHvzT0AJbtEAqCFAM/Hxwfu7u4QRRHz58/XxpiIiIiIiIhKjAdvHiAzOxOWRpZws3LT9XDypHGAZ2lpie3bt8Pc3ByrV6/G3LlzkZ2drY2xERERERER6Zx8gXNZ/e+SSuM6eE+ePIGTkxO2bduG0aNHY+HChdi5cyfGjRuHli1bwsXFBUZGRmqfr3LlypoOiYiIiIiISGtkJRJKeoIVQAsBnoeHh0IUK4oi7t27h6+//rrA5xIEAZmZmZoOiYiIiIiISGtkAV5JT7ACaCHAkxFFEYIg5JqyFEUx32MFQVCrHRERERERUXGTlmiWhxk84H9BXGGDNAZ3RERERERUEqVmpiLsbRiAcjKDx4QqRERERERUVt2NvotsMRu2JrZwsXDR9XDypXEWTSIiIiIiorJKvsB5Sc+gCTDAIyIiIiIiUqk0ZdAEGOARERERERGpJF8DrzRggEdERERERKRCaSqRADDAIyIiIiIiUiopPQmPYh4BKD1LNNXKojlu3DhpWxAErFmzRuk+Tb17biIiIiIiIl0JjQ4FADiZO8HR3FHHo1GPIKpRhE5PT08hY0xWVpbKfZqSP3d5Fx8fD2tra8TFxcHKykrXwyEiIiIiKlf8b/rDZ68POnh0wKkxp3Q6FnVjA7Xr4MniQGXBnLYKlZeGtKNERERERFQ+yEoklJblmYCaAZ6vr2+h9hEREREREZVWpS3BCqDmEk3SDS7RJCIiIiLSncpLKuNp/FOc9zmPNpXb6HQs6sYGzKJJRERERET0jvi0eDyNfwqgdC3RZIBHRERERET0Dtn1d66WrrA1tdXxaNTHAI+IiIiIiOgdpfH6O4ABHhERERERUS6lMYMmUIAyCQWRnZ2N8PBwxMbGIjk5uUBlFNq1a6dx/69fv0ZgYCACAwMRFBSEoKAgvHnzBgAwZswY+Pv7a9zHu7Zs2YJ169bhv//+Q2xsLJydndG2bVtMnjwZLVu21Hp/RERERERUdEKiQgCU4wAvOzsb69evx/r16xEYGIi0tLQCn0MQBGRmZmo8FmdnZ43Poa6UlBQMHDgQhw4dUrj/yZMn2LRpE7Zs2YL58+eznAQRERERUSkim8Erl0s0X7x4gaZNm2L8+PE4f/48UlNTIYpioW7aVrlyZXh7e2v9vDLjxo2TgrsOHTpgz549CAwMxJo1a1CtWjVkZ2fDz88Pq1atKrIxEBERERGR9rxNeYvIxEgAQB3HOjoeTcFoPIOXnp6OTp064d69ewr36+npwd7eHmZmZpp2UWDz589Hs2bN0KxZMzg7OyMiIgJVqlTRej+nTp3C1q1bAQC9e/fG7t27oa+vDwBo1qwZ+vTpgyZNmuDJkyeYOXMmBg0aBFvb0pOBh4iIiIioPJLN3rlbu8PS2FLHoykYjQO8FStW4N69exAEAaIoonfv3vjss8/QsmVLGBsba2OMBbZgwYJi6efnn38GABgYGGD58uVScCfj4OCAxYsXY9iwYYiNjcXq1avx5ZdfFsvYiIiIiIiocEJe///1d06l6/o7QAtLNHfu3CltT58+HXv37kX79u11FtwVl4SEBJw8eRIA0LlzZ1SqVElpu/79+0uV5nfv3l1s4yMiIiIiosKRSiQ4lq7r7wAtBHihoaEAAHNzcyxcuFDjAZUWQUFBSE9PBwB4eXmpbGdkZIQWLVpIx2RkZBTL+IiIiIiIqHBkAV65nMFLTEyEIAh47733yvysnbw7d+5I256ennm2le3PzMzEgwcPinRcRERERESkGWmJZikrkQBoIcBzdXUFgFzXn5V1z549k7ZVLc+UcXNzk7afPn2qsl1aWhri4+MVbkREREREVHxeJ71GdHI0BAio7Vhb18MpMI0DvCZNmkAURYSFhWljPKVGQkKCtG1hYZFnW3Nzc2k7MTFRZbuFCxfC2tpauskHhkREREREVPRks3dVbavCzLD4KwJoSuMAb/z48QCAyMhInD9/XuMBlRapqanStpGRUZ5t5ZeupqSkqGw3a9YsxMXFSbe8ZvuIiIiIiEj7SmuBcxmNAzxvb28MGTIEoihi8uTJ5WZZoYmJibQtS7aiSlpamrRtamqqsp2xsTGsrKwUbkREREREVHykBCul8Po7QAsBHgCsXr0a3t7eCAkJQevWrXHx4kVtnLZEs7T8X8HDvJZdAkBSUpK0nd9yTiIiIiIi0p3SXAMP0EKh82+++QYA8P777+PatWu4ffs22rZtC09PT7Rs2RIuLi75LmGUN3/+fE2HVCzkE6s8e/YMTZs2VdlWfqklr6sjIiIiIiqZRFH8Xw28UrpEU+MAz8/PD4IgSD8LggBRFHH37l3cvXu3wOcrLQFenTp1pO38Hqdsv4GBAWrUqFGk4yIiIiIiosJ5kfACsamx0Bf0Ucu+lq6HUyhaWaIpiqLCTdl96txKk2bNmkkzk2fPnlXZLj09HZcvX5aOMTQ0LJbxERERERFRwchm72rY14CxQems8a3xDN6YMWO0MY5Sx9LSEp06dcLhw4dx4sQJPHv2TGk9vF27dkmJZ/r161fcwyQiIiIiIjWV5gLnMhoHeOvWrdPGOEocf39/+Pj4AAB8fX3h5+eXq82MGTNw+PBhZGZmYvLkydi1a5dCwffo6GjMnDkTAGBjYyOVlCAiIiIiopKntJdIALQQ4JVEFy5cUCi8Hh0dLW2HhYXB399fof3YsWML1U/Hjh0xdOhQbN26Ffv27UOXLl0wffp0uLq6Ijg4GN9//z2ePHkCAFi8eDFsbW0L1Q8RERERERW90l4iASijAd7q1auxfv16pfsCAgIQEBCgcF9hAzwAWLt2LeLj43Ho0CGcPn0ap0+fVtivp6eHefPmYcKECYXug4iIiIiIipZ8Bs3SWiIB0FKSlfLM1NQUBw8exKZNm9ClSxc4OTnByMgIbm5uGD58OC5cuKB0eScREREREZUcT+KeIDE9EYZ6hqhhV3oz3wtiaUtfWY7Ex8fD2toacXFxsLKy0vVwiIiIiIjKrIP3D6LXll6o51QPwZ8E63o4uagbG3AGj4iIiIiIyr3SXuBcRq1r8OQzQwqCgMzMTKX7NPXuuYmIiIiIiIpDWUiwAqgZ4ImiCEEQlBYjz2sfERERERFRaVAWauABBViimVcAx+COiIiIiIhKq6zsLIRGhQIoJ0s0w8PDC7WPiIiIiIiopAuPDUdKZgpMDExQ1baqroejEbUCPHd390LtIyIiIiIiKuluv865/q62Q23o62kvx4guMIsmERERERGVa9L1d6W4wLkMAzwiIiIiIirXpBIJjqX7+juAAR4REREREZVzUokEzuARERERERGVXpnZmbgbfRdA6S+RAKiZZKWgXr16hcDAQDx//hxxcXFIS0tT+9j58+cXxZCIiIiIiIhyCXsbhvSsdJgbmsPdpvQnkNRqgLdt2zb8+uuvuHr1aqHPwQCPiIiIiIiKiyzBSh3HOtATSv8CR60EeJmZmRg5ciS2b98OIP/C54IgKG0nu5+IiIiIiKg4yEoklPYC5zJaCfCmTZuGf//9V/q5cuXKeP/993Hx4kW8ePECgiBg9OjRSEhIwPPnz3Hz5k2kpaVJAV2PHj3g4OCgjaEQERERERGpTUqwUgauvwO0EODduXMHf/31FwBAT08Pv/76K6ZOnQoA6N69O168eAEAWLdunXRMamoqtmzZgvnz50sB37///ouWLVtqOhwiIiIiIiK1laUaeIAWsmiuW7cOoihCEAR89tlnUnCXFxMTE/j4+CA4OBgtWrTA8+fP0atXLzx58kTT4RAREREREaklLTMND94+AFB2lmhqHOCdO3cOQM71c1988UWBjrWxscHevXthZ2eH2NhYfPLJJ5oOh4iIiIiISC3339xHZnYmrIytUNGyoq6HoxUaB3iPHz+GIAioUaMGXFxcFPbJJ03JyMhQeryjoyM++ugjiKKIY8eOITIyUtMhERERERER5Ut2/V09p3plJuGjxgFeTEwMAMDV1TXXPmNjY2k7MTFR5TnatGkDAMjOzsbFixc1HRIREREREVG+pOvvykiCFUALAZ6RkREA5aURrKyspO3nz5+rPIe1tbVa7YiIiIiIiLRFfgavrNA4wHN2dgbwv5k8eR4eHtL29evXVZ7j6dOn0nZKSoqmQyIiIiIiIsqXrAYeZ/Dk1KlTB6Io4sGDB7lm8Ro3bixtb9u2TeU5Nm3aJG1XqFBB0yERERERERHlKSUjBWFvwwCUnRIJgBYCvNatWwPImXm7efOmwj5vb29YWloCAI4cOYIlS5Yo7BdFEd9++y0OHTok3deuXTtNh0RERERERJSnu9F3IUKEvak9nM2ddT0crdE4wPP29pa29+zZo7DP1NQUkydPlmb2ZsyYgerVq2PIkCEYMmQIqlSpAj8/PwA5GTd79+6tsKyTiIiIiIioKMgXOC8rGTQBLQR4jRo1QvXq1SGKIlavXo3MzEyF/fPnz0fz5s2lIC88PBw7duzAjh07FK69c3Nzw8qVKzUdDhERERERUb6kBCuOZSfBCqCFAA8Arly5gqdPnyIwMDBX9GtiYoLjx49jwoQJ0NPTgyiKuW59+vTB5cuXpYQtRERERERERUl+Bq8sMdDGSWxtbWFra6tyv4WFBf766y/88MMPOHXqFJ48eYKMjAxUqFAB7dq147JMIiIiIiIqVrIZvLKUQRPQUoCnLjs7OwwcOLA4uyQiIiIiIlKQmJ6IiNgIAJzBy+XcuXPS9nvvvadQtJyIiIiIiKikuRN1BwDgbO4MBzMHHY9GuzQO8Nq3bw9BEGBiYoIXL15oY0xERERERERFRlbgvJ5T2UqwAmghyYqRkRFEUYSnpydn74iIiIiIqMSTEqyUsevvAC0EeC4uLhAEATY2NloYDhERERERUdGSSiRwBi+3GjVqQBRFPHv2TBvjISIiIiIiKlJSBs0ylmAF0EKAN2jQIABAWFgYHjx4oPGAiIiIiIiIikpsaiyexedMTtVxrKPj0WifxgHe8OHDpTp2U6dORXZ2tqanJCIiIiIiKhKyDJqVrCrBxsRGt4MpAhoHeBYWFti2bRssLS1x7NgxfPDBB4iMjNTG2IiIiIiIiLSqLCdYAQpQJkFW787Ozg716tXLdf8vv/yCzz//HIcOHULVqlXRs2dPtGnTBtWqVYOlpSX09NSLJdu1a1eQ8RMREREREamtLJdIAAoQ4Mnq3XXt2hWHDh3Kdb+MKIpIS0vD7t27sXv37gINRhAEZGZmFugYIiIiIiIidYVEcQZPLaIoQhCEXMEeERERERFRSSGbwSuLGTQBLQR4lStXVgjqiIiIiIiISqLo5Gi8SnoFoGxm0AS0EOBFRERoYRhERERERERFSzZ752HjAQsjCx2PpmhonEWTiIiIiIioNJAVOC+rCVYABnhERERERFROlPUSCQADPCIiIiIiKic4g1cGPH78GF988QU8PT1hbm4OOzs7NGvWDD/99BOSk5M1Ore/v7+UOTS/m7+/v3YeEBERERERFZgoiv/LoFmGZ/AKnGTl+fPn+Oeff4piLACA0aNHa+1c+/fvx8iRIxEfHy/dl5ycjKtXr+Lq1atYvXo1Dh48iOrVq2utTyIiIiIiKnleJb3Cm5Q30BP04OngqevhFJkCB3ghISHw8fEpirEA0F6Ad+PGDQwZMgQpKSmwsLDArFmz0KFDB6SkpGDr1q34+++/cf/+ffTs2RNXr16FpaWlRv0dPXoUrq6uKvdXqlRJo/MTEREREVHhyWbvqtlWg6mhqY5HU3S0VuhcU7JC6doybdo0pKSkwMDAAMeOHUPLli2lfR07dkSNGjXw1Vdf4f79+/jll1/g5+enUX81a9aEh4eHZoMmIiIiIqIiISVYKaMFzmUKfA2eKIpFctOmwMBAnD9/HgDw4YcfKgR3Ml988QVq164NAPj999+RkZGh1TEQEREREVHJISVYcSy7CVaAQszgeXl5lfiEIXv27JG2VS0n1dPTw+jRozFr1izExsbi9OnT8Pb2LqYREhERERFRcSovM3gFDvBMTU3h7u5eFGPRmgsXLgAAzM3N0aRJE5XtvLy8pO2AgAAGeEREREREZZAoitIMXlnOoAmU0TIJoaGhAIDq1avDwEB1DOvp+b/sObJjCsvHxweurq4wMjKCg4MDWrRogblz5+L58+canZeIiIiIiDTzPOE54tPiYaBngFoOtXQ9nCJV5gK81NRUREdHA8g/c6WtrS3Mzc0BAE+fPtWo3zNnziAyMhIZGRl48+YNrly5gu+//x7Vq1fHypUrNTo3EREREREVnmx5Zg27GjDSN9LxaIpWicmiqS0JCQnStoWFRb7tzc3NkZSUhMTExEL1V7VqVfTv3x8tW7aEm5sbAODRo0fYuXMnduzYgdTUVEycOBGCIGDChAl5nistLQ1paWnSz/L1+4iIiIiIqHBkJRLqOZXtBCtAGQzwUlNTpW0jo/yjc2NjYwBASkpKgfvq168fxowZk6u8Q7NmzTBkyBAcOHAA/fv3R0ZGBj777DP06dMHLi4uKs+3cOFCLFiwoMDjICIiIiIi1UKi/j/BShm//g4og0s0TUxMpO309PR828tmzExNC17s0NraOs/afb169cL8+fMBAMnJyVizZk2e55s1axbi4uKkm6bLRomIiIiIqHzN4JW5AM/S0lLaVmfZZVJSEgD1lnMWxoQJE6Qg8OzZs3m2NTY2hpWVlcKNiIiIiIgKL1vMxp2oOwDKfokEoIABnrYLkhcFExMT2NvbAwCePXuWZ9uYmBgpwJNdP6dtTk5O0niYUZOIiIiIqHg9jn2MpIwkGOkbobpddV0Pp8ipfQ1eeHg4gMItZSxuderUwfnz5xEWFobMzEyVpRLu3r0rbdeuXbvIxpPXMk4iIiIiIio6svp3ng6eMNArcylIclF7Bs/d3R3u7u5wcnIqyvFoRZs2bQDkLL+8du2aynbySyZbt25dJGOJioqSyja4uroWSR9ERERERKScrERCeUiwApTBa/AAoG/fvtL2unXrlLbJzs7GP//8AwCwsbFBhw4dimQsq1atkpa2enl5FUkfRERERESknGwGrzwkWAHKaID3/vvvo23btgCANWvW4NKlS7na/PLLLwgNDQUATJs2DYaGhgr7z5w5A0EQIAgCxo4dm+v4iIgI3LhxI89xHDhwAN988w2AnKWtPj4+hXk4RERERERUSOVtBq/MLkL9/fff0bp1a6SkpMDb2xuzZ89Ghw4dkJKSgq1bt2LVqlUAgJo1a+KLL74o8PkjIiLQoUMH/F97dx4XZbX/AfwzMOyrgqgooqDghkZqyQ/3FPOCmVmauaBidnNJzOvuVSvXbqZtt0zHrTI1Mc20UhN3SLFxQcEVTDFUYpV9mOf3B/HcGRlmkeWB4fN+vXhxZp4zz/kOjyPz5Zz5nqCgIAwePBidO3cWl6/eunULu3btwq5du8TZuw8++ADNmjWruidIRERERER6lahLkJhWWnejPlTQBMw4wQsMDMSOHTswevRoZGdnY/78+eX6+Pn5Yf/+/VpbK5gqJiZG5wxhGXt7e6xZswaTJk164jGIiIiIiMh0tzJuoUBVADu5HVq5tpI6nBphtgkeAAwePBgXL17ERx99hP379+Pu3buwtrZG69at8corr2Dq1Kmwt7d/onN36dIFX3/9NWJiYhAXF4c///wTaWlpUKlUaNCgATp06IDnnnsOEydOrBOFaYiIiIiIzE3Z8sx2jdrB0sJS4mhqhkyoC5vb1VPZ2dlwcXFBVlYWNz0nIiIiIjLR0uNL8e/of2Ns57HY8uIWqcOpFGNzA7MsskJERERERFTfCqwATPCIiIiIiMhM1bctEgAmeEREREREZIaKS4pxNe0qAM7gERERERER1WnX06+jWF0MR2tHtHBpIXU4NYYJHhERERERmZ3LD0qXZ3Zo1AEymUziaGoOEzwiIiIiIjI79bHACsAEj4iIiIiIzFB9LLACMMEjIiIiIiIzJM7geXAGj4iIiIiIqM4qVBXiRvoNAFyiSUREREREVKdd/esqSoQSuNq6wtPJU+pwahQTPCIiIiIiMiuaBVbqUwVNgAkeERERERGZmbItEupbgRWACR4REREREZmZ+If1c4sEgAkeERERERGZGc7gERERERERmYG84jzcyrgFoP5tkQAwwSMiIiIiIjOS8DABAgS427vDw8FD6nBqHBM8IiIiIiIyG5cf1t/lmQATPCIiIiIiMiOaWyTUR0zwiIiIiIjIbHAGj4iIiIiIyExwBo+IiIiIiMgM5BTm4I+sPwDUzwqaABM8IiIiIiIyE1ceXgEANHVsioZ2DSWORhpM8IiIiIiIyCyIyzPr6ewdwASPiIiIiIjMhFhgpVH9LLACMMEjIiIiIiIzwRk8JnhERERERGQm6vsWCQATPCIiIiIiMgMZ+Rm4l3MPANC+UXuJo5EOEzwiIiIiIqrzymbvvJy94GzjLHE00mGCR0REREREdd7lB1yeCQByqQMgIiIiIqL6TS2oUVRSVOFXoapQ7/GikiJEJUQBADo0qr8FVgAmeERERERE9UZuUS7u596vdDJV7ktdufOUCCVV9hwDGgdU2bnqIiZ4RERERERmTC2ocSz5GBRKBaISolCgKpA6JIPkFnJYW1qb/NXMqRlebv+y1OFLigkeEREREZEZSslOwebzm7Hx/Ebcyrgl3m8nt4Ot3NakxMlGblPatjAt4RIfZ8KXlYUVLC0sJfzJ1W1M8IiIiIiIzERxSTF+vPYjNig34OcbP0MtqAEATtZOeLXjq4gIjMAzzZ6BTCaTOFKqLkzwiIiIiIjquMS0RCh+V2Drxa14kPtAvL9Hix6ICIzAK+1fgYO1g4QRUk1hgkdEREREVAc9KnqEnZd3QqFU4PSd0+L9jR0aI7xzOCYEToC/u7+EEZIUmOAREREREdURgiAg9m4sFEoFdlzegUdFjwAAljJL/KPNPxARGIF/tPkHrCytJI6UpMIEj4iIiIiolnuQ+wBfXfgKCqUCCWkJ4v1tGrbBhMAJCO8cjqZOTSWMkGoLJnhERERERLVQiboEv9z8BQqlAj9c/QEqtQpAaRXMVzq8gojACPRs0ZMFU0gLEzwiIiIiolrkVsYtbFRuxObzm5GSkyLe382zGyICI/Bqx1fhYusiYYRUmzHBIyIiIiKSWH5xPr5P/B4bft+A6ORo8f6Gdg0xptMYRARGIKBxgIQRUl3BBI+IiIiISCLKP5VQKBX45tI3yCzIBADIIMMA3wGICIzAEP8hsJHbSBsk1SlM8IiIiIiIalBGfga2XdoGhVIBZapSvN/bxRvjnxqPcU+Ng7ert4QRUl3GBI+IiIiIqJqpBTWOJh+FQqlA1JUoFJYUAgCsLa0xtO1QRARG4Dmf52Ahs5A4UqrrmOAREREREVWTu9l3sfn8Zmw6vwm3Mm6J9wd4BGDi0xMxKmAU3OzdJIyQzI1ZJ3i3b9/Gxx9/jP379+POnTuwsbGBr68vhg8fjilTpsDe3r5Kxvnpp5/w5Zdf4uzZs3j48CEaNWqEbt26YdKkSRg0aFCVjEFEREREdUNRSRH2Xd0HhVKBX27+ArWgBgA42zhjZMeRiAiMQFfPrtzegKqFTBAEQeogqsO+ffswevRoZGdn6zzu5+eH/fv3o3Xr1k88hlqtxqRJk6BQKCrsM3HiRKxbtw4WFqZPt2dnZ8PFxQVZWVlwdnZ+4jiJiIiIqPpdeXgFit8V+OriV3iY91C8v5d3L0QERuDl9i/D3qpqJhio/jE2NzDLGTylUokRI0YgPz8fjo6OmDdvHvr27Yv8/Hxs374d69evx7Vr1xAaGoq4uDg4OTk90TgLFiwQk7vAwEDMnj0bvr6+uHnzJt5//30olUps2LABjRo1wvLly6vyKRIRERFRLZBTmIMdl3dAoVQg9m6seH9Tx6YI7xyOCYET0MatjYQRUn1jljN4vXr1wokTJyCXy3H8+HEEBQVpHf/Pf/6D2bNnAwAWL16MJUuWmDzGtWvX0KFDB6hUKnTt2hXHjx+HnZ2deDwvLw+9e/dGXFwc5HI5EhISTJ4t5AweERERUe0jCAJi7sZA8bsCOy7vQG5xLgDAUmaJML8wRARGYFCbQZBbmOVcCknE2NzA7BK8M2fO4NlnnwUAvPHGG/jiiy/K9VGr1ejYsSMSEhLg6uqKBw8ewMrKyqRxJk+ejM8//xwAEBMTg+7du5frExsbKyaXkydPxmeffWbSGEzwiIiIiGqPB7kPsPXCViiUCiSmJYr3+7n5ISIwAmM7j0UTxyYSRkjmzNjcwOzqsO7Zs0dsjx8/XmcfCwsLjB07FgCQmZmJ6Ohok8YQBAF79+4FALRt21ZncgcA3bt3h7+/PwBg7969MLNcmoiIiMjsqdQq7L+2Hy/teAnNPmyGWYdmITEtEfZW9hj31DicGH8CiVMSMTt4NpM7qhXMbt745MmTAAAHBwd06dKlwn69e/cW26dOnUJISIjRYyQlJeHevXvlzlPROFevXkVKSgqSk5PRqlUro8chIiIiImncTL+JjcqN2HxhM+7l3BPvf7bZs4gIjMCIjiPgbMMVVlT7mF2Cl5CQAABo3bo15PKKn17btm3LPcZYV65c0XkeY8Z5ogRPlQuoLE1/HBEREVEFBEGAAEHnd7WgrvCYZp8SoQQl6tLv/7td8tj3x+7/u13aX12+v57HqjX763qs1ne14ZgeO1YW08O8NJzWKJjibu+GMR1HIuKpsejQqP3/foiqXAmuHNVbRv57M6sEr6CgAGlpaQCA5s2b6+3boEEDODg4IDc3F3fu3DFpnLt374ptQ+N4eXmJbUPjFBYWorCwULxdtsVD0EeesLQ1KUQiIqI6oao+vFCVH4KoypgE4e/vur4eO6Y28TFqPed6/DHqx+4jw2QABtoDEc7AC45/wTrjUyD6U6nDovosz7huZpXg5eTkiG1HR0eD/csSvEePHlXbOA4ODmLb0DgrVqzAO++8U+7+K0Uww09LEhERkTmwAGAJwFL2d1v2923N9uPfH7vPwsT+lnhsrKp63N9taxnQzw7wMq0GH1GtYFYJXkFBgdi2trY22N/GxgYAkJ+fX23jlI1hzDjz5s3D22+/Ld7Ozs6Gl5cX9gzfAQdH89wUUyZ1AEREJDmZrGZ/G8hq8LePTCaDDLIKv1vILPQe/18/w31kMj3nq8pzacRuIbOo8etHVG9lZwOvexrsZlYJnq3t/9YxFhUVGexfthxSc/+6qh5Hc8mloXFsbGy0EsIyfX2f5zYJRERERET1mbzEqG5mtfDPyclJbBuz7DI3t/SDisYs53zSccrGeJJxiIiIiIiITGFWCZ6trS3c3NwAaBdC0SUjI0NMvjQLoRhDs7CKoXE0C6uYOg4REREREZEpzCrBA4D27UtL1964cQMqlarCfomJiWK7Xbt2TzTG4+ep6nGIiIiIiIhMYXYJXo8ePQCULo08d+5chf2OHTsmtoODg00ao1WrVvD09Cx3Hl2OHz8OAGjWrBlatmxp0jhERERERESmMLsE78UXXxTbmzZt0tlHrVZj69atAABXV1f07dvXpDFkMhmGDBkCoHSGLjY2Vme/2NhYcQZvyJAhrDJFRERERETVyuwSvGeeeQY9e/YEACgUCsTExJTrs3r1aiQkJAAApk+fDisr7U1Ojh49WloCWCbDuHHjdI4TGRkJS0tLAMC0adPKbYGQn5+PadOmAQDkcjkiIyMr87SIiIiIiIgMMrsEDwA++ugj2NnZQaVSISQkBCtWrEBsbCyio6PxxhtvYPbs2QAAPz8/zJw584nG8PPzw6xZswAAcXFxCA4Oxo4dOxAXF4cdO3YgODgYcXFxAIBZs2ahTZs2VfPkiIiIiIiIKmBW++CVCQwMxI4dOzB69GhkZ2dj/vz55fr4+flh//79WlsemGrZsmV48OABNm7cCKVSiVdffbVcn4iICCxduvSJxyAiIiIiIjKWWc7gAcDgwYNx8eJFzJgxA35+frC3t4erqyu6du2KVatWQalUonXr1pUaw8LCAgqFAvv378eQIUPg6ekJa2treHp6YsiQIThw4AA2bNgACwuz/TETEREREVEtIhMEQZA6CNItOzsbLi4uyMrKgrOzs9ThEBERERGRRIzNDTi1REREREREZCaY4BEREREREZkJJnhERERERERmggkeERERERGRmTDLbRLMRVn9m+zsbIkjISIiIiIiKZXlBIZqZDLBq8VycnIAAF5eXhJHQkREREREtUFOTg5cXFwqPM5tEmoxtVqNe/fuwcnJCTKZTOpwqlR2dja8vLxw584dbgFRx/Da1U28bnUXr13dxWtXd/Ha1U3mft0EQUBOTg48PT317rPNGbxazMLCAs2bN5c6jGrl7Oxsli/A+oDXrm7idau7eO3qLl67uovXrm4y5+umb+auDIusEBERERERmQkmeERERERERGaCCR5JwsbGBosXL4aNjY3UoZCJeO3qJl63uovXru7itau7eO3qJl63UiyyQkREREREZCY4g0dERERERGQmmOARERERERGZCSZ4REREREREZoIJHhERERERkZlggkfVLi4uDu+++y5CQkLQvHlz2NjYwNHREX5+fhg/fjxOnjwpdYhkojlz5kAmk4lfR48elTokMuCPP/7A4sWL0bVrVzRq1Ai2trbw8vJCz549sWjRIsTHx0sdImkoKirChg0bMHDgQDRt2lT8f9Pf3x/jx4/H6dOnpQ6xXnnw4AF+/PFHLFq0CIMGDYK7u7v4/9+4ceNMPt9PP/2EoUOHir8TmzdvjqFDh+Knn36q+uDruaq4dnl5edi9ezfefPNNdOvWDQ0aNICVlRXc3NwQFBSEJUuWIDU1tXqfSD1U1a87TXl5efDx8RHP17JlyyqJudYQiKpRz549BQAGv8aOHSsUFhZKHS4ZQalUCnK5XOv6RUdHSx0W6fHxxx8LDg4Oel+D06dPlzpM+ltycrLQoUMHg/9vTps2TVCr1VKHWy/ouw7h4eFGn6ekpESIiIjQe76JEycKJSUl1fdk6pnKXrsLFy4Ijo6OBl+Pzs7Owvbt26v/CdUjVfW602XmzJla5/P29q6SmGsLeWUTRCJ97t27BwDw9PTEK6+8gp49e6JFixYoKSlBTEwMVq9ejZSUFGzduhXFxcXYtm2bxBGTPmq1GpMmTYJKpYKHhwcePHggdUhkwNKlS/Hvf/8bAODn54fXX38d3bp1g4uLC/766y8olUp8//33sLDggo7aoLi4GKGhobh8+TIAoFOnTnj77bfh7++PnJwcnDx5EqtXr0Zubi4++eQTeHp6Yu7cuRJHXb+0aNECbdu2xcGDB01+7IIFC6BQKAAAgYGBmD17Nnx9fXHz5k28//77UCqV2LBhAxo1aoTly5dXdej13pNcu+zsbDx69AgAEBwcjLCwMHTt2hVubm54+PAhdu/ejfXr1yM7OxujRo2Cs7MzBg0aVF1Pod6qzOvucUqlEmvXroWtrS2srKyQk5NTBRHWMlJnmGTeQkNDhR07dggqlUrn8YcPHwp+fn7iX1COHTtWwxGSKdasWSMAENq2bSvMmzePM3i13OHDh7VmyYuKiirsyxn02uG7774Tr1lQUJDO/zvj4uIEKysrAYDg6uoqFBcXSxBp/bJo0SJh3759QmpqqiAIgpCUlGTyTMLVq1fF1Q9du3YV8vLytI7n5uYKXbt2FQAIcrlcuH79elU/jXqpstfu1KlTwvDhw4XLly9X2GfPnj2CTCYTAAi+vr6cWa8iVfG6e5xKpRK6dOkiABDeffddwdvb2yxn8JjgkeT27dunteSIaqfbt2+Ly1SOHj0qLF68mAleLVZSUiK0adNGACB07tyZSUAdMWPGDPF19cMPP1TYb+jQoWK/ixcv1mCEJAhP9kbzzTffFB8TExOjs09MTIzYZ/LkyVUYMZWpiiRBl2HDhonnPXfuXJWdl/6nKq7d6tWrBQCCv7+/UFhYaLYJHtfkkOT69u0rtm/evClhJKTPlClT8OjRI4SHh6N3795Sh0MGHDx4ENevXwdQWhRHLueK/LqgqKhIbPv4+FTYz9fXV+djqHYSBAF79+4FALRt2xbdu3fX2a979+7w9/cHAOzduxeCINRYjFQ5fC9T+92+fRuLFi0CAHzxxRewtraWOKLqwwSPJFdYWCi2LS0tJYyEKrJz5078+OOPaNiwIT744AOpwyEjfPfddwAAmUyGsLAw8f709HRcv34d6enpUoVGepS9uQeAW7duVdiv7A2kTCZDmzZtqj0uqpykpCTxM+mG/kBWdjwlJQXJycnVHRpVEb6Xqf0mT56M3NxcjBkzBn369JE6nGrFBI8kd+zYMbHdrl07CSMhXTIzMzF9+nQAwKpVq+Du7i5xRGSM2NhYAEDLli3h5OSEbdu2ISAgAG5ubvDz84Obmxv8/f3xwQcfaL0xIWmNHDkSzs7OAEpfbyUlJeX6KJVK7N+/HwDw2muvif2p9rpy5YrYbtu2rd6+mscTEhKqLSaqWnwvU7tt374dBw4cQIMGDbB69Wqpw6l2TPBIUmq1GitXrhRvDx8+XMJoSJfZs2cjNTUVwcHBiIiIkDocMoJarUZiYiIAwN3dHdOnT8eoUaPK7XV37do1zJo1C/369UNmZqYEkdLj3N3d8dVXX8He3h6nTp1Ct27dsHXrVsTGxuLw4cN455130Lt3bxQVFeHpp5+uF29UzMHdu3fFdvPmzfX29fLyEtt37typtpio6ly4cEH8o0tAQAATvFomIyMDkZGRAICVK1eiUaNG0gZUA5jgkaTWrFmDM2fOAABeeukldOnSReKISNOJEyewYcMGyOVyfPHFF5DJZFKHREbIysqCWq0GAFy6dAkff/wxmjZtiq+//hrp6enIy8vDsWPHxM8BnT59GhMmTJAyZNLwwgsv4Ny5c5g4cSLOnz+P8PBwBAUFYcCAAViyZAns7e2xdu1anDhxAo0bN5Y6XDKCZhl2R0dHvX0dHBzEdll5fqq9CgsLMXHiRHG2fdmyZRJHRI+bNWsW7t+/j6CgILz++utSh1MjmOCRZI4dOybu3+Th4YHPP/9c4ohIU1FRESZNmgRBEDBjxgx07NhR6pDISLm5uWK7oKAA9vb2iI6OxqhRo9CgQQPY2dmhV69eOHLkCDp37gwA+P777/Hbb79JFTJpKCoqwtatWysssnH//n18/fXXOHz4sATR0ZMoKCgQ24YKO9jY2Ijt/Pz8aouJqsbUqVMRFxcHAAgPD8fgwYMljog0HT9+HBs3bqx3f6hmgkeSuHz5MoYOHQqVSgVbW1t899138PDwkDos0rB8+XIkJiaiRYsWWLx4sdThkAlsbW21bk+cOFGreEcZOzs7rb8279ixo9pjI/1yc3PRv39/rFixAunp6Zg9ezYSEhJQWFiIrKwsHDx4ED169EBcXBxefPFFfPjhh1KHTEbQfE0aqnqq+ZlYOzu7aouJKm/FihXYsGEDAKBbt2747LPPJI6INBUWFop/qJ4+fTo6deokdUg1hgke1bikpCSEhIQgIyMDlpaW2L59O3r16iV1WKQhMTERK1asAAB88sknWkuGqPZzcnLSuh0SElJh3+eee07cQuHs2bPVGhcZtmTJEpw4cQIAoFAosGrVKrRt2xbW1tZwdnbGgAEDEB0djb59+0IQBMyaNQsXLlyQOGoyRPM1aWjZpeYMvKHlnCSddevWYf78+QBKC+McOHCAvytrmWXLluHq1avw8vLCO++8I3U4NYobI1GNunfvHvr374979+5BJpNh48aNGDJkiNRh0WPWrFmDoqIi+Pj4IC8vD9u3by/XR7Ngx5EjR5CamgoAGDx4MH/JSczGxgaNGjXCw4cPAWgXbXicra0t3N3dkZqaKvYnaQiCgI0bNwIA/Pz8EB4errOfXC7He++9hx49ekCtVmPz5s1Ys2ZNTYZKJtIsrKJZcEUXzcIq+l67JJ1vv/0WkydPBgB4e3vj0KFDrDBdC61atQoA0L9/f+zbt09nn7I/qOTm5orvdTw8PNCvX7+aCbKaMMGjGpOWloYBAwaIezt98sknGDt2rMRRkS5lS4Ru3bqFkSNHGuz/3nvvie2kpCQmeLVAhw4dcPToUQDQWWpfU9lxboYurfv374v7EwYGBurtq1mQqqxiKtVe7du3F9uGrpfmcVZjrH1++OEHjB07Fmq1Gk2bNsWvv/5qsDIqSaNsOfSmTZuwadMmvX3T0tLE9zu9e/eu8wkel2hSjcjKysLAgQPFvYBWrlyJKVOmSBwVkfnSXPasb8Ps7OxspKWlAQCaNWtW7XFRxTQTbJVKpbdvcXGxzsdR7dSqVSt4enoC0N4vTZfjx48DKH09tmzZsrpDIxP8+uuvGD58OFQqFdzc3HDo0CH4+vpKHRZROUzwqNrl5eUhNDQUv//+OwBgwYIFmDNnjsRRkT6bN2+GIAh6vzQLr0RHR4v38w1J7TBs2DCx/f3331fY7/vvvxcrNfbs2bPa46KKNWzYUNy0PCYmRm+Sp5kktGrVqtpjo8qRyWTixxESExMRGxurs19sbKw4gzdkyJB6U/GvLjh9+jSGDBmCwsJCuLi44JdffkGHDh2kDov0MPQ+RhAEeHt7Ayhdalt2X9nql7qMCR5Vq6KiIgwdOhSnTp0CAEyfPh1Lly6VOCoi89epUycMGjQIQOnnRX799ddyfVJTU7Fw4UIApaXbx48fX6MxkjYLCwuEhoYCKP28ckX7aWVkZGj9kSwsLKxG4qPKiYyMhKWlJQBg2rRp5bZAyM/Px7Rp0wCUzsqWbcxM0jt//jxCQ0ORm5sLBwcH7N+/n/v2Uq3GdR1UrUaOHImDBw8CAPr164eIiAit4hyPs7a2hp+fX02FR2TW1q5di5iYGGRmZiIsLAyRkZH4xz/+ATs7O5w5cwYrVqwQCz689957XKJZCyxatAh79+5FXl4elixZgnPnziE8PBw+Pj4oKChAbGws1q5diz/++ANAaRVUfVVSqWqcPHkSN27cEG+XLWsGgBs3bmDz5s1a/ceNG1fuHH5+fpg1axZWrlyJuLg4BAcHY86cOfD19cXNmzexatUqKJVKAKUbM7dp06Zankt9U9lrd/PmTQwcOBCZmZkAgKVLl8LFxUXvexkPDw9u/VQFquJ1V28JRNUIgElf3t7eUodMRlq8eLF43aKjo6UOhypw4sQJoXHjxhW+5mQymbBw4UKpwyQNhw4dEtzd3Q3+f9mvXz8hPT1d6nDrhfDwcJN+l1WkpKREmDBhgt7HRkRECCUlJTX47MxbZa/dpk2bTH4vs3jx4pp/omaoql53+nh7e5vl+0/O4BERmbEePXrg8uXL+OSTT7Bnzx4kJSWhqKgITZs2RZ8+fTBt2jSDFRupZvXv3x+JiYlQKBT46aefcPnyZWRmZkIul6NJkybo1q0bXnvtNbzwwgv8jFYdY2FhAYVCgWHDhuHLL7/E2bNnkZaWBnd3d3Tr1g1vvPGGuLSaiOhJyQTh70/XExERERERUZ3GIitERERERERmggkeERERERGRmWCCR0REREREZCaY4BEREREREZkJJnhERERERERmggkeERERERGRmWCCR0REREREZCaY4BEREREREZkJJnhERERERERmggkeERERERGRmWCCR0REREREZCaY4BEREenx888/Y8SIEfDx8YGDgwNkMpn4lZycLHV4REREWpjgERFRpQ0aNAgymQyWlpbIysrSOqZWq+Hq6gqZTIbg4GCJInwyb775JgYNGoSdO3ciKSkJeXl5lT5ncnKyVpJ49OjRygdKRET0N7nUARARUd2mVqtx+vRpAEDnzp3h4uKidfz8+fNi0terV68aj+9JRUVF4YsvvhBvN2jQAB07doS9vb14n52dnRShERERVYgJHhERVcqFCxeQnZ0NAOjdu3e548eOHRPbPXv2rLG4KkuhUIjt0NBQ7N69G9bW1hJGREREZBiXaBIRUaUcP35cbOuaoStL8CwsLOrUEs1z586J7X/9619M7oiIqE5ggkdERJVy4sQJAIBMJis3QycIgni8U6dO5ZZv1mbp6eli28vLS8JIiIiIjMcEj4iIKuXkyZMAgPbt28Pd3V3r2KVLl8REqS4tzwQAlUolti0tLSWMhIiIyHhM8IiI6Ildu3YN9+/fB6B/eSZQMwleSkoKli1bhuDgYDRt2hQ2Njbw8PBAly5dMG/ePCQkJOh9vGZ1S02tWrXSOlbbql8+ePAAW7Zswbhx4/D000+jYcOGsLKygqurK/z8/DB69Gh89913UKvVes8THBwsPr85c+YYPX5+fr5YKVUmk2Hnzp16+6elpWHNmjUICQmBt7c37Ozs4Orqivbt22PKlCmIjY01atyWLVuWux45OTlYt24d+vfvD29vb9jY2FR4vc6cOYOpU6eKPzO5XA57e3t4enoiODgYU6ZMwc6dO5Gbm2v0z4KISGoyQRAEqYMgIqLabfv27di+fXu5+1NTU/Hbb78BAAICAuDj46N1/MKFC+JecX379oWzs7PW8bfeegv9+vWrkhg//PBDLFq0SO+bcblcjmnTpuH999+HXF6+ztjjiZ0+0dHR6NOnj8lxJicno1WrVpU+T5nIyEh8+umnKCkpMdi3Y8eOiIqKgp+fn87jZUkiADRp0gR37tzR+XN63FdffYWxY8cCANzd3ZGSklLhZxbXrl2LJUuWlNtO43GjRo3C+vXr9VYqbdmyJW7fvg2g9Ofo4OCAESNGICkpqVxfzZ9zYWEhJk2ahK1btxp8bkDpNiAHDhwwqi8RkdRYRZOIiAxKTEzE3r179fa5dOkSLl26VOHx6Ojocve9+OKLlQ0NADBz5kx8+OGHWve1bt0azZs3R1paGi5fvgxBEKBSqbBmzRrcunULu3btKpe8DBw4UGz/8ssvYrtXr17lEo2GDRtWSeyVFR8fLyZ3MpkMrVq1QpMmTWBnZ4fMzEwkJCSI+/fFx8cjKCgISqUSLVq0KHeu4cOHIzIyEpmZmUhNTcWPP/5o1DXasGGD2B4zZozO5E6tVuOf//wn1q9fL94nk8nQpk0beHp6oqCgAPHx8Xj06BEA4JtvvkFycjJ+/fVX2NjYGIzhxo0bmDlzpljRtez6Z2ZmIjExUavv+PHj8e2334q35XI5/P394eHhAUEQkJ6ejmvXrqGgoECMnYiozhCIiIgMWLx4sQCgyr82bdpU6dh27typdc5u3boJ58+f1+qTnJwshIWFafV799139Z5Xs29SUlKl4yyTlJSkde7o6OhKne/5558Xhg8fLuzevVvIzs4ud7ywsFDYtm2b4OnpKY4ZEhJS4fmmTp0q9gsLCzM4/rVr17Sez+XLl3X2W7FihdhHJpMJ06dPF+7evVsu1s8//1ywt7cX+0ZGRlY4tre3t9jPyclJACAMGDBASEhI0OqXnp4upKenC4IgCHFxcVrxLly4UMjIyCh3bpVKJZw6dUp46623hFdeecXgz4GIqLZggkdERE8kOTlZfJP82muvlTu+bt068fg333xTLTEUFhYKTZo0Ecd5+umnhUePHunsW1JSIrzwwgtiXysrK+HOnTsVnruuJHgVPV9d47q6uorjXrp0SWe/S5cuiX0sLS2FlJQUveedO3eu2D8oKEhnn6tXrwpWVlZicrdt2za95zx69Kggl8vFGCr6+WsmeACEQYMGCcXFxXrP/e6774r9R48erbdvGZVKZVQ/IqLagEVWiIjoiZRtfwDoLrBy6tQpsd2jR49qiSEqKgqpqakASpf7KRQKODg46OxrYWGBL7/8Ek5OTgCA4uJirFu3rlriqkkVPd/HtWzZEtOmTRNv//DDDzr7dezYEUFBQQCAkpISbN68ucJzqlQqbNmyRbw9ceJEnf3WrFmD4uJiAKXLI0eOHKk31t69e+P1118XYzDmOllbW2P9+vUGPzN49+5dsW3svoysokpEdQkTPCIieiKaCZ6uCpllCV7z5s11ft6rKuzZs0ds9+7dG0899ZTe/o0bN8Zrr72m8/H1wbPPPiu2z549W2G/SZMmie2NGzdCqKAe24EDB/Dnn38CAJycnDBixIhyfdRqNbZt2ybejoyMNCrWUaNGie0jR44Y7B8aGopmzZoZ7Gdrayu2L168aFQsRER1CYusEBHREzl+/DiA0qqJ7dq10zqWmpqKmzdvAjB+luRJlFXwBEorHRojLCxMnBG6cuUKcnJyxFm9uu7s2bM4deoUrly5goyMDOTm5moVCNHcvD0lJaXC84wYMQKRkZHIysrCzZs3cezYMZ2VPhUKhdh+9dVXdc4mXrhwQSx84u7ujoCAAKOeS8eOHcX2+fPnIQiC3iqnxs4Sd+nSRWyvW7cOfn5+eOONN/RW6yQiqkuY4BERkckePnwoVibs0aNHuTfeNbE8U6VSiSXyARidOGj2U6vVSEpKQqdOnao8vpp04MABzJw5s1y1SH30bVNgZ2eHMWPG4NNPPwVQWiXz8QTvzz//1No6oKLlmfHx8WK7sLAQzz//vNExlikqKkJ2djZcXFwq7OPr62vUuV5++WXMnz8fKSkpUKvVmDFjBhYvXoyQkBD06dMHPXv2REBAgElbZhAR1SZM8IiIyGQnT54U2/qWZwLVN4OXmZmpddvNzc2ox7m7u2vdzsjIqKqQJPHBBx9g1qxZJj+usLBQ7/FJkyaJCV5UVBQ+/fRTuLq6ise3bNkClUoFoDRpfuaZZ3Se56+//hLbOTk5WttPmCIrK0tvgmfsLKy9vT327duHsLAw3Lt3DwCQnZ2NXbt2YdeuXQBK/42EhoYiIiJC579vIqLajJ/BIyKiCm3evBkymazc10svvST2mTlzZrnja9asEY8//fTT5Y4vWbKk0rE9nqBUtLH24x7vZyjRqc1iY2O1kjtvb28sW7YMx48fx507d5Cbm4uSkhIIpVWzde5FWJGAgAB0794dAFBQUIBvvvlG6/jGjRvFdkWzdwD0bjxvCkN70VlYGP+WJjAwEAkJCVi6dClat25d7nhaWhq2bNmCXr16ISwsDGlpaSbHS0QkFSZ4RERUJz0+m5OTk2PU4x7vpzkrVdesXLlSbHfv3h3x8fGYP38+evbsiebNm8Pe3l4r8TH2Z1RGs9iK5uftjh07huvXrwMAbGxsMHr06ArPoXmdOnToICabpn61bNnSpNgNcXZ2xoIFC3D9+nXcvHkTCoUCY8eOLVeoZf/+/Xj++efF2UoiotqOSzSJiKhCzZo1w8CBA7XuKywsxNGjR8XjmsUwgNLiHWWfuwoICICnp2e58+qaNTGVo6Mj7OzskJ+fDwBISkoyajldWfGXMo0aNap0LFIQBAGHDx8Wb69cuRKOjo56H6OvsIouI0aMwIwZM5CVlQWlUgmlUonAwECtZO+ll15Cw4YNKzxH48aNxfaDBw9MGr+m+Pj4wMfHBxMmTIAgCDh16hQWLlyIY8eOAQDOnTuHb7/9FmPGjJE4UiIiw5jgERFRhQYMGIABAwZo3RcdHS0meNOmTcOcOXO0js+dO1dM8NavX69Vmr+qBQYG4vTp0wCAM2fOYOzYsQYfo1l5s0GDBlU+M1RT0tPTtZY/du3a1eBjYmJiTBrD3t4eo0ePxmeffQagtNjK8uXLxc+qAfqXZwIQl3kCpcV5bt26BR8fH5PiqEkymQw9evTAzz//jMDAQLFwzcGDB5ngEVGdwCWaRERkkrJZDUB3gZWy7RMcHBy0StJXB83xo6KixM209fn666/Ftq4KoHWFMc9VU3Z2Nnbv3m3yOJrLNLdt2waFQiHOmvr4+KBv3756H+/l5aW1jYbmxui1ma2trdbs9f379yWMhojIeEzwiIjIJGUJnJ2dXblZo/z8fJw7dw4AEBQUBLm8eheKjB8/Xmynpqbio48+0ts/KipKawYvIiKi2mKrbm5ubrCyshJva1Yu1WXevHl49OiRyeN06tRJnIXNzMzEggULxGMTJkwwKkGeMWOG2P7www+RkJBgchxVpaJN23XR/MyivmWoRES1CRM8IiIyWlFREWJjYwEAzz77bLmKlLGxsSgqKgIA9OrVq9rj8ff3x8svvyzenj9/Pvbs2aOzb2xsLCZMmCDe7ty5M8LCwqo7xGpjZWWF//u//xNvz549W9xQXJMgCFi+fDn++9//PvFYmrN4BQUFAABLS0utBFuf8PBwdO7cGQDw6NEj9O/fHydOnDD4uPj4eLz++uvYtGnTE0St28iRI7Fq1So8fPhQb79z585h+/bt4u2a+PdMRFQV+Bk8IiIy2pkzZ8Tlebre8Gq+aa+pN8SfffYZTpw4gfv376O4uBhDhw7FsGHDMGzYMDRr1gxpaWk4cOCA1r5ttra22Lp1KywtLWskRn1CQkJMKvE/ZswYrF+/HgAwffp0ccnshQsX0KlTJ0ydOhVdunSBIAhISEjAli1bcPbsWQCln5fbsGGDyTG++uqrePvtt7U2Rx80aJDOAjq6WFtbY/fu3XjmmWfw119/4d69e+jVqxf69euHsLAwtG3bFk5OTnj06BH+/PNPKJVKHD58WJzpq8qlvqmpqZg7dy4WLlyIvn37okePHujYsSPc3Nwgk8mQkpKCQ4cO4ZtvvhH/WNGiRQt+/o6I6gwmeEREZLSy5ZmA/s/f2djYVGtxFU0eHh6Ijo7GgAEDxCqRUVFRiIqK0tnfyckJP/zwAzp16lQj8Rli6mfpNPsPHToUERERYlXL27dvV7jp+b/+9S+EhoY+UYJnb2+PUaNGac0CGiqu8jgfHx/89ttveOGFF3DlyhUAwJEjR3DkyBGT46kKKpUKhw4dwqFDh/T28/DwwN69e43eSJ2ISGpcoklEREYrmy2Sy+UICgrSOqZSqcTlm926dYOtrW2NxdWuXTtcvHgRb731FhwcHHT2sbKywsiRIxEfH48+ffrUWGzVbf369VixYgWcnZ11Hvfx8cG2bdvwn//8p1LjlC2xBICmTZsiNDTU5HP4+vri999/x8cff2ywkqajoyMGDx6Mb7/9FuPGjTN5rIrMmTMHI0eONLg9hpOTE/75z38iPj4eTz31VJWNT0RU3WSCKZ82JiIiquUKCgpw/Phx3Lp1C+np6XB2dkaLFi3Qp0+fCpMgc5CTk4OjR4/i+vXrKCoqQpMmTdCuXbsqm0nt27evuD3G3LlzsWLFikqf8/r164iLi8ODBw+Qk5MDBwcHNG7cGG3btkVAQIBWEZnqcP36dVy5cgV//PEHcnJyYGFhgQYNGqB9+/bo2rUr7OzsqnV8IqLqwASPiIiI9Lp27Rr8/f0BlO4Td/36dfj6+kocFRER6cIlmkRERKTX+++/L7ZDQkKY3BER1WJM8IiIiKhCu3fv1tqmYPbs2RJGQ0REhrCKJhEREYni4+OxcOFCqNVqJCUlIT4+Xjz2/PPPo1+/fhJGR0REhjDBIyIiIlFaWhr27t1b7n4vL68n2mKBiIhqFpdoEhERkU5yuRwtW7bE1KlTERcXh2bNmkkdEhERGcAqmkRERERERGaCM3hERERERERmggkeERERERGRmWCCR0REREREZCaY4BEREREREZkJJnhERERERERmggkeERERERGRmWCCR0REREREZCaY4BEREREREZmJ/weMQ3NfrS4LFAAAAABJRU5ErkJggg==;" vertex="1" parent="1">
          <mxGeometry x="82.45" y="47.6" width="755.09" height="439.98" as="geometry" />
        </mxCell>
        <mxCell id="AoGtgX9DV2KB_T8Uw5mt-4" value="" style="rounded=1;whiteSpace=wrap;html=1;fillColor=none;strokeWidth=2;strokeColor=#ff6a00;dashed=1;" vertex="1" parent="1">
          <mxGeometry x="170" y="380" width="430" height="40" as="geometry" />
        </mxCell>
        <mxCell id="AoGtgX9DV2KB_T8Uw5mt-7" value="" style="endArrow=none;html=1;strokeWidth=2;rounded=0;exitX=0;exitY=0;exitDx=0;exitDy=0;strokeColor=#ff6a00;dashed=1;entryX=0;entryY=1;entryDx=0;entryDy=0;" edge="1" parent="1" source="AoGtgX9DV2KB_T8Uw5mt-4" target="9Eg1DR7KNLfBf103qCqV-1">
          <mxGeometry width="50" height="50" relative="1" as="geometry">
            <mxPoint x="400" y="522.39" as="sourcePoint" />
            <mxPoint x="197" y="351" as="targetPoint" />
          </mxGeometry>
        </mxCell>
        <mxCell id="AoGtgX9DV2KB_T8Uw5mt-8" value="" style="endArrow=none;html=1;strokeWidth=2;rounded=0;exitX=1;exitY=0;exitDx=0;exitDy=0;strokeColor=#ff6a00;dashed=1;entryX=0.999;entryY=0.969;entryDx=0;entryDy=0;entryPerimeter=0;" edge="1" parent="1" source="AoGtgX9DV2KB_T8Uw5mt-4" target="9Eg1DR7KNLfBf103qCqV-1">
          <mxGeometry width="50" height="50" relative="1" as="geometry">
            <mxPoint x="420" y="745.76" as="sourcePoint" />
            <mxPoint x="650.81" y="351" as="targetPoint" />
          </mxGeometry>
        </mxCell>
        <mxCell id="9Eg1DR7KNLfBf103qCqV-1" value="" style="shape=image;imageAspect=0;aspect=fixed;verticalLabelPosition=bottom;verticalAlign=top;image=data:image/png,iVBORw0KGgoAAAANSUhEUgAAAl8AAAEgCAYAAACKIxaUAAAAOXRFWHRTb2Z0d2FyZQBNYXRwbG90bGliIHZlcnNpb24zLjcuMSwgaHR0cHM6Ly9tYXRwbG90bGliLm9yZy/bCgiHAAAACXBIWXMAAA9hAAAPYQGoP6dpAAA4qklEQVR4nO3deVRTZ+I+8CcQ9lVZFARFVEBxAbfqV607TqvVWqot1krBLtNx+rPT+ar126na2lbtKWr1nJlOK4hL1arVWrW2VEcdtFhFQRFFUVBBREWWCEgCyf39weQOyCIJSW4Iz+ccjpfkJXmuCzze5X1lgiAIICIiIiKTsJI6ABEREVF7wvJFREREZEIsX0REREQmxPJFREREZEIsX0REREQmxPJFREREZEIsX0REREQmJJc6wOM0Gg0KCgrg4uICmUwmdRwiIiKycIIg4OHDh/D19YWVlfGPS5ld+SooKIC/v7/UMYiIiKidycvLg5+fn9Hfx+zKl4uLC4Da3wBXV1eJ0xAREZGlUygU8Pf3FzuIsZld+dKeanR1dWX5IiIiIpMx1eVOvOCeiIiIyIRYvoiIiIhMiOWLiIiIyIRaVb5UKhU2bNiASZMmwcfHB3Z2dnB2dkZwcDBiYmLw22+/GSonERERkUWQCYIg6POFN2/exOTJk5GZmdnsuHfeeQdffvlliy9iUygUcHNzQ1lZGS+4JyIiIqMzdffQ68hXdXV1veLVv39/JCYmIiUlBUlJSViyZAmcnJwAAOvXr8eqVasMl5iIiIioDdPryNfu3bsxY8YMAMDw4cORnJwMa2vremPOnj2L4cOHo7q6Gu7u7rh//z7k8ifPbMEjX0RERGRKCacSMHf4XPM+8lX3Wq7Fixc3KF4AMGjQIEyZMgUAUFpaisuXL+sZkYiIiMg4ih8V448H/mjS99SrfKlUKnE7MDCwyXE9evRo9GuIiIiIzMG2jG2oVleb9D31Kl/BwcHidk5OTpPjrl+/DqB2xthevXrp81ZERERERhOfFm/y99SrfEVFRYnnRFetWgW1Wt1gTFpaGg4ePAgAmDVrFq/fIiIiIrOSdicN6YXpsLG2Men76lW+PD09sWXLFjg6OuLkyZMYMmQINm/ejFOnTuHw4cP46KOPMHr0aKhUKgwcOBBxcXGGzk1ERETUKglpCQCAKUFTTPq+es/zBQBZWVmIi4tDfHw8Hn+ZTp06YfHixXjjjTfg6OjY5GsolUoolUrxc+3K4rzbkYiIiIylqqYKvnG+KKkqwfdTv0fkwEjzvtsRqL2AfvPmzdi3b1+D4gUAd+/exdatW3H48OFmX2fFihVwc3MTP/z9/fWNRERERNQi+7L2oaSqBH6ufhjbfaxJ31uv8lVRUYEJEyZgxYoVKC4uxsKFC3H58mUolUqUlZUhKSkJI0eORGpqKp5//nmsXr26yddavHgxysrKxI+8vDy9d4aIiIioJRLSa085vjbgNVhbNZwyy5j0Ou24YMECfPHFFwCAxMREREdHNxhTU1ODiIgIHD16FFZWVjh37hwGDBjwxNfmJKtERERkTLfKbiFgbQAECLj+/67D09rTvJcXEgQBCQm1bTEoKKjR4gUAcrkcy5cvBwBoNBokJibqn5KIiIjIQDalb4IAAWMDxiKwQ9PzlRqLzuXr7t27KC4uBgCEh4c3O3bQoEHidlZWlq5vRURERGRQGkEjnnKMDY+VJIPO5avu+ow1NTXNjq2u/u+MsS1Z15GIiIjImI7dOIYbpTfgaueKF3q/IEkGnctXx44dxfOhKSkpzRaw48ePi9vdu3fXIx4RERGR4Wjn9orqGwVHm6anwjImncuXlZUVJk+eDAAoKCjAp59+2ui4kpISLFq0SPxcu8g2ERERkRRKq0rx/eXvAUh3yhEA9DoXuGTJEuzbtw+VlZVYtmwZzp49i+joaAQGBqKqqgqnTp3C2rVrcevWLQDA+PHjERERYdDgRERERLrYcXEHqmqqEOoViiG+QyTLoVf5CgkJwb59+xAVFYWioiLs378f+/fvb3TsuHHjsGvXrlaFJCIiImot7SnHueFzIZPJJMuh91XwEyZMQFZWFuLj43Ho0CFkZmaitLQUcrkcnTt3xpAhQzBr1ixMnTpV0h0kIiIiyribgTMFZyC3kmN2/9mSZmnVLYgeHh5YuHAhFi5caKg8RERERAanPeo1NXgqvJy8JM2i99qORERERG2BSq3ClgtbAACxYdJdaK/F8kVEREQWbf+V/Xjw6AF8nH0wqeckqeOwfBEREZFl085oHz0gGnIr6Sd9Z/kiIiIii3VbcRs/X/sZABATHiNxmlosX0RERGSxNp/fDI2gwaiuoxDkESR1HAAsX0RERGShBEGQfBHtxrB8ERERkUVKvpWMa8XX4GzrjBf7vCh1HBHLFxEREVkk7dxeL4W+BGdbZ4nT/BfLFxEREVkchVKBXZdqlzc0p1OOAMsXERERWaCdmTtRWV2JYI9gDPcbLnWceli+iIiIyOJoTznGhsea3RrTLF9ERERkUS7fv4yU/BRYy6wxZ8AcqeM0wPJFREREFmVj+kYAwOSgyejs3FniNA2xfBEREZHFqFZXY9P5TQDMYxHtxrB8ERERkcX4Kfsn3Ku4B28nbzzb61mp4zSK5YuIiIgshnZG+zn958DG2kbiNI1j+SIiIiKLUFheiINXDwIwn0W0G8PyRURERBZhy/ktUAtqDPMbhj5efaSO0ySWLyIiImrz6i2ibaYX2muxfBEREVGbdyr/FLKKsuBo44iX+r4kdZxmsXwRERFRm6ed0X5GnxlwtXOVOE3zWL6IiIioTStXlWNH5g4A5reIdmNYvoiIiKhN231pN8pV5ejZsSdGdR0ldZwnYvkiIiKiNk17yjEmLMbsFtFuDMsXERERtVlXH1xF8q1kWMmszHIR7cawfBEREVGblZieCACY1GMS/Fz9pA3TQixfRERE1CbVaGrERbTnhs+VOE3LsXwRERFRm5R0PQkFDwvg6eiJ54KfkzpOi7F8ERERUZsUnxYPAJjdbzZsrW0lTtNyLF9ERETU5tyvuI8fr/wIoG3M7VWX3BAvcuvWLcTHx+PgwYO4efMmHj58CC8vLwQEBGDs2LGYOXMm+vbta4i3IiIiIsLWC1tRo6nBYN/B6Nepn9RxdNLq8rV+/XosXrwYFRUV9R7Pz89Hfn4+Tpw4AYVCgbVr17b2rYiIiIggCIJ4ytHcF9FuTKvK1yeffIIPP/wQABAUFIQ33ngDQ4YMgZubGx48eIC0tDTs3bsXVlY8u0lERESGkVqQisz7mbCX2yOqX5TUcXSmd/k6cuSIWLzmzJmDDRs2wMbGpt6Y8ePH43//93+hUqlal5KIiIjoP7Qz2kf2joS7vbu0YfSgV/nSaDR4++23AQADBgxAfHw85PKmX8rWtu3cgUBERETmq7K6EtsubgPQ9i6019LrfGBSUhKys7MBAIsWLWq2eBEREREZyp7Le6BQKhDgHoAxAWOkjqMXvcrXrl27AAAymQxTpkwRHy8uLkZ2djaKi4sNk46IiIiojrqLaFvJ2uY15XqlPnXqFAAgICAALi4u2LZtG/r16wcPDw8EBQXBw8MDwcHB+OKLL6BUKg0amIiIiNqnnJIcHL1xFDLIED0gWuo4etO5fGk0GmRlZQEAPD09MX/+fLzyyiu4ePFivXFXr17FggULMG7cOJSWljb5ekqlEgqFot4HERER0eO0i2hPCJyAbu7dpA3TCjqXr7KyMmg0GgBARkYG1q1bBx8fH2zduhXFxcWorKzE8ePHMWzYMADAb7/9htjYpi+IW7FiBdzc3MQPf39/PXeFiIiILJVaoxbLV1u90F5LJgiCoMsX5Ofn1ytIjo6OOHfuHIKDg+uNe/ToEYYPH47z588DqD1V+dRTTzV4PaVSWe/UpEKhgL+/P8rKyuDq6qrTzhAREZFlSrqehElbJ6GDfQcU/LUA9nJ7g722QqGAm5ubybqHzke+7O3r7+zrr7/eoHgBgIODAz799FPx8++++67R17Ozs4Orq2u9DyIiIqK6tBfav9LvFYMWLynoXL5cXFzqfR4REdHk2PHjx4vTUJw5c0bXtyIiIiLCg8oH2Ju1F0DbP+UI6FG+7Ozs4OXlJX7e3DVa9vb28PT0BADcv39fj3hERETU3m3L2AaVWoWwzmEI9wmXOk6r6TXVRGhoqLitVqubHat9nhOxEhERkT4S0mtPObbFRbQbo1f5evrpp8XtnJycJscpFAoUFRUBALp06aLPWxEREVE7lnYnDemF6bC1tsWsfrOkjmMQepWvyMhIcXvv3r1Njtu7dy+0N1OOGjVKn7ciIiKidkx7of3zIc/Dw9FD4jSGoVf56t+/P5555hkAwPbt23HkyJEGYwoLC/G3v/0NQO3C2jExMa2ISURERO1NVU0Vvs34FoDlnHIE9CxfALB27Vq4u7tDo9FgypQpWLx4MZKTk5Gamoq///3vGDJkCPLz8wEAy5cv52lHIiIi0sm+rH0oqSqBv6s/JgROkDqOweh9FXxQUBD279+PF198EXfv3sXKlSuxcuXKemNkMhk++OADLFy4sNVBiYiIqH3RXmj/WthrsLayljiN4bTqFsSRI0ciMzMT69evxw8//IDc3FyoVCr4+PhgzJgxeOeddxAe3vZvCSUiIiLTull6E79e/xVAbfmyJK2e/8HDwwPLli3DsmXLDBCHiIiICNh0fhMECBgbMBaBHQKljmNQel/zRURERGQMGkGDjekbAVjGjPaPY/kiIiIis3LsxjHcKL0BVztXvND7BanjGBzLFxEREZkV7dxeUX2j4GjjKHEaw2P5IiIiIrNRWlWK7y9/DwCYGz5X4jTGwfJFREREZmPHxR2oqqlCX+++GOw7WOo4RsHyRURERGYjPi0eQO2M9jKZTOI0xsHyRURERGbhwt0LSC1IhdxKjtn9Z0sdx2hYvoiIiMgsbEyrnV5iavBUeDl5SZzGeFi+iIiISHIqtQpbLmwBYFmLaDeG5YuIiIgkt//Kfjx49AA+zj6Y1HOS1HGMiuWLiIiIJKddRDt6QDTkVq1e/dCssXwRERGRpG4rbuPnaz8DsMzlhB7H8kVERESS2nR+EzSCBqO6jkIvj15SxzE6li8iIiKSjCAI4nJC7eGoF8DyRURERBJKvpWM6yXX4WzrjBf7vCh1HJNg+SIiIiLJaI96vRT6EpxtnSVOYxosX0RERCQJhVKBXZd2AWg/pxwBli8iIiKSyM7MnaisrkSwRzCG+w2XOo7JsHwRERGRJLSnHOeGz7XYRbQbw/JFREREJnf5/mWk5KfAWmaNVwe8KnUck2L5IiIiIpPTHvWaHDQZnZ07S5zGtFi+iIiIyKSq1dXYfGEzAMtfRLsxLF9ERERkUj9l/4R7Fffg7eSNZ3s9K3Uck2P5IiIiIpPSLqI9p/8c2FjbSJzG9Fi+iIiIyGQKywtx8OpBAO1rbq+6WL6IiIjIZLac3wK1oMZwv+Ho7dVb6jiSYPkiIiIikxAEAfFp8QDa71EvgOWLiIiITCQlPwVXHlyBo40jZobOlDqOZFi+iIiIyCS0c3vN6DMDrnauEqeRjsHL16JFiyCTycSPY8eOGfotiIiIqI0pV5Xju8zvALTvU46AgctXeno6Vq9ebciXJCIiIguw+9JulKvK0bNjT4zqOkrqOJIyWPnSaDR48803UVNTA29vb0O9LBEREVkA7SnHmLCYdrWIdmMMVr7WrVuHM2fOICQkBHPnzjXUyxIREVEbd/XBVSTfSoaVzArRA6KljiM5g5SvW7du4cMPPwQAfPXVV7C1tTXEyxIREZEFSExPBAD8oecf0MW1i7RhzIBByte8efNQXl6O6OhojB492hAvSURERBagRlMjlq/2uIh2Y1pdvnbu3IkDBw6gY8eO+OKLLwyRiYiIiCzEL9d+wZ3yO/B09MRzwc9JHccstKp8lZaWYv78+QCAVatWwdPT0yChiIiIyDJoF9Ge3W82bK15WRIAyFvzxQsXLkRhYSFGjBih90X2SqUSSqVS/FyhULQmEhEREZmJ+xX38eOVHwFwbq+69D7ylZycjA0bNkAul+Orr77S+7bRFStWwM3NTfzw9/fXNxIRERGZka0XtqJGU4PBvoPRr1M/qeOYDb3Kl0qlwptvvglBEPCXv/wFffv21TvA4sWLUVZWJn7k5eXp/VpERERkHuotos0L7evR67TjZ599hqysLHTt2hVLly5tVQA7OzvY2dm16jWIiIjIvKQWpCLzfibs5faI6hcldRyzovORr6ysLKxYsQIAsH79ejg5ORk8FBEREbVt2qNekb0j4W7vLm0YM6Pzka81a9ZApVIhMDAQlZWV2LFjR4MxFy9eFLf/9a9/obCwEADw3HPPsawRERFZuMrqSmy/uB0AL7RvjM7lS3tnYk5ODqKinnwYcfny5eJ2bm4uyxcREZGF23N5DxRKBQLcAzAmYIzUccyOwdZ2JCIiIgLqL6JtJWPVeJzOvyOJiYkQBKHZj7oX4R89elR8PCAgwJDZiYiIyMzklOTg6I2jkEHGRbSbwDpKREREBqNdx3FC4AR0c+8mbRgzxfJFREREBqHWqMXyNTdcv5Vv2gOWLyIiIjKIwzmHkafIQwf7DpgWMk3qOGaL5YuIiIgMQruI9iv9XoG93F7iNOZLJgiCIHWIuhQKBdzc3FBWVgZXV1ep4xAREVELPKh8AN/VvlCpVTj35jmE+4RLHanFTN09eOSLiIiIWm1bxjao1CqEdQ5rU8VLCixfRERE1GraU45cRPvJWL6IiIioVdLupCG9MB221raY1W+W1HHMHssXERERtYp2RvvpIdPh4eghcRrzx/JFREREequqqcK3Gd8C4CLaLcXyRURERHr7IesHlFSVwN/VH+O7j5c6TpvA8kVERER6055yfC3sNVhbWUucpm1g+SIiIiK93Cy9icM5hwHUli9qGZYvIiIi0sum85sgQMDYgLEI7BAodZw2g+WLiIiIdKYRNNiYvhEAL7TXFcsXERER6ezYjWO4UXoDrnaueKH3C1LHaVNYvoiIiEhn2gvtZ/WdBUcbR4nTtC0sX0RERKST0qpSfH/5ewA85agPli8iIiLSyfaM7aiqqUJf774Y7DtY6jhtDssXERER6aTuItoymUziNG0PyxcRERG12IW7F5BakAq5lRyz+8+WOk6bxPJFRERELbYxrXZ6ianBU+Hl5CVxmraJ5YuIiIhaRKVWYcuFLQBqTzmSfli+iIiIqEX2X9mPB48ewNfFF5N6TpI6TpvF8kVEREQtEp8WDwCIHhANuZVc4jRtF8sXERERPVG+Ih+/XP8FABATFiNxmraN5YuIiIieaPP5zdAIGozqOgq9PHpJHadNY/kiIiKiZgmCIC4nxBntW4/li4iIiJqVfCsZ10uuw9nWGS/2eVHqOG0eyxcRERE1S3vU66XQl+Bs6yxxmraP5YuIiIiapFAqsOvSLgDA3PC5EqexDCxfRERE1KTvLn6HyupKhHiGYJjfMKnjWASWLyIiImoSF9E2PJYvIiIiatSl+5dwKv8UrGXWeHXAq1LHsRh6la/U1FR8/PHHiIiIgJ+fH+zs7ODs7IygoCDExMTgxIkThs5JREREJqZdRHty0GR0du4scRrLofPaAE8//TSSk5MbPK5SqZCdnY3s7GwkJiZizpw5+Oabb2Bra2uQoERERGQ61epqbL6wGQAX0TY0nctXQUEBAMDX1xczZszAqFGj0LVrV6jVaqSkpCAuLg63b9/G5s2bUV1djW3bthk8NBERERnXT9k/4V7FPXg7eePZXs9KHcei6Fy+QkJC8NlnnyEyMhLW1tb1nhs2bBheffVVjBgxAlevXsX27dvxxz/+EU8//bTBAhMREZHxaS+0n9N/DmysbSROY1l0vubrwIEDmDlzZoPipeXp6Ym4uDjx8927d+ufjoiIiEzuzsM7OHj1IAAuJ2QMRrnbcezYseL29evXjfEWREREZCRbLmyBWlBjuN9w9PbqLXUci2OU8qVUKsXtpo6QERERkfnhItrGp/M1Xy1x/Phxcbt3bzZmIiIic6cRNDiaexTfnPsGVx5cgaONI2aGzpQ6lkUyePnSaDRYuXKl+PnMmfyDIyIiMlc3Sm8gMT0RiemJuFl2U3z8vWHvwdXOVcJklsvg5WvNmjU4ffo0AOCFF17AoEGDmh2vVCrrnaZUKBSGjkRERER1PKp+hD2X92Bj+kYcyT0iPu5m54ZZ/WYhJiwGg30HS5jQshm0fB0/fhzvv/8+AMDb2xv/+Mc/nvg1K1aswEcffWTIGERERPQYQRBwpuAMNqZtxPaL21GmLBOfG999PGLDYzE9ZDocbBwkTNk+yARBEAzxQpmZmRg1ahRKSkpgb2+PX375pUXzezV25Mvf3x9lZWVwdeXhTiIiota4V3EPWy9sRUJaAjLvZ4qPd3PrhpiwGESHRSPAPUC6gGZAoVDAzc3NZN3DIEe+cnNzERERgZKSElhbW2PHjh0tnljVzs4OdnZ2hohBREREAGo0NTiUfQgJ6Qk4cPUAajQ1AAB7uT0ie0ciNjwWYwLGwEpmlEkP6AlaXb4KCgowYcIEFBQUQCaTISEhAdOmTTNENiIiItLB5fuXsTF9I7Zc2ILC8kLx8aFdhiI2LBYv9X0J7vbu0gUkAK0sX0VFRZg4cSJycnIAAOvXr8ecOXMMEoyIiIieTKFUYGfmTiSkJSAlP0V83MvRC3MGzEFMWAxCvUMlTEiP07t8lZWVYdKkSbh06RIAYOXKlZg3b57BghEREVHjBEHAv2/+GwnpCdh9aTcqqysBANYyazzb61nEhsdicq/JXJPRTOlVviorKzF58mScO3cOAPDBBx9g0aJFBg1GRERE9eWV5WHT+U3YmL4ROSU54uMhniGIDYvFqwNeRWfnzhImpJbQuXypVCpMnz4dJ0+eBADMnz8fn3zyicGDEREREVBVU4V9WfuwMX0jkq4nQUDtJAUuti54ue/LiAmLwTC/YZDJZBInpZbSuXxFRUUhKSkJADBu3DjMnTsXFy9ebHK8ra0tgoKC9E9IRETUDqXdSUNCWgK+zfgWJVUl4uNjAsYgJiwGkb0j4WTrJGFC0pfO83zp2qy7deuGGzdutHi8qefaICIiMhcPKh/g24xvkZCWgPN3z4uP+7v6I3pANF4Lew09OvaQMKFlapPzfBEREZF+1Bo1kq4nISE9AT9e+REqtQoAYGtti+kh0xEbHovx3cfD2spa4qRkKDqXLwNNiE9ERNSuZT/IRmJ6Ijad34TbD2+Ljw/0GYjYsFhE9YtCR4eOEiYkY+GRLyIiIhMpV5Vj96XdSEhLQPKtZPFxDwcPzO4/GzFhMRjQeYCECckUWL6IiIiMSBAE/Jb3GxLSEvBd5neoqK4AAFjJrPCHnn9ATFgMngt6DnZyLrXXXrB8ERERGUHBwwJsPr8ZG9M34uqDq+LjvTr2QkxYDOYMmIMurl0kTEhSYfkiIiIyEJVahQNXDyAhLQGHrh2CRtAAAJxsnDAzdCZiw2Mxwn8E5+Rq51i+iIiIWinjbgYS0hKwNWMriiqLxMdHdh2J2LBYzAidAWdbZwkTkjlh+SIiItJDyaMSbL+4HQlpCTh756z4uK+LrzgnV5AHJxmnhli+iIiIWkgjaHAk5wg2pm/Enst7oFQrAQA2VjaYFjINMWExiOgRAbkVf7xS0/i3g4iI6AlyS3KRmJ6IxPOJuFV2S3y8f6f+iA2LxSv9X4Gno6eECaktYfkiIiKLphE0UCgVKKsqQ2lVKcqUZfW2S6tK6z/XyGNVNVXi67nbu+OVfq8gNjwW4Z3DefE86Yzli4iIzJYgCHhU8whlVY2XIu3n4nYjYx4qH0JA61ZnkUGGiT0mIjYsFtNCpsFebm+gPaT2iOWLiIiMpkZT02RxalCiGitTVWWo1lQbJIudtR3c7d3hZu9W+6udW+22XSOP/WdbO97DwQMudi4GyUHE8kVERC12t/wuzt05hxulNxoUp8aOSGlnc28tK5lVg2LUoCQ1UZy0n3MGeTIXLF9ERNSAIAjIV+Tj3J1ztR+Ftb8WPCzQ6/WcbJz0Kk7abWdbZ15bRRaD5YuIqJ0TBAE5JTkNilbdyUK1ZJAh2DMYIZ4h6GDfoUVHnFztXGFjbSPBnhGZJ5YvIqJ2RK1R4+qDq/WKVtqdNJQpyxqMtZZZI9Q7FAN9BmJg54EY6DMQAzoP4EztRK3E8kVEZKGq1dW4dP9SvaKVXpiOyurKBmNtrW3Rv1N/sWQN9BmIfp368a4+IiNg+SIisgBVNVXIuJtRr2hl3M0QZ2Cvy9HGEWGdw+oVrT5efXhqkMhEWL6IiNqYclU5zheer3d9Vua9TKgFdYOxrnau9U4bDvQZiCCPIFhbWUuQnIgAli8iIrNWWlWKtDtp9YrWlaIrjU4a6uno2aBode/QHVYyKwmSE1FTWL6IiMzE/Yr7De44zCnJaXSsr4tvg6Ll5+rH6RiI2gCWLyIiExMEAQUPCxoUrXxFfqPjA9wD6hWtcJ9wdHbubOLURGQoLF9EREYkCAJulN5oULTuVdxrdHyQR1CDotXRoaOJUxORMbF8EREZiEbQIPtBdoOiVVpV2mCslcwKfbz6NJhDy9XO1fTBicikWL6IyCKpNWqo1Cqo1CpUa6r/u62uNvjjSrUS2cXZSC9MR7mqvEEWGysb9OvUr8EcWo42jhL8zhCR1Fi+yOSUNUoUPyoGgHp3bAlCne3/PN7YY215bHPjHh9jTl+nz2tri4pepUbT+kLU2N2ApuAgd6idQ8tnIMI7h2Ogz0CEeofC1tpWkjxEZH5YvsioNIIGVx9cxe/5v+P07dM4XXAa5wvPo1pTLXU0amesZdawtbaFjbUNbK1ta7et6mzr+vhjY/xd/THQZyCCPYMht+K3ViJqGr9DkEEVlhfWK1pnbp9pdM04K5kVZKi9Jb7urfHax5p63JBjn/T1xhrb3Ljmspvz1zU2Rp8C09rHmxvLua6IyFywfJHeylXlOFtwVixav+f/jjxFXoNxDnIHDPYdjKFdhmJol6F4qstT6OrWlfMRERFRu8TyRS1So6nBpfuXxKNav9/+HZn3M6ERNPXGySBDqHconurylFi0Qr1DeRqGiIjoP/gTkRoQBAF5irx6RevsnbOorK5sMNbP1U8sWkO7DMUgn0FwsXORIDUREVHb0OrydfPmTaxbtw4HDx5EXl4e7Ozs0KNHD8ycORPz5s2DoyNvpTZ3pVWlOHP7jFi0Tt8+jbsVdxuMc7F1wZAuQ+qVLV8XXwkSExERtV0yoe594jrav38/Zs+eDYVC0ejzQUFBOHjwIHr27Nni11QoFHBzc0NZWRlcXTnZoKGp1CqcLzxf7zqtKw+uNBgnt5Kjf6f+9U4fBnsG86JlIiKyOKbuHnof+UpLS8NLL72ER48ewdnZGYsXL8bYsWPx6NEj7NixA9988w2uXr2KyZMnIzU1FS4uPBVlaoIg4Frxtdqi9Z+jWmmFaVCpVQ3GBnYIrHdEK7xzOBxsHCRITUREZNn0Ll/z58/Ho0ePIJfLkZSUhOHDh4vPjRs3Dr169cLChQtx9epVxMXFYdmyZYbIS824X3G/XtE6ffs0SqpKGozr6NBRPJqlLVuejp4SJCYiImp/9DrtePr0aTz11FMAgLfeegtfffVVgzEajQZ9+/bF5cuX4e7ujnv37sHGxuaJr83Tji1TWV2JtDtp9YpWbmlug3F21nYI9wmvd/owsEMgp3kgIiL6jzZx2vGHH34Qt2NiYhodY2VlhTlz5mDx4sUoLS3F0aNHERERoVfI9k6tUSOrKKte0bpw9wLUgrrB2BDPkHpHtPp36s9lTYiIiMyIXuXrxIkTAAAnJycMGjSoyXGjR48Wt0+ePMny1UK3FbfrFa3UglQ8VD1sMK6zc+d6RWuI7xC42btJkJiIiIhaSq/ydfnyZQBAz549IZc3/RIhISENvqalDp+Ng5OzvT7x9Kb/fZ+tUyOocbH4Bk7fy8Lp+1dwu6KowRhHuT0Ge/XCU969MdQ7GE95h8DPyav+6cPSMyZMTUREZCEeVpj07XQuX1VVVSgqqi0Hfn5+zY7t0KEDnJycUFFRgby8hsvOAIBSqYRSqRQ/105bEZn0MWDa7mU2rAD0tQWesgeG2tf+2tu2CnJZBlCZAdxA7QcRERG1XsM5xI1K5/L18OF/T385Ozs/cby2fJWXlzf6/IoVK/DRRx81eLyfox2s7Q13UbihLy839OsF2tniKSdHDHV2xCBHBzhZcz4tIiIik7BVA7hksrfT68iXlq3tky/ktrOzAwA8evSo0ecXL16M9957T/xcoVDA398fJ+bf492OREREZHwKBQDTXTOtc/myt//vuUCVquFknY/TnlJ0cGh8wk47OzuxoBERERFZOp3PbdWdqb6pU4l1VVTUXsTWklOURERERJZO5/Jlb28PDw8PAEB+fn6zY0tKSsTy5e/vr0c8IiIiIsui11Xdffr0AQBcu3YNNTU1TY7LysoSt3v37q3PWxERERFZFL3K18iRIwHUnlI8e/Zsk+OOHz8ubo8YMUKftyIiIiKyKHqVr+eff17c3rhxY6NjNBoNNm/eDABwd3fH2LFj9XkrIiIiIouiV/kaOnQoRo0aBQCIj49HSkpKgzFxcXHirPbz589v0aLaRERERJZOJgj6LaqTlpaGESNG4NGjR3B2dsb//d//YezYsXj06BF27NiBr7/+GgAQFBSE1NTUendJNqesrAzu7u7Iy8vjPF9ERERkdNo5RktLS+HmZvz5vvQuXwCwf/9+zJ49W1wS6HFBQUE4ePAgevbs2eLXzMnJQY8ePfSNRERERKSX69evIzAw0Ojv06ryBQA3b97El19+iYMHDyI/Px+2trbo2bMnZsyYgT//+c9wdHTU6fVKS0vRoUMH3Lp1yyTt0xxoG3d7OdrH/bV87W2fub+Wrb3tL9D+9rmsrAxdu3ZFSUkJ3N3djf5+Os9w/7hu3bph9erVWL16tSHywMqq9jI0Nze3dvEHXperq2u72mfur+Vrb/vM/bVs7W1/gfa3z9oOYvT3Mcm7EBEREREAli8iIiIikzK78mVnZ4elS5e2q8W229s+c38tX3vbZ+6vZWtv+wu0v3029f62+oJ7IiIiImo5szvyRURERGTJWL6IiIiITIjli4iIiMiEWL6IiIiITIjli4iIiMiEJC9f9+7dw4EDB7BkyRI888wz8PT0hEwmg0wmw2uvvSZ1PINLTU3Fxx9/jIiICPj5+cHOzg7Ozs4ICgpCTEwMTpw4IXVEg1EoFNixYwf++te/YvTo0ejZsyfc3Nxga2sLb29vjBkzBp9//jkePHggdVSTWLRokfh3WyaT4dixY1JHMoi6+9Tcx5gxY6SOahS3bt3C0qVLMXjwYHh5ecHe3h7+/v4YNWoUlixZgosXL0odsVXGjBnT4j9jS/q7rVKpsGHDBkyaNAk+Pj7i9+rg4GDExMTgt99+kzqiwVVVVeHvf/87xo8fDy8vL9ja2sLX1xfPPvssduzYIXW8FjF0pzh06BCmT58u/rz28/PD9OnTcejQodYFFSQGoMmP6OhoqeMZ1KhRo5rdX+3HnDlzBKVSKXXcVvv1119btL+enp7Czz//LHVco0pLSxPkcnm9/T569KjUsQyiJX/GAITRo0dLHdXg1q1bJzg5OTW73/Pnz5c6ZquMHj26xX/GAAQrKyshPz9f6titcuPGDSE0NPSJ+/rOO+8IGo1G6rgGkZWVJQQHBze7vxEREcLDhw+ljtosQ3UKtVotzJ07t9nXe/311wW1Wq1Xzlav7WhIXbt2RUhICJKSkqSOYhQFBQUAAF9fX8yYMQOjRo1C165doVarkZKSgri4ONy+fRubN29GdXU1tm3bJnHi1vP398fYsWMxaNAg+Pv7w8fHBxqNBvn5+di9ezf27NmDoqIiTJ06FadPn8aAAQOkjmxwGo0Gb775JmpqauDt7Y179+5JHcko3n77bfzpT39q8nknJycTpjG+Tz75BB9++CEAICgoCG+88QaGDBkCNzc3PHjwAGlpadi7d6/J1oozlo0bN6KioqLZMZcuXcJLL70EABg/fjy6dOliimhGUV1djcmTJyMzMxMA0L9/f7z33nsIDg7Gw4cPceLECcTFxaGiogLr16+Hr68v3n//fYlTt869e/cwceJE5OXlAQBmzJiB6Oho+Pr6oqCgAJs2bcKuXbuQlJSEl19+GQcOHJA4ccu0plN88MEHiI+PBwCEh4dj4cKF6NGjB65fv47PP/8caWlp2LBhA7y8vPDZZ5/pHk6vymZAS5YsEfbv3y8UFhYKgiAIubm5Fnvka/LkycJ3330n1NTUNPr8/fv3haCgIHH/jx8/buKEhtXUfta1d+9ecX+nT59uglSmt2bNGgGAEBISIixevNhij3wtXbpU6igmc/jw4XpHqlUqVZNjLeEo9pMsXLhQ/P3YsmWL1HFaZdeuXeK+DB8+vNHvY6mpqYKNjY0AQHB3dxeqq6slSGo48+bNe+K/4yVLlohjdu3aZdqAOjBEp7hy5Yp4pmLw4MFCZWVlvecrKiqEwYMHCwAEuVwuZGdn65xT8vL1OEsuXy2xf//+eoe02wPtoW5PT0+poxjczZs3BWdnZwGAcOzYMWHp0qUsX22cWq0WevXqJQAQBgwY0OZ/8LaWWq0WunTpIgAQnJ2dhYqKCqkjtcpf/vIX8e/0jz/+2OS46dOni+MuXLhgwoSGVVNTI7i5uQkAhG7dujX5n+aamhqha9euAgBh0KBBJk6pP306xdtvvy1+TUpKSqNjUlJSxDF/+tOfdM7Vto+HW6CxY8eK29evX5cwiem4uLgAqL3Y09LMmzcP5eXliI6OxujRo6WOQwaQlJSE7OxsALU3UcjlZnX1hskdOXIEt2/fBgC8+OKLcHR0lDhR66hUKnE7MDCwyXE9evRo9GvamuzsbJSVlQEAJk6cCGtr60bHWVtbY+LEiQCAs2fPIjc312QZTUkQBOzbtw8AEBISgmHDhjU6btiwYQgODgYA7Nu3D4KOKzWyfJkZpVIpbjf1j8CSXLlyBenp6QBq/6Jbkp07d+LAgQPo2LEjvvjiC6njkIHs2rULQO1dnlOmTBEfLy4uRnZ2NoqLi6WKJonNmzeL23PmzJEwiWFof6ACQE5OTpPjtP85lslk6NWrl9FzGUvdu807derU7Ni6zycnJxstk5Ryc3PF67Of9B9m7fO3b9/GjRs3dHofli8zc/z4cXG7d+/eEiYxnsrKSmRnZ2P16tUYPXo0ampqAADvvvuutMEMqLS0FPPnzwcArFq1Cp6enhInMr5du3ahT58+cHR0hIuLC3r16oXo6GgcPXpU6mgGderUKQBAQEAAXFxcsG3bNvTr1w8eHh4ICgqCh4cHgoOD8cUXX9T7z5QlKi8vx969ewEA3bp1s4jpRKKiouDq6gqg9t+uWq1uMCYtLQ0HDx4EAMyaNUsc3xY5OzuL29ojYE2p+/ylS5eMlklKdffrSQcE6j5/+fJlnd6nfR8vNzMajQYrV64UP585c6aEaQwrMTERMTExTT7//vvvY9asWSZMZFwLFy5EYWEhRowYgblz50odxyQe/2Z87do1XLt2DZs3b8bzzz+PxMREuLm5SZTOMDQaDbKysgAAnp6emD9/PtatW9dg3NWrV7FgwQLs3bsXBw8ehLu7u4mTmsb3338v3gk5e/ZsyGQyiRO1nqenJ7Zs2YKoqCicPHkSQ4YMwbvvvougoCCUl5fj5MmTiIuLg0qlwsCBAxEXFyd15Fbp2bMnbGxsUF1djX//+9/Njq37/K1bt4wdTRL5+fnitp+fX7Nj/f39xW3tnaItxSNfZmTNmjU4ffo0AOCFF17AoEGDJE5kfGFhYTh9+jRWrFhhEd+4gdrD8Rs2bIBcLsdXX31lMfvVFEdHR7z88sv45ptvkJycjLS0NCQlJeGDDz6Ah4cHAOCHH37AtGnTUF1dLXHa1ikrK4NGowEAZGRkYN26dfDx8cHWrVtRXFyMyspKHD9+XLxO5LfffkNsbKyUkY3K0k45ak2dOhVnz57F66+/jvT0dERHR2P48OGYOHEili1bBkdHR6xduxbJyclPPFVn7pycnDBu3DgAwIULF7B9+/ZGx23fvh0ZGRni5w8fPjRJPlOru191jwo2pu70OeXl5bq9kc6X6BtZe73b8dixY+Ktrd7e3sLdu3eljmRQJSUlQkZGhpCRkSGcPn1a2L59u3i3UI8ePYT9+/dLHdEglEqlEBISIgAQFixY0OB5S7zbsaSkpMnnCgsLhfDwcHGfv/zyS9MFM4K8vLx6kyw6OjoKWVlZDcZVVlYKAwYMEMedOnVKgrTGlZeXJ1hZWQkAhGHDhkkdx6CUSqWwePFiwcvLq8kJNgcPHizs27dP6qgGkZKSIv78sbGxEZYvXy7cvHlTUKlUws2bN4Xly5cLNjY2gq2trbj/48ePlzp2i+jaKT7++GNx/JEjR5ode+TIEXHs8uXLdcrFI19mIDMzE9OnT0dNTQ3s7e2xa9cueHt7Sx3LoNzd3dG3b1/07dsXQ4YMwcsvv4w9e/Zg8+bNyMnJwbRp05CYmCh1zFb77LPPkJWVha5du2Lp0qVSxzGJ5k6pderUCbt374aNjQ0AYP369SZKZRz29vb1Pn/99dfrXaCt5eDggE8//VT8/LvvvjN6NlPbunWreBQwOjpa4jSGU1FRgQkTJmDFihUoLi7GwoULcfnyZSiVSpSVlSEpKQkjR45Eamoqnn/+eaxevVrqyK02bNgw/POf/4RcLkd1dTU+/PBDdOvWDba2tujWrRs+/PBDyOXyevuqvUvd0tT9N/6ku1jrXtPp4OCg0/uwfEksNzcXERERKCkpgbW1NXbs2IGnn35a6lgm8+qrr2LGjBnQaDT485//3KbvFMvKysKKFSsA1JYMS5vRXV+BgYHiLerXrl0T7yRqix7/gRMREdHk2PHjx4vTUJw5c8aouaSwZcsWAICdnZ04u70lWLZsmXgnX3x8PFatWoWQkBDY2trC1dUVEydOxNGjRzF27FgIgoAFCxbg/PnzEqduvdjYWPz++++YPn16ve9dcrkcU6dOxblz5zB48GDx8Q4dOkgR0+jq/ht/0qnEuis/POkU5eN4wb2ECgoKMGHCBBQUFEAmkyEhIQHTpk2TOpbJTZs2DTt37kRFRQV+/vnnNnvh/Zo1a6BSqRAYGIjKyspGF6Ktu8jyv/71LxQWFgIAnnvuOYsua3369MFPP/0EoPa2bF9fX4kT6cfOzg5eXl64f/8+gPoX3D7O3t4enp6eKCwsFMdbitTUVPEGiylTpljMD2JBEJCQkACgdsmopo7oyeVyLF++HCNHjoRGo0FiYiLWrFljyqhGMXDgQOzZswc1NTW4c+cOVCoVunTpIh4N2rp1qzg2NDRUqphGVfci+7oX3zem7kX2zX0vaAzLl0SKioowceJEcR6Z9evXW9QFq7rw8vISt2/evClhktbRHoLOyclBVFTUE8cvX75c3M7NzbXo8mVJNx2Ehobi2LFjANDoNAR1aZ+3tIlY615ob0mnHO/evSsefQ8PD292bN0borR3wFoKuVzeaJk4e/asuD106FBTRjKZPn36iNtP+nOt+7yuU0PxtKMEysrKMGnSJPF/jitXrsS8efMkTiUd7ezYgO6HbqltqDsNRVs96qVV97KA5ibhVCgUKCoqAoA2vdD046qrq8Wjul5eXnjmmWckTmQ4dUuydv7BptS9c9fSynVj1Go19uzZA6D2KM///M//SJzIOLp37y5+j6o772ZjtFNvdOnSBQEBATq9D8uXiVVWVmLy5Mk4d+4cgNqV0xctWiRxKmlpZwwHgH79+kmYpHUSExMh1K6X2uRH3Yvwjx49Kj6u6z/ctiQ3Nxe//vorgNolWdp6EYmMjBS3tROMNmbv3r3ikiOjRo0yei5TOXTokHgaddasWRZVPDp27ChOmJqSktJsAav7g7l79+5Gzya1+Ph4cW6vt956y2JXYJHJZOLlP1lZWeKkyo87deqUeORr2rRpuh/d1+neSBOw5KkmlEqlEBERIe7f/PnzpY5kVBs3bhQePXrU7JjVq1eLvx/du3dvclFXS2FpU038+OOPzS4s/fhUE3FxcSZMZzzPPPOMAECwsrISDh8+3OD5O3fuCH5+fgIAwdbWVsjPz5cgpXFERkaKf55nz56VOo7BRUVFifu3bNmyRscUFxcLffr0Ecf98ssvJk5peM39HT1y5Ijg4OAgABCCgoKe+H3dnOjTKa5cuSJYW1uLU4pUVlbWe76yslIYPHiwAECQy+XC1atXdc4l+X9ZTpw4gWvXromfaw/TA7V3Rj0+/cBrr71momSGFxUVhaSkJADAuHHjMHfu3HoXYD/O1tYWQUFBpopncMuWLcNf//pXREZGYuTIkejRowecnZ3x8OFDZGRk4Ntvv8XJkycB1O7r119/bbH/m7JU77zzDqqrqxEZGYnhw4cjICAADg4OKCoqwrFjx/DPf/5T/Dc9cuRIizm9vnbtWqSkpKC0tBRTpkzBu+++i2effRYODg7ipMHai3WXL1/e5o/2aZWUlODAgQMAgL59+2LgwIESJzK8JUuWYN++faisrMSyZctw9uxZREdHIzAwEFVVVTh16hTWrl0rHgUaP358s3e9thV9+/bF6NGjMXnyZISGhsLOzg63bt3C3r178e2330Kj0aBjx47YuXNngylXzIkhOkVQUBAWLFiAlStXIjU1FSNGjMCiRYvQo0cPXL9+HatWrUJaWhoAYMGCBfqt7alzXTOw6OjoJiexa+yjLdNlPwEI3bp1kzpyq3Tr1q1F++nn5yckJSVJHdckLO3IV0v/jCMjI5udjLUtSk5OFjp16tTkPstkMuFvf/ub1DEN6h//+Ie4f59//rnUcYzm119/FTw9PZ/493rcuHFCcXGx1HENwsnJqdl9DQ0NFdLT06WO+USG6hRqtVqIjY1t9mvnzp0rqNVqvXJKfuSLLNcvv/yCgwcP4uTJk7h27Rru3r2LBw8ewMHBAd7e3ggLC8OUKVMwc+ZMODo6Sh2X9LBp0yYcP34cKSkpyMnJQVFRERQKBZydncWLcrVLs1iakSNHIjMzE+vXr8cPP/yA3NxcqFQq+Pj4YMyYMXjnnXeeeMdcW6Od28va2hqvvPKKxGmMZ8KECcjKykJ8fDwOHTqEzMxMlJaWQi6Xo3PnzhgyZAhmzZqFqVOnWsydvBs2bEBSUhJOnz6NO3fuoLy8HF5eXujfvz9mzJiB2bNni5MltwdWVlaIj49HZGQkvv76a5w5cwZFRUXw9PTEkCFD8NZbb7XqZhOZIPznilAiIiIiMjre7UhERERkQixfRERERCbE8kVERERkQixfRERERCbE8kVERERkQixfRERERCbE8kVERERkQixfRERERCbE8kVERERkQixfRERERCbE8kVERERkQixfRERERCbE8kVERERkQixfRERERCb0/wHi8iqarbzmXAAAAABJRU5ErkJggg==;base64,iVBORw0KGgoAAAANSUhEUgAAA3gAAAIFCAYAAACApV/lAAAAOXRFWHRTb2Z0d2FyZQBNYXRwbG90bGliIHZlcnNpb24zLjcuMSwgaHR0cHM6Ly9tYXRwbG90bGliLm9yZy/bCgiHAAAACXBIWXMAAA9hAAAPYQGoP6dpAADEWElEQVR4nOzdd1hT1/8H8HfYG2QLIm5x7y3iqLits2rdVK3f1qqtrVat82ur1lpbW7VareCoW6vWUfdeOKuICooLUUGBALJC7u8PfrnfRBJISCAB36/nyfPccM895wTI+OSc8zkSQRAEEBERERERUYlnZuwOEBERERERkWEwwCMiIiIiIiolGOARERERERGVEgzwiIiIiIiISgkGeERERERERKUEAzwiIiIiIqJSggEeERERERFRKcEAj4iIiIiIqJRggEdERERERFRKMMAjIjIRs2fPhkQigUQiwYgRI4q9/QoVKojtnzhxotjbJ6LSIz4+HnPmzEGLFi3g6uoKCwsLo76+Eb1LGODRO2fEiBHim0zbtm11vj46Ohq//PILevbsiVq1asHT0xOWlpZwdXVF1apV0adPH3z//feIjo7Ot56HDx+K/VDcgoODte7HiRMnVK5NTU01ajvFRTkIMtStQoUKRn1MZBrefq4wyKWidvHiRfH/7csvv8xzfvHixeL5w4cPG6GHhfPvv/+idu3amD17Ni5cuIDExETk5OToXa++799E7woLY3eAqKS4d+8eZsyYgW3btkEQhDznExMTkZiYiOjoaOzatQtTpkxB69atMWfOHLRv316rNg4fPoxTp06hTZs2hu6+UdohIiLNTp8+LR6rez0+efIkAMDCwgItW7Ystn7pQxAEDBkyBC9fvgQASCQS1K5dG97e3jAzyx1XqFOnjjG7SFTqMcAj0sL69esxatQoZGVlqfzcxcUFfn5+cHd3h1QqxfPnzxEbGyueP3PmDDp06ICFCxdi8uTJWrU1ffp0lTf9olJc7RhalSpV0KlTp3zLREdH4/79++L9gsp7eXkZpG9ERLpQvAabmZkhMDBQ5ZxcLhfPN2jQAPb29sXev8IIDw/HzZs3AeQ+rhMnTuR5bERUtBjgERVg4cKF+Prrr8X75ubmCAkJQUhICJo2bSp+I6nw6NEj7NmzB0uXLhWnaT579kzr9s6cOYODBw+ic+fOhnkARm7H0IYMGYIhQ4bkW2b27NmYM2eOeP/gwYNF3S2DmD17NmbPnm209h8+fGi0toneNYIg4MyZMwCA2rVro0yZMirn//33XyQlJQFAiQqQrly5Ih4HBgaWqL4TlRZcg0eUj4MHD2Lq1KnifV9fX1y+fBmrVq1C8+bN8wR3AODv74/PPvsMkZGRWLZsGezs7LRqq2rVquLxN998o3/njdwOERFpFhERgdevXwPIf3qmpvOmSvGYAMDPz8+IPSF6dzHAI9IgMTERQ4cOFdfbubu74+zZs6hfv75W11tYWOCTTz7B+fPnUbly5QLLz5w5ExKJBEDuN6C7du0qdN9NoR0iItJMeYp8UFBQnvOKAE8ikaB169bF1i99ZWdni8fm5uZG7AnRu4sBHpEGK1asQEJCgnh/+fLl8Pf317meunXr4rPPPiuwXP369dG/f3/x/owZMyCXy3Vuz9jt3L59G1999RWaN28Od3d3WFlZwdbWFl5eXmjatClGjRqF0NBQlW95jUU5Q6hyJs3IyEhMmTIF9evXh4eHB8zMzNRm2kxPT8eePXswYcIEBAYGwtvbG9bW1rC3t0f58uXRvXt3LF26VOvMo9puk6Cc6VExrVIqlWLp0qVo2bIlvLy8YGNjAz8/PwwcOBDHjh3Tqn1ttkkIDQ1Vm8UuIiIC48aNQ40aNeDg4AAnJyfUrVsXkydPxvPnz7VqX+HVq1eYN28eGjduDFdXV9jb26N69eoYOXIkLly4IJZr27at2JfQ0FCd2ihOiYmJWLJkCTp06IBy5crBxsYGbm5uqFOnDiZMmIBLly7pVN+lS5cwbtw4NGzYUEw/b2dnBx8fH7Rq1Qqffvoptm7dirS0tHzrKY7n6u3bt1X+X6OiorS+dtu2beJ1zs7OyMjIUFvuyJEjCAkJQe3ateHi4gILCwvY29vDz88Pbdu2xRdffIG9e/ciMzOz0I+jKOSXYEUQBJw6dQoAUKNGDbi5uRV5f/bs2YPhw4ejatWqcHJygr29PSpWrIi+ffti3bp1kMlkGq9Vfu1Snh4fFhaWJ2uxKWW/lMvlOHPmDGbNmoVOnTrB398f9vb2sLa2RtmyZREYGIgZM2bg8ePH+dZz+PBh8fHZ2toiMTFR6z5899134rW1atUqsPyRI0fwySefoE6dOnB3d4e1tTV8fX3RsWNHLF26tMDnPaD5dTw8PByffvopateuDVdXV41/r5SUFKxYsQLdunWDn58f7OzsYGlpCRcXF9SsWRO9evXC/PnzxbWYZAQC0Ttm+PDhAgABgBAUFKS2TFZWluDt7S2Wq1u3rsH7ERMTI9YPQLh586YQGRkpmJubiz/bsGGDxuuPHz+ucn1KSopR25HL5cJXX30lmJmZqZTXdKtRo4ZuvzAdzJo1S6UtTZQfm7+/vyAIgjB//nzBwsIiT38V5xX+/PNPwdHRUavH6urqKuzZs0enfg8fPlxjOeW6Y2JihPDwcKFChQr59mHcuHGCXC7Pt31/f3+x/PHjx9WWWbt2bZ7nz4IFC9T+zhQ3R0dH4ejRowU+fkEQhP379wseHh75PpZJkyYJMplMCAoKEn+2du1arerPz9vPFU2/A11s2LBBcHNzK/B/ZPDgwUJqamq+dWVkZAjDhg3T6n8OgNClSxe19RT3c7V+/fpiXbNnz9b6uvfff1+8buTIkXnOJyYmCp06ddL69/Gf//xHr8dRWO+//77am7OzswBAsLS0zHOuc+fOYr/Lli2b5/zo0aMN1r/79+8LLVu2LPD3FxAQIFy4cEFtHW+/5uZ30/S+qw1t3r+1FRkZKfj6+mrVZ0tLS2HOnDka65LL5UKlSpXE8r/88otWfZDL5ULlypXF6xYvXqyxbHR0tNCuXbsC+1q2bFnh4MGD+bb79ut4VlaWMHHiRK3+XkePHhXKli2r9d/74sWLWv0uyLCYZIVIjfDwcJVRh1GjRhVLuwEBARgyZAjCwsIA5H4rOmDAAFhYGPapWhTtTJ8+HYsWLRLvSyQSVK1aFT4+PjAzM0NiYiKioqLE0ayiGJ3U16JFi8Q1l9bW1qhduzYcHR3x5MmTPHs43b9/HykpKeJ9T09PVKhQAY6OjkhPT8e9e/fEEeDXr1+jV69e+Ouvv9CjRw+D9vn27dsYOHAgUlJSxG+APTw8EB8fj4iICHGK8a+//gp/f3+1e23p47///S9mzpwJAHB0dETNmjVhY2ODO3fu4MWLFwByv+3t2bMnIiIi8h0FP3r0KHr37q0y0uLm5oYaNWpAJpMhMjISycnJWLx4sdr1r6Zm6dKlmDBhgsrP/Pz8UKlSJUilUty8eVMcFdm4cSMePHiAf/75B46OjmrrGzlyJDZt2iTet7CwQPXq1eHp6QlBEPD69Wvcu3dPHOnS9Bwr7ufq4MGDcf36dQDAn3/+iVmzZhV4TWJiIg4cOKBShzK5XI4ePXqISUoAwMbGBgEBAXBzc0N2djYSEhIQFRUlThk01mvO7t278z2fnZ2db5m4uLg85wszm0Sdu3fvon379iqJwBwcHFCzZk1YWVkhMjISr169AgDcuXMHHTp0wN9//51nVEc5u7FyFmMfH588WyLUrVvXIH3XV0JCgkrWa0dHR1SpUgUuLi7IycnB48ePxRkS2dnZmDVrFlJSUlSeOwoSiQSjRo3CtGnTAABr1qzBuHHjCuzDiRMnxN+VlZUVhg0bprbc1atX0aVLF3HrCQBwcnJCjRo1YGdnh6dPn4qj43FxcejRowe2bNmC3r17a/W7mDhxIpYvXw7gf39/GxsbxMTEqJT7999/0a1bN5XRdA8PD1StWhV2dnZITU3FkydPVH6vpvhe/04wdoRJVNy0+QZwwYIFKt9A3bp1y+D9UDeyJgiC8ODBA8HS0lL8+apVq9Rer88InqHbiYuLU6lr9OjRQlxcXJ5ycrlcuHbtmjB9+nShdevWWv2eCqMwI3i2traChYWFYGFhIcybNy/P44yOjla5P2/ePKFVq1bCqlWrhNjYWLX1nz59WmjWrJnYhru7uyCVSrXqt7YjeIrRoY8++kh49uyZSrnIyEihTp06Yll7e3shOTlZY726juC5uroKEolEcHFxEdauXStkZWWJ5eRyuRAaGipYWVmJ5YcMGaKx7aSkJJVvhV1cXIR169YJ2dnZYpnMzExh+fLlgp2dnSCRSFRGxkxtBO/8+fMqo+RVq1YVTpw4oVLm5cuXQkhIiEqbISEhauu7fPmySrlvvvlGSExMzFNOJpMJZ8+eFcaPHy/0798/z3ljPFefPn2qMloYHh5e4DWrVq0Sy/v4+Ag5OTkq57dv3y6et7KyEn766SchLS0tTz2ZmZnC4cOHhZEjRwoTJkzQ63EUlvLfzVC3t2cUFEZWVpbK6KqVlZWwcOFCld9jdna2EBYWJo42AhC8vLyE+Ph4jfVq+zpWGIYcwTt9+rRQqVIl4bvvvhMiIiLUznCIjo5WGTWXSCTC2bNn1dYXFxenMpPh8uXLBfZh8ODBYnl1z1dBEISEhASVkcbq1asLe/bsEWQymUq5yMhI4b333hPLOTs7Cw8fPlRbp/LruGImioODg7BixQohIyNDpez9+/fF4+7du4vX1ahRQzhz5oza+l+8eCGsWbNGaNasmXD+/PkCfw9keAzw6J2jzRtEv379VD4Uv/3hwhA0BV6CIAj/+c9/xJ/7+fnlecEVBP0DPEO2s27dOvG8th8G335zMqTCBHiKW37TVZUVNJ1OIT09XWjevLlY/6+//qpVv7UN8AAIX3/9tcayjx8/Fuzs7MSya9as0VhW1wBPERhfu3ZNY52LFy9WKavp9zZt2jSxnIWFhcYPUYIgCH///Xee34GpBXgNGjRQ+TD+/PlzjWU//fRTlXbVTYObO3eueD6/QFmZuueYsZ6rylPLJk6cWGB55em3X3zxRZ7zyoHxN998o1UfivI1R1cjRowQ+3/v3r085318fAQg94uBovLzzz+r/N9t2rRJY9mzZ8+qfFkzduxYjWVLSoD35s0brd/blacv9uvXT2O5vn37iuUKmhKcmJgo2NjYiOX/+ecfteWUA8wmTZrk+yVhdna20KVLF7G8pi+M3n4dNzc3F06ePJlvf7OzswVra2sx0FX3f6uOKT3v3iWmP8eFyAji4+PFY19f32KfDvbNN9/AxsYGAPDkyROsXLnSpNt5+vSpeNyqVSutrjHF7GrdunXLMxVME203HbaxscG3334r3i9oupauqlWrhv/+978az/v5+aFfv37i/bNnzxq0/alTp+abWfbjjz+Gra0tgNykNFevXs1TRiaT4Y8//hDv/+c//0HLli011tmtWzcMGDCg8J0uYufPn8e1a9fE+0uXLoWXl5fG8j/88IPKlLtff/01TxlDPceM9VxV3rtyy5Yt+U7bevr0qUoCEnXPyZL+mqN4fN7e3ipb1wBATEyMOGWyqLJnCoIgTskDgN69e2PgwIEay7ds2RITJ04U769fvx7JyclF0rfiYmtrq/V7+3//+1/xdWz//v0aE86MGTNGPP7zzz+Rnp6usc6NGzeKUx39/f3x3nvv5Snz9OlT/PnnnwByp3Bu2rRJ4xRuIHfa9qpVq2BpaSn2QZu/09ixYwvciiM+Pl6cPu/p6Znn/1YTU3revUsY4BGpoVhzAADOzs7F3r6Pjw8++eQT8f53332HN2/emGw7iiARyJ2jX1IpvzkbUrNmzcTjy5cvG7TukJCQAtdOKn9IvHPnjkHbHz16dL7n7e3t0aBBg3zbv3btmsqa148//rjAdseOHatDL4vXX3/9JR5XrFgRPXv2zLe8jY2NyuPZs2dPngDIUM8xYz1X+/btC2trawC5a4Tyy+y6adMm8fHXqFEDDRs2zFOmJL/mxMXFieuu1G0CrvwljLbBq67u3LmDu3fvivffXiuqzvjx48WAKC0tDUeOHCmSvpkiBwcHMcPlmzdvEBERobZcx44dUbFiRQBAcnIytm/frrHONWvWiMchISFqg83NmzeLwWT37t212nKpXLly4rYbGRkZOHfuXIHXaPPep/yce/nypc7Zkal4McAjUkM5yYOVlZVR+vD111/DwcEBAPDixQssXbrUZNtp1KiReHzgwAFMmzatRH67W9hvy2NiYrB69WqMHz8egwYNQvfu3dG5c2fx1rdvX7FsYmKiQYP1Fi1aFFjG19dXPE5KSjJY2xUrVoS3t7fe7YeHh4vHHh4eWqUKb9Wqlfgttam5ePGieNy5c2etrunevbt4LJVK8wTCys+xlStX4qeffsp3dEATYz1XnZ2dVR7jxo0bNZZVPqdpRF35ccyZMwcbNmzIN42/KVFsfwCoD/CUE8cUVYCn/D9qb2+vth9v8/X1VfmyRrmOki4pKQlbtmzB119/jSFDhqBnz54qr+GdO3cWg3IAKklElCmSrSgoB3HKrl27Jo7ym5mZISQkRG055ZHs9u3ba/14ateuLR6rmzWhzNnZOU8iHHXKlCkjBq+CIKBXr17cBsGEMYsmkRouLi7isVQqNUofPDw8MHHiRMybNw9AbobHTz75BE5OTibXTmBgIBo2bCi+kcyfP1/c96t9+/Zo3bo1GjVqZNJTNVxcXODq6qrTNXfu3MGECRNw+PBhMVulNpKTk2FnZ6drF9XSJsBSbsuQwaU2bWvTvvIeUwEBAVrVaWlpicqVKxt8RNIQoqOjxWNtPjgBuY/bwsJCDFKio6NRs2ZN8Xy/fv0wbdo0xMbGQi6X4/PPP8esWbMQHByMtm3bIjAwEHXq1IFEIsm3HWM+VwcPHowdO3YAAHbu3IkVK1aojAoAuVlhb9y4Id7/8MMP1db10UcfYdGiRUhNTcWbN28wdOhQfP755+jSpQuCgoIQGBiIatWqGfwxGEJ++98B/xvBc3d31/r5oCvl/9FatWppPVWxTp06uHLlSp46SqrExERMnToVoaGhOu2TmN+XIiEhIZg1axZkMhlOnjyJ6OhoVKlSRaXM6tWrxeNOnTqhXLlyauu6deuWeLxmzRrs3btXq/4p/22U9/NVp2LFigW+bihMnDhRHO29ePEi6tati3r16iE4OBht2rRBq1atUKZMGa3qoqLFETwiNZQ/6OuyYamhffnll+KL5evXr7F48WKTbEcikWDHjh2oUaOG+LOMjAzs27cPkyZNQrNmzeDq6or+/ftj3759Bu27oeS3rkGdU6dOoVGjRjh06JBOwR0Ag264rOsIs659NWTbmtpXHtVT/nKlIMaYPq0N5cej7QbVFhYWKo/97dcdOzs77N27Fz4+PuLPpFIptm/fjnHjxqFevXrw9PTEiBEjVAKItxnzudq1a1fxMUqlUvz99995yiiP3rVs2VIcMXibr68vduzYofI/kJCQgPXr12PUqFGoXr06/Pz8MG7cOJWA0RQo/j7qRk6SkpLE6X/5rUPVV2H+R4HcoFPBmO+NhhAXF4dmzZph5cqVOr8m51fe29tbZVr226N4GRkZ4ro6IP9tmJSXi1y7dg3//POPVjfl0caCRuh1ee/77LPPVJZ1AMCNGzewaNEi9OjRA+7u7mjWrBmWLFlSImfxlCYM8IjUqFSpkngcGxtr0GltunB2dlbZt2zJkiUqL/im1E6FChVw7do1LF26VO0+R4oPo927d0eLFi3y7K9jbLok0pFKpejfv784GuXo6IgJEyZg3759iIqKQkpKCmQyGYTcTMUGDarof0x1L7zCTvFWLqvuA2SDBg0QGRmJefPm5RkRAHIDnLCwMLRp0wbdu3fX+M29sZ6r1tbW6N+/v3hf+UOugvI+fwUlPAoODsbdu3cxefJklcBX4enTp1i2bBkaNGiAkSNHFsk65vxUqFABEokkz02xZjA5ORnm5uYq58qUKSO+XuzZs0ft9YZQVP+jJUlISIi4d5yZmRk++OADbNq0Cbdu3UJiYiIyMzNVXsMV69q0obymLSwsTGX68Pbt28XPFF5eXvnujZqWlqbjo8qroH3odHkdlUgkWLZsGU6ePInevXuL62qV27p06RK++OILVKxYUe1znIqHab47EhmZ8losQRBw6dIlo/VlwoQJ8PT0BJC7YfSCBQtMth1ra2t89tlnuHHjBmJjY7FhwwaMHj06z8LwCxcuoF27diX2G+A//vhD3HC2TJkyuHLlCn766Sd07doVVapUgYODg8oUN+UN0Skv5VEYXb71NdX/H+XHo8vfXrmsppFMJycnTJ8+HVFRUbh//z7WrFmDYcOGqaxzBIB9+/ahc+fOGtelGeu5qhy07d+/X+XLs3PnzonBpKWlpVaZUr28vLBw4ULExsYiIiICy5YtwwcffKAy0iQIAkJDQzFo0CCDPIbSoCj/R0uC69ev4+DBg+L9LVu2YMuWLRg4cCBq1aoFFxeXPIGvLr+n4OBgVKhQAUDuSOH+/fvFc8ojesOGDct3LbHy32nbtm0qAae2t9DQUK37ra02bdpg586dSEpKwpEjRzBjxgy0adNGJeFXYmIiBg8ejJ07dxq8fSoYAzwiNYKCglS+Kd2yZYvR+mJvb4+pU6eK95ctW4a4uDiTb8fHxweDBw/GqlWrEB0djWvXrqFPnz7i+UePHqlNB18SHD58WDyeMGFCgemiNS3Ip1zly5cXj7VdU5ednY0HDx4UVZf04uHhIR5rO/oVHx+v8gFSuQ5NKlWqhJCQEISFheHJkyc4ffq0yijDlStXVEbENCnO52qbNm3g5+cHIHcESLEmD1Ad0evUqZNOUwcBoGbNmvjkk0+wZcsWPH/+HPv371cZodyzZ0++01cNLSgoCJ06dVK5Ka+1UndesSbR1tY2zznFzRAK8z8KQGXqnzb/o6ZK+TW8bdu2KlvJaKLL67hEIlHJMKwI6u7fv4+TJ0+KP89veiYAle1VFF8qmhIbGxt06NABc+fOxcmTJ/HixQssXLhQZd31V199ZcQevrsY4BGp4evriy5duoj3t2zZUuBC5aL0n//8R/xgkJ6errKvWklpp379+ti+fTvatWsn/uzQoUMGq784KScFady4cYHlz58/X5TdKfGUf4cvX77E7du3C7zm/PnzyMrKKspuFZpyWn9tR/+VMxJKJBKVbIXakEgkaN26NQ4ePKiSmKMwz7GifK5KJBKVkTTFmjuZTIatW7eKP9d2P0pNzM3N0aVLFxw9elRlNK84X3PCwsJw8OBBlZti+r+DgwOOHj2qcm779u3Izs4GkBv8vX2t4mYIyv+jDx8+1Cp4yMnJUdnmRd32FSWFrq/hMTExePHihU5tKG9hs3//fsTFxWHNmjXiFFxtEgE1b95cPL5w4YJO7RuDq6srJk+ejGXLlok/e/DggcoXA1Q8GOCVAKdOnUKPHj3g4+MDiUSisseSNh4+fKh2Hn9JeLEwJuVvndLS0jBu3LhC16WY519Y1tbWmDFjhnj/999/x6NHj/Sq0xjtSCQSlcXnur5hmgrFhzBtFcUUmdKkUaNGKt9Ur1q1qsBrVq5cWZRd0otyyvnDhw9r9eXQhg0bxOPatWsXevqbjY2NyihPYZ9jRflcVQ7eTp48idjYWBw6dAjx8fEAcoOfgvYO1Ja7u7vKVgPGfM3JzMwUA/kWLVrkyVR67tw55OTkAFCfXdOQmjZtKk5BFARBq1kqhw8fVgkEtdlawVQVx2u4t7e3uL5OJpNhzZo1CAsLE88XNHoHQOW5vHv37hKTuKRXr14q90vqe31JxgCvBEhLS0O9evVUvhEpjCNHjiAuLk68Ke8jRHm1bdsWAwcOFO9v2bIFs2fP1qmO9PR0DBs2TO+/HZD7baDi29+srKwiG8UrTDu6JBFRnoam67YEpqJs2bLisfKmxOps27ZNZd8rysvCwgIjR44U7y9fvjzfL6AOHjyo1dRDYxk4cKA4RSkrK6vA143w8HBs27ZNvP/RRx/lKWOo55gpPFfr1q0rZo+Uy+XYvHmzyvTM3r17F7iNiCk8Dl1dvHhRTEyiLoAraPsEQ3J2dlbZn3P+/Pn5bgkkk8kwbdo08X79+vVL9AieLq/hMTExhc5grZxs5dtvv8WzZ88A5P7+tZkW2qdPH/j7+wPITX40adKkQvXDEAr7nANK7nt9ScYArwTo0qUL5s2bh969e6s9n5mZiS+//BK+vr6wt7dHs2bNcOLEiTzl3Nzc4O3tLd5MdZNgU7Jq1SqVKRRz5szBgAEDChzVksvlCAsLQ0BAANavX2+QvlhYWKh8UNR3VNCQ7Xz++eeYNm0anjx5km+5mJgYLF++XLxf1B9iioryOqdff/1V42av//zzD0aMGFFMvSrZpkyZIo7iZWdno2vXrti4caM4ogHkBksrV64UP5ia6ocGFxcXlVTiy5Yt0/glz71799CnTx8x052Pj49KsKswaNAgLFy4UBzl0uTKlSvYvHmzeP/t55ipPFeVR/HWrl2rMjNlyJAhBV7foUMHrFixosB9Svft26fyfqjpcShnvGzbtm2B7ReG8tordaNfii+CbG1t0aRJkyLpg7LJkyeLUwjj4uLQp08ftb/PrKwsjBw5UtyYGwC++eabIu9fUVJ+DT9//rzKyJqymJgYdOrUqdDZLJWTrWRkZIg/HzRokFZ7oVpYWGDhwoXi/TVr1mDs2LEFZoRNS0tDaGgoOnToUKh+q3Pq1Cl0794dJ06cyDfYy8nJwddffy3e9/b2Ntk9KUszbnReCowbNw63b9/G5s2b4ePjg127dqFz5864efOmSvKHnj17IiMjA9WqVcPkyZMNNgWmNHN0dMTRo0fRrVs3MbX11q1b8ddff6FDhw7o2LEjKlasCDc3N0ilUsTFxeHcuXPYt29fkSyIHjx4MBYsWKDVGqXibCcpKQk///wzFixYgJYtWyIoKAj16tWDh4cHLC0t8fz5c5w6dQqhoaHiN3tOTk4YP358UT6MIjNmzBh8//33SE9PR0pKClq2bIn//Oc/aNeuHezt7fH48WPs2rVLzB42atQolY1tKS8XFxesW7cOPXr0QFZWFhITEzFkyBBMnDgRAQEBkMvluH37tph1cdKkSbh8+bL4obkwe/IVJDg4WKcU4kOHDsXvv/8OAJg7dy72798vPofGjRuHXbt2YciQIahYsSKkUimOHTuGVatWiR/WzMzMsGbNGjg5OeWp+/nz5/j666/xzTffoF27dmjdujVq164NNzc3SCQSxMbG4vDhw9i4caO4NrF8+fIYOnSoSj2m8lwdNGgQpk6dCkEQxH3fgNykEtp8KH3w4AE++eQTfPHFFwgODkaLFi1Qo0YNuLq6IicnBw8fPsT+/fuxY8cOMXhu3LixwZKUFIby/2qzZs1UzmVlZYnrNZs1a1Yk/89vq1+/PmbMmIFZs2YBAI4ePYpatWph7NixaNy4MSwtLXHz5k2sXLkSkZGR4nWDBg1SGf0zllOnTolJabR19+5d+Pv7i//3ij0SR44ciUOHDqFPnz7w8vJCQkICjhw5grVr1+LNmzeoW7cubGxsdM6obWZmhlGjRuUJiLWZnqkwYMAAXLx4EUuWLAGQOz19x44d+PDDD9GyZUvxi7HExETcuXMHFy9exOHDh/HmzRuVqe/6EgQB+/btw759++Dn54cuXbqgcePG8PPzg6OjI1JSUnDz5k2EhYWpPKenTp1qslvalGoClSgAhF27don3Hz16JJibmwuxsbEq5Tp06CBMnTpVEARBiI+PFxYvXixcuHBBuHTpkjBlyhRBIpEIu3fvLs6um4zhw4cLAAQAQlBQkFbXSKVSYdiwYYKZmZl4rba3jh07ChEREXnqjImJUSl38+ZNrfqyfft2te2kpKSoLV8c7Sj/TrW52dvbC4cOHdKqH4Uxa9YslfY0OX78uFjG399fpzbWrVsnSCSSAh9rYGCgkJ6ervKzmJiYAvs9fPhwjW1rU1dhHqe/v79Y7vjx42rLrF27Vufnj/L/x6xZs/It+/fffwvu7u75/k4nTJggZGdnC82aNRN/9vfff2vVl/y8/VzR9fb23+zZs2dC7dq1tbrW0tJS2LRpk8a+BQUF6dQXT09P4dq1a3nqMaXnaps2bdT+bbWh/L+qza1q1arCo0ePtKpP2/9rXWRlZQl2dnYCAKFVq1Z5zp8+fVpsf+bMmQZvPz+TJk3S+vfYp08fITMzM9/6tH0dKwxd/3/fvim/Xt66dUtwdnYu8BpfX1/h7t27Ks/BtWvXat3nZ8+eCRYWFuK19evXL9RjnzdvnlbvOco3Ly8vtXUV5nVc+X1E29vYsWMFuVxeqMdL+mFIXcLdvHkTOTk5qFatGhwcHMTbyZMnxaxF7u7u+OKLL9CsWTM0adIECxYswJAhQ7Bo0SIj977kcHR0RFhYGG7cuIEhQ4aoZGVTx8nJCcOHD8epU6dw6NAh1KxZ02B96dOnT7GsfdClnTFjxiAkJEQlBbg6NjY2+PDDD3Hr1i107NjREN00mqFDh2L37t2oWLGi2vNlypTB9OnTcezYMZ2/ZX6XdevWDZGRkZgzZw4aNGgAFxcX2NnZoUqVKhg6dChOnz6Nn376CRYWFiqj5AU9J42hbNmyuHjxImbNmoUyZcqoLWNmZoYuXbrg6tWrKmt+3zZlyhQMGjSowNT0jo6OGDt2LG7duoX69evnOW9Kz1V1mTK1zZ45f/589OrVS2WfMHXc3d3x9ddf4+rVqyrbcRS3y5cviyO1xl5/97YffvgB+/fvV/v/olChQgWEhoZi+/btxTK6WBxq1aqFCxcuqOx7q0yxF+P169f1mmLo7e2tMpKmy+idsunTp+P69evo169fng3G3xYQEIApU6aoXa5TWHXq1MHs2bPRuHHjPAmC3tawYUPs3LkTK1asUNlyioqPRBB0WDVJRieRSLBr1y4xQ9GWLVswePBgRERE5HnCOTg4wNvbW209y5Ytw7x584pkP7V3gVwux7Vr1xAdHY34+HgkJyfDwcEB7u7uqFu3LmrVqvXOTkl4/Pgxbt68iUePHiEpKQkSiQTOzs6oXr06mjRponb6WUkmk8lw/vx53LhxA1KpFO7u7qhQoQLatm1baj4ImaKEhAQx2DEzM4NUKoW9vb2Re6WZTCbDuXPncOfOHbx69Qp2dnbw9fVFUFCQzvuJRUVF4fbt23j8+DFSUlJgZmaGMmXKoGbNmmjcuDFsbW21qqc0PFcVU3fv3r2Lp0+fIiUlBVZWVnBzc0OdOnXQoEEDrjfXwf3793H+/Hm8ePECOTk58PDwQMOGDVGvXj1jd61IRURE4Ny5c0hISICjo6P43DTEOt+TJ0+K6zptbW3x7NkzvTeJT09Px9mzZxETE4NXr14ByE3cUqlSJdSpUwc+Pj569jp/qampuH79uvgZKDMzEw4ODvD19UXjxo01fvFJxYcBXgnzdoB37949VK9eHadOndIpZfHo0aNx5coVXL16tYh6SkRUdBYtWoTJkycDABo0aMDXMiIySYMHDxazxA4dOhTr1q0zco/oXcAkKyVAamoqoqOjxfsxMTG4fv06XF1dUa1aNQwePBjDhg3D4sWL0aBBA8THx+Po0aOoW7cuunXrhrCwMFhZWYkb5+7cuRN//PEHkz4QkUkRBEGr6TwRERGYO3eueJ+ZSonIFMXExKhsgaKcXZeoKL2bc8hKmMuXL6NBgwZigPbFF1+gQYMGmDlzJoDcFNPDhg3DpEmTUL16dfTq1Qvh4eEq6w3++9//olGjRmjWrBl2796NLVu2qE3FTURkLIcPH0aXLl2wbdu2PPsoAblfdi1btgytWrVCamoqAMDPz48BHhGZnKSkJISEhIibqgcGBqJ58+ZG7hW9KzhFk4iITMLBgwfRpUsXALnr6ipXroyyZcvC3NwcCQkJiIyMhEwmE8vb2NjgwIEDRbZvGRGRLr755hvcunULUqkUV69eRXJyMoDc17MzZ86gRYsWRu4hvSs4RZOIiEyCcmIiuVyOqKgoREVFqS1bqVIlrF+/Hi1btiyu7hER5evMmTMqG9orzJ49m8EdFSsGeEREZBKCg4Nx6dIl7N27F+fPnxcztKWnp8PR0REeHh5o0qQJunbtioEDB8LCgm9hRGSaHB0d0bBhQ4wfPx59+vQxdnfoHcMpmiZMLpfj2bNncHR05D4iRERERETvMEEQkJKSAh8fn3y34+LXnybs2bNn8PPzM3Y3iIiIiIjIRDx58gTlypXTeJ4BnglzdHQEkPtHLAkbzhIRERERUdGQSqXw8/MTYwRNGOCZMMW0TCcnJwZ4RERERERU4NIt7oNHRERERERUSjDAIyIiIiIiKiUY4BEREREREZUSDPCIiIiIiIhKCQZ4REREREREpQQDPCIiIiIiolKCAR4REREREVEpwQCPiIiIiIiolGCAR0REREREVEowwCMiIiIiIiolGOARERERERGVEgzwiIiIiIiISgkGeERERERERKWEhbE7QMYhl8shk8kgl8uN3RUiIqJSy8zMDBYWFjAz43fqRFR4/0T/g7E7x2pVlgHeO0QulyM1NRVSqRSpqakQBMHYXSIiIir1JBIJHBwc4OTkBAcHBwZ7RKSzmy9v4mHiQ63KMsB7R8jlcjx9+hRpaWmwsbGBh4cHbGxsYGZmBolEYuzuERERlTqCIEAulyMjIwNSqRSxsbGwt7dHuXLlGOQRkU4i4iO0LssA7x2gCO7evHmD8uXLw97e3thdIiIiemfY29vDzc0NaWlpePLkCZ4+fcogj4h0cuvlLa3L8pXlHZCamoq0tDT4+fkxuCMiIjISe3t7+Pn5IS0tDampqcbuDhGVEHJBjtvxt7UuzwDvHSCVSmFjY8PgjoiIyMjs7e1hY2MDqVRq7K4QUQnxMOkh3mS/gaW5pVblGeCVcorEKk5OTsbuChEREQFwcnJCamoqM1kTkVYiXuauv6vuVl2r8gzwSjmZTAZBEGBjY2PsrhAREREAGxsbCIIAmUxm7K4QUQmgWH9Xw6OGVuUZ4JVyim8HuZCbiIjINCjekzmCR0TaUGTQrOHOAI+UcCsEIiIi08D3ZCLShRjgvcsjeJcvX8bcuXMRHByMcuXKwdraGg4ODqhWrRpGjhyJM2fOGKSd2bNnQyKRaHU7ceKEQdokIiIiIqJ3Q448B5HxkQCAALcAra4pdfvgtWnTBqdPn87z86ysLERFRSEqKgqhoaEYNmwYfv/9d1hZWRmhl0RERERERPm7n3gfmTmZsLWwRYUyFbS6ptQFeM+ePQMA+Pj4oH///ggMDET58uWRk5OD8+fPY/HixYiNjcW6deuQnZ2NP//80yDt3rx5M9/zFStWNEg7RERERET0blAkWKnpURNmEu0mX5a6AC8gIADfffcd+vbtC3Nzc5VzzZs3x9ChQ9GqVSvcu3cPmzZtwtixY9GmTRu9261du7bedRARERERESkotkio7al9rFHq1uD9/fff+OCDD/IEdwru7u5YvHixeH/79u3F1TUiIiIiIiKtKRKs1PKopfU1pS7A00a7du3E4/v37xuxJ0REREREROoppmjW8mSAl6/MzEzxWNNIHxERGVdoaKiYibht27bF3n7btm3F9kNDQ4u9fSIierdl5WTh7qu7AN7xKZraOHnypHhco4Z2+0kUJDg4GJ6enrCysoKnpyfatm2LBQsWIDEx0SD1E40YMUKvD7vR0dH45Zdf0LNnT9SqVQuenp6wtLSEq6srqlatij59+uD7779HdHR0vvU8fPiwyLYAOXv2LCZMmIDmzZvDy8sL1tbWsLGxgbu7Oxo0aIAPPvgACxYswMmTJ5Gdna1yrXIwYMibMuUP/IrbjBkzdH6cderUyVPPr7/+WqjfWXE8bnp3Kf9PMMglIipeUa+iIJPL4GjlCD8nP62vK3VJVgoil8uxYMEC8f4HH3xgkHoPHz4sHsfHx+PkyZM4efIkFi5ciNDQULz//vsF1pGZmakyuiiVSg3SN3q33bt3DzNmzMC2bdsgCEKe84mJiUhMTER0dDR27dqFKVOmoHXr1pgzZw7at29fLH28e/cuQkJCcO7cObXnMzMz8erVK1y/fh3btm0DADg6OmL37t0qU66NYcOGDZg7d67WQdHVq1dx69atIu4VERERlXTi+jvPWjp9+frOBXhLlizBpUuXAAB9+vRBo0aN9KqvTp066NWrF5o2bQofHx9kZ2fj7t272LhxIw4dOoSkpCT07dsXe/fuRZcuXfKta/78+ZgzZ45e/SFStn79eowaNQpZWVkqP3dxcYGfnx/c3d0hlUrx/PlzxMbGiufPnDmDDh06YOHChZg8eXKR9vHSpUvo2LFjni80/Pz84O/vDysrKyQlJeH+/ftITk4Wz6ekpODVq1fifV9fX3Tq1CnftmJjY1WCqzZt2sDW1lav/j98+BCnTp1CUFCQVuXDwsL0au9txnrcREREVLTE9Xc6JFgBAAjvkBMnTggWFhYCAMHT01N48eKFXvUlJibme/63334TAAgABB8fHyE9PT3f8hkZGUJycrJ4e/LkiQBASE5OLnQf09PThdu3bxfYNpm+4cOHi/9PQUFBBZZfsGCBWB6AYG5uLowePVo4f/68kJOTk6f8w4cPhaVLlwpVqlQRr5kwYUKecjExMSr1Hj9+vNCPKSUlRfDx8VHp46RJk4SHDx/mKSuXy4Xbt28LCxYsEOrXry8AELZt26ZTe2vXrlXpe0xMjE7XBwUFiddWqFBBPA4JCdHq+qysLMHDw0MAINjb24vHAIRffvlFp77oQt/HTe8u5f+btWvXGrs7pQbfm4lIG3229BEwG8KS80sEQRCE5ORkrWKDd2YNXkREBHr37g2ZTAYbGxts27YNnp6eetXp4uKS7/mPP/4YH330EYDcDdh37NiRb3lra2s4OTmp3IgK4+DBg5g6dap439fXF5cvX8aqVavQvHlzmJnlfer7+/vjs88+Q2RkJJYtWwY7O7si7+eyZcvw7Nkz8f769evxww8/wN/fP09ZiUSCGjVqYMqUKbh27RpOnz5tsDW0hdG9e3fxNWD79u1IT08v8JoDBw4gPj4eQO4MguL4HRMREVHJpNgDT9cRvHciwIuJiUFwcDASExNhbm6OzZs3G2Rzc218/PHH4rFycheiopKYmIihQ4eK6+3c3d1x9uxZ1K9fX6vrLSws8Mknn+D8+fOoXLlyEfYU+Ouvv8TjVq1aYdCgQVpf27p1a9SqpeOUBQOytrYW1/BKpVKVx6LJunXrxONhw4YVVdeIiIiohMuQZSDqdRQA3bZIAN6BAO/Zs2d477338OzZM0gkEvzxxx9aJTwxlJo1a4rHymuciIrKihUrkJCQIN5fvny52hGxgtStWxefffaZIbuWx71798TjFi1aFGlbRUE5SFMO3tRJTEzE3r17AQDlypUrtgQ2ung7Q6rC48ePMXfuXDRt2hTe3t4wNzdXu9g7Ozsbhw8fxpQpU9C+fXv4+vrC1tYWtra28PX1xXvvvYfvvvtOHMUsiLbbJFSoUCFPVtfMzEysXbtW7Ie1tTV8fHzw/vvvY+fOnVq1r802CSdOnBDLVKhQQfz5w4cPMXXqVNStWxfOzs5wcHBAQEAAPv300wIz1b7tzZs3+Omnn9CqVSt4eHjA1tYWVapUQf/+/XHo0CGxnHKm3dmzZ+vURnFKT0/HypUr0a1bN/j7+8PW1hYuLi4ICAjAmDFjcPToUZ3qu337Nr766is0b94c7u7usLKygq2tLby8vNC0aVOMGjUKoaGheP36db71PHr0CLNnz0ZQUJCYxdfa2hru7u5o2LAhhg4dit9++01l1gERUVG5m3AXckGOMjZlUNahrG4XF/3sUeOJj48XatasKa4f+PXXX4u9D2lpaWL7Xbt21elabefZ5ofz/EsPbdbgZWVlCd7e3mK5unXrGrwfhlyDZ2lpKdYzduxYw3VSA0OuwZs0aZIgCIJQuXJlcf1gXFycxmuXL18uXjtlyhRBEATB39/fpNbgvf23FQRBCA0NFezt7VV+rnxe4fjx44Kbm5vacm/f7O3thVWrVunU7/zWnSr/Ho8fPy5ERUWJ6zQ13Xr37i1kZmbm277y31vT+rPjx4+LZfz9/QVBEISwsDDBzs5OY9tWVlbChg0bCnz8giAI4eHhQsWKFfN9LIMHDxbS0tJUXiNmzZqlVf0FUW7HEGvw/vnnH6F8+fIF/o907ty5wHXycrlc+OqrrwQzMzOt/u9q1Kihsa4lS5YI1tbWWtVja2ur9++B781EVJANNzYImA2h9R+txZ9pGxuU2iyaycnJ6NSpE27fvg0AWLBgAT799NNi74eifQDw8fEp9vbp3RIeHo7nz5+L90eNGmXE3hTMzc1N7O/p06eRk5MDc3NzI/dKN8OGDcOsWbOQk5ODjRs3YtKkSWrLKWfPHD58eHF1Ty/btm3DiBEjAADm5uaoXbs2ypQpg+fPn+Pu3bsqZZ8+faqS1bRMmTKoXLkynJyckJWVhfv37yMuLg4AkJaWhjFjxiArK8vgr8vPnz/HkCFDxBkT1apVg6+vL5KSkvDvv/8iJycHALBr1y588cUXhd5/UJP169eLf18bGxvUrl0bDg4OePDgAR4/fgwAyMrKwrBhw1ClShU0a9ZMY103b94UlxcoODo6ombNmrC0tMTdu3cRHx+PjRs3Ijs72+Qzo+7cuRMDBw5U2cPSy8sL1apVQ3p6Om7duoWMjAwAueuIAwMDcfz4cY3vndOnT8eiRYvE+xKJBFWrVoWPjw/MzMyQmJiIqKgopKamAsjdJkmdVatW4fPPP1f5WcWKFVG+fHlYWFggOTkZ0dHRSEpKyrceIiJDUmyRUNtD+w3OFUrlFM03b96gW7duuHr1KoDcN4EpU6YYpS8rV64Uj7VNo05UWKdPn1a5b4rTAJUpf7iNiIjApEmTIJPJjNgj3Q0dOlScrqhpmua9e/dw8eJFAEDjxo2NmhxGF4okURMmTMCLFy9w/fp1HD9+HJGRkYiKispTvm7duvj5559x//59vH79GuHh4Th69ChOnz6NZ8+e4caNGyrbxXz55ZeIiYkxaJ/HjRuH2NhY9OzZE1FRUbh79y6OHTuGq1ev4uHDhyr7Jq5YsULt4yishIQEjBkzBtbW1vjhhx/w6tUrhIeH4/jx43j06BH27dsHZ2dnALlBwpdffqmxLplMhiFDhojBnbW1NZYsWYKXL1/iwoULOH36NOLi4rB582a4ublh69at2Ldvn8Eei6HFxMRg+PDhYnDn7e2NXbt24dmzZzh16hTCw8Px4sULTJ06VXw+3bt3D8OHD1e7f+fz58/xww8/iPdHjx6NZ8+e4e7duzh+/DiOHj2Kq1evQiqV4tq1a5g+fTo8PDzy1JOdna2SkOr999/H/fv38eDBA5w4cQJHjhxBeHg4EhMTcefOHcyfP79QU96JiHQlbpGg4/o7AKVvimZmZqYQHBwsTqVQl+ZdG8pTg9RNdfn333+FqKiofOtYuXKlWIe3t7eQmpqqUx84RZOUaTNFs1+/firT4NRth6AvQ07R/Pvvv/NMf/Lz8xOmTJkiHD58uMCtSHRVFFM0BUEQAgMDxZ9fv349z3XTpk0Tzy9dulT8ualP0QQgfPvtt1q1oe3rW05OjtCnTx+x/i+//FKrfms7RROA8OGHHwpyuVxt2be35pgxY4bGenWdoglAkEgkwv79+zXWuWPHDpXy9+/fV1tu1apVKuW2bt2qsc4rV64INjY2KuVNbYpm7969xXqcnZ2FyMhIjWV/+OEHlXY3b96cp8y6devE861bt1ZTS14ymSzPz06dOiXWU7FiRSErK6tQ9eiK781EVJBKP1cSMBvCsQfHxJ+9s9skDBo0SFx03r59e3z00Ue4deuWxptykgddXLlyBQEBAejYsSN+/PFHHD58GFevXsWlS5ewbt06dOrUScygaW5ujlWrVsHe3t5gj7NICQIgS+NN003Nt8mmQjl5ha+vr9rtEExJt27d8mSTfPLkCRYuXIiOHTvC1dUVAQEBGDFiBNasWYOnT58aqaf5yy/ZiiAI2LBhAwDA0tJSp0yhxla3bl18/fXXWpXV9vXNzMwM33//vXh/9+7dheqbJi4uLlixYoXaJDAA4ODgoDJ1+ezZswZtf+TIkSqjlG/r3bu3ygiQpvZXrVolHvfo0QP9+/fXWGfDhg0xYcKEQvS2eDx58gR79uwR78+dOxcBAQEay3/xxRdo3ry5eF/dNFrl14JWrVpp1Q9107+V62natCksLS0LVQ8RkSGlZaUhJjF3hkttT92naJa6NXjK2dGOHTuGunXr5lve398fDx8+LFRbOTk5OHLkCI4cOaKxjJubG9asWYMePXoUqg2jyHkDbHUwdi9M1wepgIVpBuvKa6AUU8FM3R9//AE/Pz8sWrQIWVlZKucEQcDdu3dx9+5dhIWFwczMDB07dhQzOpqKDz74AOPHj0d6ejr+/PNPfP/99+KHwOPHj4trr7p27Qp3d3djdlUnH330UZF8SVC5cmW4u7sjISFBXNtU0L6i2ho4cGCBe4i2bt1aPL5z545B2lUYM2ZMvuclEglatWqFR48eaWw/Pj4ely9fFu8rb7ejyccff4yFCxfq2Nvi8ffff4trH+3t7cWpv5pIJBJMmDABFy5cAACcOXMGCQkJKs8dGxsb8fjff/8tdN+U67l16xbkcrnJfzFGRKVfZEIkBAjwsPOAh33e6eUF4atYIXXt2hVr1qzBqFGj0KhRI5QrVw62trawsbGBj48PunTpgp9//hkPHjwo1m0Z6N2WmZkpHltZWRmxJ9ozNzfHvHnzcPfuXXz11VcoX768xrJyuRz//PMPmjdvjhkzZqhdm2MMTk5O4vP8+fPn+Oeff8RzJXnvO+VASBcvXrzAunXrMGnSJHz44Yfo0aMHOnfurHJTJL4QBMGgaee12W7D19dXPFYkzjAEKysrNGrUSO/2w8PDxWOJRKLV+u2KFSua7NowxfpTAGjTpo1Wo71du3ZVGYW9dOmSynnl3/OBAwcwbdo0JCcn69y3hg0biscRERH46KOP8OLFC53rISIyJMUG54UZvQNK4QieoT7wjRgxQswep46npydCQkIQEhJikPZMirld7igVqWduZ+weaKQ8CiKVSo3XkUKoUKECvv/+e3z//feIjo7GmTNnEB4ejvDwcFy7dk0l+YogCJg3bx6srKwwY8YMI/b6f4YNG4bNmzcDyA3qunbtirS0NOzYsQMA4Orqiu7duxuzizrTdaP72NhYfPHFF9ixY4c4YqONwnww18Tb27vAMnZ2/3sOv3nzxmBtu7m5wcKi4LfVgtpXjPgCuXsmOjhoN6OiRo0a4sigKVHe969OnTpaXePk5KQyw+btvQMDAwPRsGFDMZna/PnzsWTJEnTo0AHt27dH69at0ahRowKnU/r7+6N3797YtWsXgNy9Fzds2IA2bdqgQ4cOCAwMRNOmTWFtba3twyUi0puYYMWjEAlWUAoDPDIAicRkpyBS/lxdXcVj5dTqJU2VKlVQpUoV8UsWqVSKHTt24LvvvlP5oDd37lwMGTIEFStWNFJP/yc4OBje3t54/vw5du/eDalUit27d4sjVQMGDCgxo6oKjo6OWpe9ffs22rZtq/Um5sqUR571ZczfcWHaVvelpPKoni5TV011Wrby43Fzc9P6Ond3dzHAe/v1TCKRYMeOHejatSsiIyMBABkZGdi3b5+YTdTJyQnBwcEYMWIEunXrprGd1atX4+XLl+J6SJlMhmPHjuHYsWMAAFtbW7Rr1w5Dhw5F//79uQaPiIqcuEVCIUfwOEWTqBSpVKmSeBwbG2vQ6WfG5OTkhJEjR+LGjRt47733xJ/LZDL88ccfRuzZ/5ibm2Pw4MEAcj9obt26tUTufadM27VIOTk5+OCDD8TgztraGh999BF27tyJO3fuIDk5GVlZWRAEQbyZ6nTCksxU144Vduq4cll1XwJUqFAB165dw9KlS9Wut5dKpdi+fTu6d++OFi1aaNySw9XVFadOnUJYWBhatGiRJ0FPeno69u/fj0GDBqF27dq4du2a1o+BiKgwFAFeobZIAAM8olJFec2UIAh51q2UdHZ2dlizZo3KB1lDZ0HUh/IauyVLluD48eMAgOrVq+e7oXVJt3fvXkRE5L4ZWVpa4tixY1i9ejV69+6N6tWrw8nJKU92wpSUFGN0tURQHonTZfqqqY7aKz8eXf7uymU1jWRaW1vjs88+w40bNxAbG4sNGzZg9OjReaYXX7hwAe3atdP4OzIzM8OwYcNw7tw5xMfHY/v27fjss89Qu7bqt+d37txB+/bt8eDBA60fBxGRLqSZUjxOzp2qX9gpmgzwiEqRoKAglW+ft2zZYsTeFI3y5curbBQeFxdnxN6oqlu3LurVqwcgd8qiXC4HkLsZeml2+PBh8Xjw4MFo2bJlvuXfvHlTakaXi4JyoqGnT58iLS1Nq+sMnRHUUJQ3GNd2Y3tBEFTKqtuk/G0+Pj4YPHgwVq1ahejoaFy7dg19+vQRzz969Ejtlgtvc3NzQ9++fbF06VLcvHkTUVFRKtlRk5KS8O2332r1OIiIdHU7/jYAwMfRB2VsyxSqDgZ4RKWIr6+vyh5cW7ZsQUJCghF7VDSU14Zps29VcXo7U6ZEIin1AZ5yUpDGjRsXWP7ixYti8Et5Kf8O5XI5Tp48WeA1jx49KvSWP0VNOVOltrMKIiIixPWrb9ehrfr162P79u1o166d+DPFPrm6qFKlClauXKkyzbow9RARaUPfBCsAAzyiUuerr74Sj9PS0jBu3LhC1xUVFWWILhmUXC7H/fv3xfs+Pj5G7E1egwcPVsmkGBQUlO/WD6VBdna2TuVDQ0OLpiOlhJeXl0pAo7zpuSbalDGWwMBA8TgiIgI3b94s8JoNGzaIxy4uLnmmSmpLIpGgZ8+e4n19tkDo1auXQeohIsqPvlskAAzwiEqdtm3bYuDAgeL9LVu2YPbs2TrVkZ6ejmHDhmHZsmUG7p2qLVu25NncvCBbt25VydSo/O28KfDy8kJ2draYTESxDq80K1u2rHhc0JrIixcvqnx4J/WUpwTu3r1b3G5DnevXr+PHH38sjm4VSseOHVGuXDnx/tSpU/Mt//jxY5WplCNGjMiTuVKXLZGU1/IpZxo2ZD1ERIZyK54jeESkxqpVq1CtWjXx/pw5czBgwIAC98iSy+UICwtDQEAA1q9fX9TdxKRJk1CtWjUsWbIEL1++LLD8nj17MHr0aPG+nZ2dmLmSjEd5I+6tW7fi6NGjastdvXoVPXv25PRMLYSEhKiMWg0ZMgRLly5VySYpl8uxbds2BAcHIyMjA+7u7sboaoHMzc3x9ddfi/f37duHr7/+Wu3/wfPnz9GjRw9x3aGDgwMmTpyYp9znn3+OadOm4cmTJ/m2HRMTg+XLl4v327Rpo3L++++/xyeffIK7d+/mW09CQgIWLFigsR4iIkNRjOAVNoMmwH3wiEolR0dHHD16FN26dcO///4LIPeD919//YUOHTqgY8eOqFixItzc3CCVShEXF4dz585h3759WgVayoKDg3VKzz506FD8/vvv4v1Hjx7hiy++wOTJkxEYGIiWLVuiTp06cHd3h7W1NRITExEREYHdu3fjwoULKnUtWLBAZWSAjGPAgAGYOnUqnj9/jpycHHTp0gWjRo1C586dUaZMGcTFxWH//v3YuHEjZDIZOnXqhNu3bxf44fxdZmlpiQ0bNiAoKAjJycnIyMjAhAkTMGPGDNSqVQsWFha4e/eu+Hzt168f7O3txa05imI/wNGjR2Ps2LFal2/Tpo24Vu2TTz7Bzp07xb3lFi5ciGPHjiEkJATVq1dHRkYGzp49i99++w2vXr0S61i8eLHaLTWSkpLw888/Y8GCBWjZsiWCgoJQr149eHh4wNLSEs+fP8epU6cQGhoqjrw5OTlh/PjxKvWkp6djxYoVWLFiBRo0aID27dujQYMG8PLygq2tLRISEnDhwgWsWbNGnDlgYWGhErASERnK6/TXiEvNTR5X06NmoethgEdUSpUrVw5nzpzBuHHjsGHDBsjlcmRlZeHAgQM4cOBAgdd37NhRZZqYJrquv1IurzztSiaT4fjx41pNabSyssLChQvx2Wef6dQ2FQ1bW1ts3LgRXbp0QVZWFrKzs8UPzW+rWbMm1q9fjyZNmhihpyVLvXr1cOjQIXzwwQfi6LtUKsX58+dVyg0YMABr1qzBRx99JP6sKDY9l8lkkMlkWpdXnn4tkUjw119/oWfPnjhx4gQAIDw8HOHh4RqvX7RoUYGvQYIg4OzZswVODba3t8f27dvz/ULo2rVrBe5xZ2FhgTVr1hQq6QsRUUEUo3flncvDydqp0PVwiiZRKebo6IiwsDDcuHEDQ4YMKXAKl5OTE4YPH45Tp07h0KFDqFmz8N8eaeP69esIDQ1Fv3794OnpWWB5FxcXjBo1Cjdv3lQ7bYuMp3379jhx4gTq1Kmj9rydnR3Gjh2LS5cuaZXynnI1bdoUERERWLx4MVq0aAE3NzfY2NigYsWK6Nu3L/bt24fNmzfD3t5eZfTdFKdrOjo64vDhw/j5559V1m2+rWXLljhz5gy+/PJLjWXGjBmDkJCQAkfwbWxs8OGHH+LWrVvo2LFjnvP9+vXDuHHj8uyb9zZzc3N069YNV65cyZMpl4jIUBQbnOuTYAUAJIIuK4ypWEmlUjg7OyM5ORlOToWL4jMyMhATE4OKFSvCxsbGwD2kkkYul+PatWuIjo5GfHw8kpOT4eDgAHd3d9StWxe1atXSabqloT148AB37tzBo0ePIJVKIZPJ4OjoCHd3d9SuXRs1a9ZUyVBJpkcQBFy+fBmXL19GYmIiypQpAz8/P7Rt2xYODg7G7l6plZOTAzc3N3Fj9MjISAQEBBi5V5oJgoDw8HDcvHkT8fHxsLa2hre3NwIDA3Wedv348WPcvHkTjx49QlJSEiQSCZydnVG9enU0adJE6/fPFy9e4MaNG4iJiUFiYiLkcjmcnJxQuXJlNG3aFG5uboV5qGrxvZmI1Bm3fxyWhS/DVy2/wvcdv89zXtvYgJ+UiN4hZmZmaNSoERo1amTsrqhVqVIlVKpUydjdID1IJBI0adKEUzCL2c6dO8Xgzs3NTSXJkimSSCRo2rQpmjZtqndd5cuXN8hWJF5eXggODta7HiKiwjLUCB6naBIREZkgbSfYPHv2DJ9//rl4f9iwYUYdiSciosIRM2jqsUUCwACPiIjIJN27dw+tWrVCWFiYSmZJhczMTGzYsAFNmjRBbGwsgNx1blyfSkRU8rxMe4n4N/GQQIIaHjX0qotTNImIiEyQIAg4d+4czp07BwCoUKECypUrB2tra7x+/Rq3b99W2RfPzMwMv/32m0GmKxIRUfFSjN5VKlMJdpZ2etXFAI+IiMgEvT3N8uHDh3j48KHasl5eXli5ciXef//9YugZEREZ2q2XtwDot8G5AgM8IiIiE1StWjVERETgr7/+wtmzZ3Hv3j08f/4c6enpsLOzg7u7O+rXr4/g4GAMGzYMdnb6feNLRETGIyZY8dAvwQrAAI+IiMhk1axZs8j3oyQiIuMz5Agek6wQEREREREZiSAI4gievhk0AQZ4RERERERERhOXGoekjCSYS8xR3b263vUxwCMiIiIiIjISxfTMKq5VYGNho3d9DPCIiIiIiIiMRLFFQm1P/ROsAAzwiIiIiIiIjEZMsGKA9XcAAzwiIiIiIiKjEbdI4AgeERERERFRyaWSQdMAWyQADPCIiIiIiIiM4nHyY6RmpcLSzBJVXasapE4GeEREREREREagGL2r7l4dluaWBqmTAR4REREREZERGDrBCsAAj4iIiIiIyCgMnWAFYIBHRERERERkFBzBIyIiIiIiKgXkghyR8ZEADJdBE2CAR0REREREVOxiEmOQLkuHtbk1KpepbLB6GeAREREREREVM8X0zBoeNWBuZm6wehngERERERERFbOiSLACGCnAi4mJwYULF3Dv3j1jNE9ERMVg9uzZkEgkkEgkGDFiRLG3X6FCBbH9EydOFHv7RERE+SmKBCuAgQK8y5cv49KlS7h06RIEQdBY7q+//kLVqlVRpUoVtGrVCjVq1ICvry+WLVtmiG4QlWojRowQP6y2bdtW5+ujo6Pxyy+/oGfPnqhVqxY8PT1haWkJV1dXVK1aFX369MH333+P6OjofOt5+PCh2A91NzMzMzg5OcHf3x9du3bFd999h6dPn+rU17frrFmzJuRyuVbXvt2/W7duGb2d/CgHQYa6VahQoVB9odLl7f9RBrlERKbFZEfwbt26haZNm6JFixaYOHEiJBKJ2nKbNm1C37598eDBAwiCIN7i4uIwfvx4jBs3Tt+uEJEa9+7dw4ABA1CtWjWMHz8ee/fuxe3btxEfHw+ZTIbExERER0dj165dmDJlCqpWrYrAwEAcO3asUO0JgoCUlBQ8fvwYBw4cwPTp01GhQgVMmTIFWVlZhaozMjISGzZsKNS1ptgOERERvdtkchnuJNwBYPgRPAt9K/j777/F4zFjxqgtI5VKMW7cOAiCoDYAFAQBK1asQHBwMHr27Klvl4jo/61fvx6jRo3KE1i5uLjAz88P7u7ukEqleP78OWJjY8XzZ86cQYcOHbBw4UJMnjw53zaaNGkCV1dX8b4gCEhOTkZERARSU1MBADk5Ofj+++/x6NEjbNq0SeMXQfmZPXs2Bg0aBEtLS52vNcV2FKpUqYJOnTrlWyY6Ohr3798X7xdU3svLyyB9IyIioqIR/ToaWTlZsLO0g7+Lv2ErF/TUq1cvQSKRCGZmZkJ8fLzaMkuWLBHLODg4CKGhoUJSUpLw5MkT4cMPPxQkEokgkUiEJk2a6NudUiU5OVkAICQnJxe6jvT0dOH27dtCenq6AXtGxjB8+HABgABACAoKKrD8ggULxPIABHNzc2H06NHC+fPnhZycnDzlHz58KCxdulSoUqWKeM2ECRPylIuJiVGp9/jx42rbz87OFtavXy+4urqqlN+8eXOBfVcur3xbsWJFgde+3b+bN28avR19zZo1S6UtIm1o+1yl4sf3ZiLaHrFdwGwITVZpH/9oGxvoPUVTkSjF19cX7u7uasts3rxZPJ41axaGDx8OZ2dnlCtXDuvXr0etWrnDkleuXMGjR4/07RLRO+/gwYOYOnWqeN/X1xeXL1/GqlWr0Lx5c5iZ5X3q+/v747PPPkNkZCSWLVsGOzs7vfpgYWGBIUOG4MCBAyrt/fjjjzrVU7VqVfF43rx5yMjI0Ktfxm6HiIiISEywYsANzhX0DvCePXsGiUQCPz8/teeTkpJw+fJlALkf+EaNGqXaATMzDB8+XLyvKEtEhZOYmIihQ4eKCY/c3d1x9uxZ1K9fX6vrLSws8Mknn+D8+fOoXFn/TTebNm2K7t27i/evXLkCqVSq9fWTJ08Wg83Y2FisWLFC7z4Zsx0iIiIiMcGKh2ETrAAGCPDS0tIAAA4ODmrPnz17FnK5HBKJBC1btoSLi0ueMnXq1BGPldcBEZHuVqxYgYSEBPH+8uXL4e+v+9zuunXr4rPPPjNIn1q3bi0e5+Tk4PHjx1pf6+3trZKEaf78+eLaPkMqrnaK0okTJ9Rm0oyMjMSUKVNQv359eHh4wMzMTG2mzfT0dOzZswcTJkxAYGAgvL29YW1tDXt7e5QvXx7du3fH0qVLtf69aLtNgnKmx4cPHwLIXbu9dOlStGzZEl5eXrCxsYGfnx8GDhyodQIgbbZJCA0NVZudNiIiAuPGjUONGjXg4OAAJycn1K1bF5MnT8bz58+1al/h1atXmDdvHho3bgxXV1fY29ujevXqGDlyJC5cuCCWa9u2rdiX0NBQndooTomJiViyZAk6dOiAcuXKwcbGBm5ubqhTpw4mTJiAS5cu6VTfpUuXMG7cODRs2BCurq6wsLCAnZ0dfHx80KpVK3z66afYunWr+HlDk9u3b+Orr75C8+bN4e7uDisrK9ja2sLLywtNmzbFqFGjEBoaitevX+vz8ImIDKIoR/D0XsxhZ2cnmJmZCa1bt1Z7fvLkyeL6u1mzZqktc/bsWbHMt99+q2+XSg2uwSNl2qzBy8rKEry9vcVydevWNXg/CrOu5/fff1e55syZM/mWVy67d+9eISEhQXBychJ/Nm/ePK37p+0avKJsR1/arsE7fvy4WMbf318QBEGYP3++YGFhkWedoeK8wp9//ik4OjpqXJeofHN1dRX27NmjU7+HDx+usZxy3TExMUJ4eLhQoUKFfPswbtw4QS6X59u+v79/gf+na9euzfO8WrBggdrfmeLm6OgoHD16tMDHLwiCsH//fsHDwyPfxzJp0iRBJpMJQUFB4s/Wrl2rVf35KYo1eBs2bBDc3NwK/B8ZPHiwkJqamm9dGRkZwrBhw7T6nwMgdOnSRW09crlc+OqrrwQzMzOt6qlRo4bevwd98b2Z6N2WKcsULOZaCJgN4XHSY62vK7Y1eG5ubhAEAVFRUWrPHzp0SDwOCgpSWyYlJUU8tra21rdLuHz5MubOnYvg4GCUK1cO1tbWcHBwQLVq1TBy5EicOXNG7zbetmnTJgQHB8Pb2xs2Njbw9/fHkCFDcP78eYO3RaRJeHi4yujC21OijeXVq1cq9x0dHXW63s3NDZ9//rl4/4cffkBSUpIhumaUdorLokWLMHXqVMhkMlhbW6NRo0Zo27YtKleunCeT6f3791Veiz09PdG0aVN06NABLVu2VFlj/fr1a/Tq1Qt79+41eJ9v376N9u3bi3u41a5dG+3atUPt2rVV+vzrr79i8eLFBm//v//9L77++mvIZDI4OjqiWbNmCAoKUslMmpKSgp49exa4Zvzo0aPo3bs34uPjxZ+5ubmhdevWaN68OZydnQEAixcvVlkza6qWLl2KIUOGqDyf/fz8EBQUhAYNGsDC4n+JuTdu3IiOHTuq/E+9beTIkVi3bp1438LCArVq1UK7du3Qtm1b1K1bFzY2NuJ5TXtUTp8+HYsWLRLPSyQSVKtWDW3btkX79u3RoEEDlVlG2u51SURUVO69ugeZXAYnayeUcypn+Ab0DECFbt26iaNv58+fVzl38+ZNMUOmra2tkJmZqbaO33//XawjLCxMr/4EBgZq9Q3esGHDNPZHF2/evBG6du2qsR0zMzNh9uzZhaqbI3ikTJsRvLczZ966dcvg/SjMqIDyc8TS0rLA/0fl+vfu3SsIQu7zQTkj57Rp07Tqny4jeEXVjr4KM4Jna2srWFhYCBYWFsK8efOElJQUlbLR0dEq9+fNmye0atVKWLVqlRAbG6u2/tOnTwvNmjUT23B3dxekUqlW/dZ2BE8xOvTRRx8Jz549UykXGRkp1KlTRyxrb2+f7+ujriN4rq6ugkQiEVxcXIS1a9cKWVlZYjm5XC6EhoYKVlZWYvkhQ4ZobDspKUkoW7asWNbFxUVYt26dkJ2dLZbJzMwUli9fLtjZ2QkSiURlZMzURvDOnz8vmJubi3VVrVpVOHHihEqZly9fCiEhISpthoSEqK3v8uXLKuW++eYbITExMU85mUwmnD17Vhg/frzQv3//POfj4uIES0tLsZ7Ro0cLcXFxecrJ5XLh2rVrwvTp0zXOOCpOfG8merdturlJwGwILVa30Ok6bWMDvQO8FStWiMFZrVq1hPv37wuCIAgvXrwQmjdvLp7r27evxjo+/vhjsdzZs2f16k/lypUFAIKPj48wYcIEYfv27cKlS5eE8+fPCz/++KPg6+srvhEMGjRIr7YEQRAGDhwo1teuXTvhr7/+Ei5duiSsWbNG7AsAYeXKlTrXzQCPlGkT4PXr10/lw6+67RD0peuHRsUUbEX5Xr16FdiGusBLEARh4cKF4s8dHByEly9fFtg/XQO8omhHX4UJ8BS3DRs2aNVGQdPpFNLT04XmzZuL9f/6669a9VvbAA+A8PXXX2ss+/jxY8HOzk4su2bNGo1ldQ3wFIHxtWvXNNa5ePFilbKafm/Tpk0Ty1lYWOT73vb333/n+R2YWoDXoEEDsR5/f3/h+fPnGst++umnKu1euHAhT5m5c+dqFSgrk8lkeX62bt06sR5tAzd19RQ3vjcTvdu+OfqNgNkQRu8ZrdN1xTZFc8iQIShbtiyA3IX81apVg4+PD3x8fFQWWk+cOFFjHQcOHAAAmJuba53pT5OAgABs2bIFjx8/xk8//YS+ffuiSZMmaN68OT7//HNcv34d1apVA5A7rfLUqVOFbuvYsWPiFhA9evTA4cOH8f7776NJkyYICQnBhQsXUL58eQDAlClTkJiYqNdjKy6CICAtK403DTfh/7NTmiLlqWC+vr5qt0MoLjKZDOvXr0f37t3F35m1tTXmzp1b6DrHjRsHb29vAEBqairmz59vkL4aq52i1q1bNwwePFirsvb29lqVs7Gxwbfffive3717d6H6pkm1atXw3//+V+N5Pz8/9OvXT7x/9uxZg7Y/derUfN+HPv74Y9ja2gLITUpz9erVPGVkMhn++OMP8f5//vMftGzZUmOd3bp1w4ABAwrf6SJ2/vx5XLt2Tby/dOlSlSmrb/vhhx9UEjv9+uuveco8ffpUPG7VqpVW/TA3Ny+yeoiIitOt+P9PsOJRBAlWAFgUXCR/Dg4O4oe4jIwMCIKAFy9eqHwI/uSTT1Sy6Ck7efIknjx5AolEggYNGui999bff/+d73l3d3csXrwYPXr0AABs374dbdq0KVRbP/zwA4DcdQPLly/P86bh7u6OhQsXYtCgQUhKSsLq1avx1VdfFaqt4vQm+w0c5qvPikpA6tRU2Ftp92G4uCmvjVGs7ylqkydPhqurq3hfEARIpVJERESorL+xtbXFn3/+qZI1V1d2dnaYNm0axo8fDyA3Y+ikSZPg6+tb+AdgxHaK2pgxY4qk3mbNmonHht7aJiQkRGUtlzqtW7cW127duXPHoO2PHj063/P29vZo0KABzp07J7YfGBioUubatWsqa2E//vjjAtsdO3YstmzZUogeF72//vpLPK5YsSJ69uyZb3kbGxuMHTtWXFe4Z88eyOVylS+clNfW/fvvv4Xum6HqISIqThEv/3+LBE/Db5EAGGCbBABo3749Lly4gG7dusHa2loM7ipWrIiff/4Zv/zyi8ZrFUGSIAgqe2UVpXbt2onH9+/fL1QdKSkpOHr0KADgvffeQ7ly6hdI9unTB05OTgCAXbt2FaotIm1lZmaKx1ZWVsXSZnh4OP755x/xdujQIVy4cEEM7iQSCUaPHo3bt2+jV69eerf38ccfiyPjGRkZ+Y72lIR2ipKmL9YKEhMTg9WrV2P8+PEYNGgQunfvjs6dO4u3vn37imUTExPx5s0bQ3UZLVq0KLCMcqBtyCQ4FStWFEdu9Wk/PDxcPPbw8ECtWgV/Q9uqVStYWlpq19FidvHiRfG4c+fOWl2j/H4ulUrzBOKNGjUSj1euXImffvoJ6enpOvdNuZ4DBw5g2rRpSE5O1rkeIqLikp6djvuJufFHkWyRAAOM4CnUrVsXe/fuRU5ODuLj42FjY6N2z7u3ffXVV/jyyy8BQK9v9nWh/CG4sFM1wsPDkZWVBUBzdlAg90N28+bNcejQIYSHhyM7O9tk38QV7CztkDq1ZO3/VZzsLPUbZS5Kys85XTYTL0qCIOD06dMF7mGlLSsrK8ycOVPMEPrHH39gypQpqFixokHqL+52ioqLi4vKyKo27ty5gwkTJuDw4cM6TUVOTk7We/aFgjYBlnJbhgwutWlbm/aV93kMCAjQqk5LS0tUrlzZ4COShhAdHS0ea/s+HRAQAAsLC8hkMrGOmjVriuf79euHadOmITY2FnK5HJ9//jlmzZqF4OBgtG3bFoGBgahTp06ebK9vCwwMRMOGDcWpsvPnzxf36Gvfvj1at26NRo0acVomEZmMOwl3IBfkcLV1hZe95unu+jD4Ah1zc3N4e3trFdwBQJs2bRAUFISgoCCdP4wU1smTJ8XjGjVqFKqO27dvi8cFvYErzstkMo3bSZgSiUQCeyt73jTcCvrAYUzKz6HiWvN5/PhxCLkJmyAIApKSknDjxg1MnTpVHL2+c+cO2rVrh5iYGIO0OXz4cFStWhUAkJ2djdmzZxukXmO1UxR03Yri1KlTaNSoEQ4dOqTzOlPlL830pevIsyHXxBZm1Ftd+8qjetq+FwLFN61aV8qPx83NTatrLCwsVB77269HdnZ22Lt3L3x8fMSfSaVSbN++HePGjUO9evXg6emJESNG4PTp0xrbkUgk2LFjh8p7eUZGBvbt24dJkyahWbNmcHV1Rf/+/bFv3z6t+k5EVJQi4v83PbOoPlMaLwODkcjlcixYsEC8/8EHHxSqHuWF3ZqmZyr4+fmJx0+ePClUe0TaqFSpkngcGxtrlD3cnJ2dUbduXXz33Xc4d+6c+CEvPj4eQ4YMQU5Ojt5tWFhYqARbGzZsQGRkpN71GqudoqBLgh2pVIr+/fuLo1GOjo6YMGEC9u3bh6ioKKSkpEAmk6kE8mR4xkyKlJ/CTv1WLqvuS4AGDRogMjIS8+bNQ5UqVfKcT0hIQFhYGNq0aYPu3bsjISFBbTsVKlTAtWvXsHTpUtStWzfPeUXg2L17d7Ro0cJgXzQRERXGrZdFm2AFMFKAl52djefPnxv0W19tLVmyRMzu2adPH5X5+7pQTh6hvIGqOsrZ6VJTNU99zMzMhFQqVbkR6UJ5zZUgCCqZbI2hVq1aWLlypXj/3LlzWLNmjUHqHjhwIGrXzl2cLJfLMXPmTIPUa6x2jOmPP/7Ay5cvAQBlypTBlStX8NNPP6Fr166oUqUKHBwcVKa45bd5NamOxOmyHsxUMy0rPx5d/vbKZTWNZDo5OWH69OmIiorC/fv3sWbNGgwbNixPQqN9+/ahc+fO4pTPt1lbW+Ozzz7DjRs3EBsbiw0bNmD06NGoXLmySrkLFy6gXbt2Jvu7JqLST3kEr6gYJMBLSEjAy5cvxQ8Imly6dAkdO3aEg4MDfH19YWdnhxYtWhTbtImTJ0/i66+/BgB4enpixYoVha4rIyNDPC7oG01ra2vxOL9F5PPnz4ezs7N4Ux75I9JGUFCQynC/KWTl++CDD9C2bVvx/pw5cwyybsrMzEwl8cmOHTtUUrkbSnG1Y0yHDx8WjydMmCBOS9UkNja2qLtUoimS8wDaZ/nMzs7GgwcPiqpLevHw8BCPtR39io+PVwnwlOvQpFKlSggJCUFYWBiePHmC06dPq6xxv3LlCjZt2lRgPT4+Phg8eDBWrVqF6OhoXLt2DX369BHPP3r0SO3WDURExaFEjOA9ePAAXl5eKFu2LDp06KCx3NGjRxEUFIRjx44hOztbnOZz8eJF9OzZEwsXLtS3K/mKiIhA7969IZPJYGNjg23btsHT07PQ9SmnZlYkW9FEeaRSsX+SOlOnTkVycrJ443RO0pWvry+6dOki3t+yZYvGaU3Fad68eeLxs2fPVEb19NGrVy80adIEQO6I5YwZMwxSr7HaMRblpCCNGzcusPz58+eLsjslnvLv8OXLlyprtjU5f/58ge8lxtKwYUPxWNtZAcqZNxXbIOlCIpGgdevWOHjwoMo690OHDulUDwDUr18f27dvV8mgXZh6iIj0lZqViodJDwEUXQZNwAAB3p49e8T1GGPHjlVbJjMzEyNGjNA4JVMQBEybNs3gG9YqxMTEIDg4GImJiTA3N8fmzZsLvfedgnICg/ymXQJQyR6Y33ROa2trODk5qdyIdKW812JaWhrGjRtX6LoMlRSoVatWKh+uFi1apDIKrg/l4HHfvn1FFnwUVzvGkJ2drVP50NDQoulIKdGoUSOVjcBXrVpV4DWG+tKjKCjv83f48GGtvjTasGGDeFy7dm2dks0os7GxQadOncT7L168KFQ9EolEZf++wtZDRKSPyPjcdfxe9l5wt3Mvsnb0DvCUP+S8//77asusX78esbGxkEgkMDc3x6xZs3Dt2jWcOnVKnLpVVN+KP3v2DO+99x6ePXsGiUSCP/74Q2M/daGcWEU54Yo6yiNxnHZJRa1t27YYOHCgeH/Lli06Z39MT0/HsGHDsGzZMoP1S/n5HRcXh9WrVxuk3uDgYJUPoLNmzTJIvcZqxxjKli0rHhf0Rdu2bdtw6tSpou5SiWZhYYGRI0eK95cvX44LFy5oLH/w4EGtph4ay8CBA8WtIbKysgp8PQkPD8e2bdvE+x999FGeMrok6lGe6vl2tm1D1UNEVBzE6ZlFOHoHGCDAU6wv8PT01JhN8s8//xSPJ0+ejFmzZqFevXpo3bo19u3bB39/fwC5abqfP3+ub5dECQkJ6Nixo7iu4ZdffsGwYcMMUrfyfj4FrbFQnLewsChwbQuRIaxatQrVqlUT78+ZMwcDBgzAo0eP8r1OLpcjLCwMAQEBWL9+vUH71K5dO7Rs2VK8//333xtsStq3334rHhflViTF1U5xU17n9Ouvv+LmzZtqy/3zzz8YMWJEMfWqZJsyZYo4ipednY2uXbti48aNKllks7KysHLlSnHjeFMNOlxcXPDJJ5+I95ctW6bxy5979+6hT58+kMvlAHLXwykHuwqDBg3CwoULER8fn2/bV65cwebNm8X7b8+++fzzzzFt2rQClzTExMRg+fLlGushIioOYoIVj6JLsAIYIMB78uQJJBKJxs1/37x5I34jLJFI8kwXs7W1RUhICIDcb+LCw8P17RKA3MxlnTp1Etc+LFiwAJ9++qlB6gaAJk2aiMlVlPfVe1tWVpb4zW2TJk1MfpNzKh0cHR1x9OhRlZThW7duRbVq1dC1a1csWbIEf/31F06fPo19+/Zh9erVCAkJQdmyZTFixAiVNVmGpDyK9+TJE4NN9QsMDFSZxlVUiqud4jZmzBhxfXBKSgpatmyJyZMn48CBAzh16hQ2bNiAvn37onPnznjz5o24+Ttp5uLignXr1onvE4mJiRgyZAi8vb0RGBiIVq1awcvLC2PHjsWbN2/wxRdfqGwiXpg9+QoSHBwMGxsbrW+jR48Wr507d67KF5vjxo3De++9h9DQUJw8eRJ79+7F559/jgYNGoizWszMzLBmzRq1yw2eP3+Or7/+Gj4+PggODsbcuXOxc+dOnDx5EqdOncKmTZsQEhKCli1bikmZypcvj6FDh6rUk5SUhPnz58Pf3x+tW7fG9OnTsXXrVhw/fhxnzpzB9u3bMX78eNSrV0/8AtnJyQnjx483+O+XiKggxTWCZ6FvBYr1ZZo21T137hyys7MhkUjQuHFjeHt75ymjvFXBw4cP9e0S3rx5g27duuHq1asAgOnTp2PKlCl616vM0dERHTp0wIEDB3DkyBE8ffpU7Qjmzp07xe0OevfubdA+EOWnXLlyOHPmDMaNG4cNGzZALpcjKysLBw4cwIEDBwq8vmPHjhgzZoxB+9S5c2c0btwYly9fBpD7xUtISAgsLPR+KcK8efPwzz//6F2PqbRTnHx8fLBy5UoMHz4cgiAgNTUVixYtwqJFi/KUDQwMxC+//GKwKbalWXBwMHbu3IkRI0aI69YSEhJw5swZlXITJkzAggULVLY5KYpNz3Vda6lc3tbWFkeOHEFwcDBu3cr9gHL06FEcPXpU7bWWlpZYt24dOnfunG8bMpkMhw8fVsnkqo6npyd2796t8bOGIAg4e/ZsgVOM7e3tsX379gL3ryUiKgrFsUUCYIARPMXeSJoSJpw+fVo8Vk6Vrkx58XVBCUsKkpWVhd69e4sv8hMmTFBJjqCt0NBQSCQSSCQSjesNvvzySwC5b1Cffvppng2cExISxMDSxcWF33pTsXN0dERYWBhu3LiBIUOGwN09/wW9Tk5OGD58OE6dOoVDhw6pfGNvKMqjeDExMQabCtq4ceNi+RKluNopbkOHDsXu3bs1zsYoU6YMpk+fjmPHjqlkEab8devWDZGRkZgzZw4aNGgAFxcX2NnZoUqVKhg6dChOnz6Nn376CRYWFipbDRX0XDWGsmXL4uLFi5g1axbKlCmjtoyZmRm6dOmCq1evqqwFftuUKVMwaNCgArdPcHR0xNixY3Hr1i3Ur18/z/kxY8YgJCSkwIDNxsYGH374IW7duoWOHTvmW5aIqCgkZyTjqTR3hkNND8N/vlImEXRZoayGr68v4uLiUK5cObXTulq1aoXz589DIpHg77//VknhrnD48GF06tQJEokECxYsUMkCqKu+ffti586dAID27dvjp59+UtkX7G1WVlYqa5UUQkNDxXUDs2bN0hjkDRo0SFwf0K5dO0ycOBE+Pj64efMmvv32W9y/fx9AboY0XUdDpFIpnJ2dkZycXOiMmhkZGYiJiUHFihX5oYwgl8tx7do1REdHIz4+HsnJyXBwcIC7uzvq1q2LWrVqwczMINtjUgklk8lw/vx53LhxA1KpFO7u7qhQoQLatm1bJNMGKVdCQoIY7JiZmUEqlcLe3t7IvdJMJpPh3LlzuHPnDl69egU7Ozv4+voiKChIqz3vlEVFReH27dt4/PgxUlJSYGZmhjJlyqBmzZpo3LhxvtsLKXv8+DFu3ryJR48eISkpCRKJBM7OzqhevTqaNGliUpmp+d5M9O459+QcWv3RCr6Ovnj6Rf4JGjXRNjbQe15UrVq1EBcXh9jYWERERKBWrf/NKX348KG4/szCwkLjoua4uDjx2M3NTa/+KII7ADh27JjKGiR1/P399ZoW+scff0AqlWL//v04fvw4jh8/rnLezMwMM2bMMPhUN6LCMDMzQ6NGjVSmRRMps7CwQGBgoErGUCp6a9euFY/r1atn0sEd8L/3dEMkK6latapBEpCVL19eZZN5IiJTEvGyeKZnAgaYohkcHCwef/LJJ+J6s8zMTIwbNw6CIEAikaBdu3Ya37CuXLkiHleuXFnfLhUrW1tb7Nu3Dxs3bkTHjh3h6ekJKysr+Pn54cMPP8SZM2d0TlFPREQln7YTZCIiIjB37lzxPjOVEhGVPmKCFY+iTbACGGCKZkJCAqpWrSoGdg4ODqhVqxaioqLw+vVrMcDbvXs3unfvrraOgIAA3Lt3D2ZmZnj16lWRLC4viThFk4io5Dp06BCWLFmCkJAQdO7cOU+CkNTUVISFhWH69OlITk4GkLtX6q1bt0xqOiEZHt+bid497617D0djjuKPnn9gZIO828doo9imaLq7u2PFihUYMmQIBEFASkoKLl68qFKmV69eGoO7q1ev4t69e5BIJKhVqxaDOyIiKhXkcjkOHjyIgwcPwszMDJUrV0bZsmVhbm6OhIQEREZGQiaTieVtbGywbt06BndERKVQcW2RABggwAOAgQMHwsXFBV999RUiIiLEaSm2trYYO3Ys5s+fr/HaH3/8EUDuVJauXbsaojtERERGp5ywSC6XIyoqClFRUWrLVqpUCevXr0fLli2Lq3tERFRMXr15hRdpLwAUfQZNwEABHpC7v1Xnzp3x9OlTPH36FDY2NqhRowasra3zva5Lly5iyuJ27doZqjtERERGFRwcjEuXLmHv3r04f/68mL02PT0djo6O8PDwQJMmTdC1a1cMHDjQIPtBEhGR6VHsf1fBpQIcrByKvD2Dv5uUK1dOpw1EBw8ebOguEBERmYQmTZqgSZMmxu4GEREZUXEmWAEMkEWTiIiIiIiI1CvOLRIABnhERERERERF5lZ88Y7gFcmE/5SUFBw5cgQXL15EdHQ0EhMTkZmZCRcXF3h4eKBhw4YIDAxE/fr1i6J5IiIiIiIioxMEodhH8Awa4L1+/RozZszA+vXrkZaWprHcunXrAAANGjTAN998g169ehmyG0REREREREb3Mu0lXqW/gpnEDAHuAcXSpsGmaJ46dQq1a9fGb7/9htTUVAC5EWt+t6tXr6Jv374YOnSoyl5AREREREREJZ0iwUqlMpVga2lbLG0aZATv0qVL6NatG9LS0iCRSAAAEokEDRs2RJ06deDu7g4rKyukpKTg/v37uHz5Ml6+fAkgNwj8888/kZmZia1btxqiO6SGYm9CIiIiMi6+JxO9OxRbJBTX9EzAAAFeTk4ORowYIQZ3lpaWmDhxIsaPHw8fHx+118jlchw6dAjTpk3D9evXIQgCduzYgQ0bNmDIkCH6domUKDbalcvlRu4JERERAf97T1a8RxNR6VXcWyQABpii+eeff+LOnTuQSCRwdnbG8ePHsWDBAo3BHZD7gta5c2eEh4eL++AJgoBZs2bp2x16i4WFBSQSCTIyMozdFSIiIgKQkZEBiUTCze2J3gHGGMHTO8DbvXu3eLx06VK0aNFC62vNzc3xxx9/oEaNGgCAhw8f4ubNm/p2iZSYmZnBwcEBUqnU2F0hIiIiAFKpFA4ODhzBIyrlBEEomSN4V69eBQC4ubnhww8/1Pl6S0tLfPzxx3nqI8NxcnJCRkZGvplNiYiIqOilpaUhIyMDTk5Oxu4KERWx2JRYSDOlsDCzQHX36sXWrt4B3suXLyGRSFCjRo1CfxNVp04d8Tg+Pl7fLtFbHBwcYG9vjydPnjDIIyIiMpK0tDQ8efIE9vb2cHBwMHZ3iKiIKfa/q+paFVbmVsXWrt6Tv83NzQEAWVlZha4jOzs7T31kOGZmZihXrhyePn2Kx48fw8bGBk5OTrCxsYGZmZmY+ZSIiIgMRxAEyOVyZGRkQCqVIiMjA/b29ihXrhynZxK9A8TpmZ7FNz0TMECA5+XlhZSUFNy+fRsZGRmwsbHRuY7Lly+r1EeGpwjyUlNTIZVKER8fzzTNRERExUAikcDBwQFubm5ce0f0DhETrHgUX4IVwAABXsuWLREdHY3U1FQsW7YMkyZN0un6lJQU/Pbbb+J9XZK0kG7MzMzg5OQEJycnyOVyyGQybp9ARERUhMzMzGBhYcGgjugdVGJH8Pr27Yt169YBAL755huUL18e/fv31+ra1NRU9O3bF0+fPoVEIkH9+vVRsWJFfbtEWjAzM4OVVfHNBSYiIiIielfIBTlux98GULxbJAAGSLLSo0cPcdQtMzMTAwcORP/+/XH69GmN1yQkJGDZsmUICAjA0aNHxZ9/9913+naHiIiIiIjIqB4nP0ZadhqszK1QxbVKsbZtkB02169fj8DAQDx//hyCIGDnzp3YuXMn7O3tUatWLbi5ucHKygopKSmIiYnBw4cPIQgCBEEQE3xMmjQJnTp1MkR3iIiIiIiIjEYxPbO6W3VYmBkk5NKaQVqrVKkSjh07hoEDB+LGjRsAcjNHpaam4tKlSyplFYk9FIGdubk5ZsyYgRkzZhiiK0REREREREal2CKhuKdnAgaYoqlQvXp1hIeH46effkK1atXEnytG6hQ3BUtLSwwaNAjh4eEM7oiIiIiIqNS4Ff//CVY8ijfBCmCgETyxMgsLjB8/HuPHj8edO3dw8eJFREdHIykpCZmZmXB2doaHhwcaNmyIpk2bwsnJyZDNExERERERGZ0xR/CKbEJoQEAAAgICiqp6IiIiIiIik5Mjz0FkQiSA4t8iATDgFE192NnZwdzcHBYWxbsAkYiIiIiIyJAeJD5AhiwDtha2qOhS/FvAmURE9fb6PCIiIiIiopIoIj53emYNjxowNzMv9vZNYgSPiIiIiIioNFBskWCMBCsAAzwiIiIiIiKDUYzgGSPBCsAAj4iIiIiIyGA4gkdERERERFQKZOdk427CXQAcwSMiIiIiIirRol9HI1ueDQcrB5R3Lm+UPjDAIyIiIiIiMgDF9MyaHjUhkUiM0gcGeERERERERAYgJljxMM70TIABHhERERERkUGICVY8jZNgBWCAR0REREREZBDG3iIBYIBHRERERESkt0xZJqJeRQEw3hYJAGChbcGQkJAi60R2dnaR1U1ERERERFTU7r66ixwhBy42LvBx9DFaP7QO8EJDQ42WCYaIiIiIiMiURbzMnZ5Zy6OWUeMmrQM8BUEQiqIfREREREREJZaYYMWI0zMBHQK8Nm3acASPiIiIiIhIDVNIsALoEOCdOHGiCLtBRERERERUcpnCFgkAs2gSERERERHp5U32GzxIfADA+CN4DPCIiIiIiIj0EBkfCQEC3O3c4WnvadS+MMAjIiIiIiLSg2L9nbETrAClNMB7+fIl/v77b8ycORNdunSBu7s7JBIJJBIJRowYYbB2Zs+eLdZb0I1rGImIiIiISifFFgnGnp4JFGKbhJLAy8vL2F0gIiIiIqJ3xK1409giASilAZ6y8uXLIyAgAIcOHSrSdm7evJnv+YoVKxZp+0REREREZBwcwStiM2fORJMmTdCkSRN4eXnh4cOHRR5g1a5t/D8mEREREREVr5TMFDxKfgTA+FskAKU0wJszZ46xu0BERERERO+A2/G3AQBlHcrC1dbVyL0ppUlWiIiIiIiIioOYQdMERu8ABnhERERERESFduul6SRYARjgGUxwcDA8PT1hZWUFT09PtG3bFgsWLEBiYqKxu0ZEREREREVEMYJnCglWAAZ4BnP48GHEx8cjOzsb8fHxOHnyJKZOnYpKlSph9+7dWtWRmZkJqVSqciMiIiIiItPFEbxSpk6dOpgxYwb27t2LK1eu4MKFCwgLC0NwcDAAICkpCX379sWBAwcKrGv+/PlwdnYWb35+fkXdfSIiIiIiKqTE9EQ8S3kGwHTW4EkEQRCM3YmiprxNwvDhwxEaGmqQepOSkuDi4qLx/MqVKzF27FgAgI+PD+7fvw8bGxuN5TMzM5GZmSnel0ql8PPzQ3JyMpycnAzSZyIiIiIiMowzj88gcG0g/Jz88Pjzx0XallQqhbOzc4GxAUfw9JBfcAcAH3/8MT766CMAwLNnz7Bjx458y1tbW8PJyUnlRkREREREpkmxwbmpjN4BDPCK3Mcffywenzx50og9ISIiIiIiQxITrHiYRoIVwAAbnbdv317vTlhZWcHZ2Rnu7u6oV68eWrZsidq1TeeXpI+aNWuKx7GxsUbsCRERERERGZKYYMWERvD0DvBOnDgBiURiiL6oaNiwIWbOnIkePXoYvO7iVBS/GyIiIiIiMj5T2yIBMNAUTUEQVG6afv72+fzKXLlyBb169cK4ceMM0UWjuX37tnjs4+NjxJ4QEREREZGhxKfF42XaSwBADfcaRu7N/+g9grd27VoAQEpKCubOnYtXr15BEARUqFABQUFBqFGjBpydnWFmZobExETcuXMHJ0+eRExMDADAw8MDM2bMgKWlJV6+fInw8HD8888/yM7OhiAIWLFiBby9vfHNN9/o21WjWLlypXgcFBRkxJ4QEREREZGhKEbvKpWpBHsreyP35n/0DvCGDx+Ohw8fomPHjnj16hWqVq2Kn3/+GZ06dcr3usOHD2PChAm4c+cOfv75Zxw6dEjcyiA2NhYhISE4fPgwBEHAd999h48++ghly5bVt7taCw0NxciRIwEAs2bNwuzZs1XO37x5E7a2tqhSpYrGOlatWoXVq1cDALy9vdG7d+8i6y8RERERERUfMYOmiWxwrqB3gJeVlYW+ffvi/v37qF+/Po4dO1bg9gEA0LFjR1y4cAFBQUG4ceMG+vbti/Pnz8Pa2hq+vr7Yt28fAgMDcfHiRWRmZmLt2rWYNm2aVn06c+YMoqOjxfsJCQnicXR0dJ598EaMGKFVvcquXLmCUaNGoV27dujSpQvq1KkDNzc3yGQy3LlzBxs3bsShQ4cAAObm5li1ahXs7U0nsiciIiIiosITE6yUtgBv06ZNuHbtGiQSCX7//XetgjsFJycnrF69Gk2aNMGNGzfw559/iqNmFhYWmD9/vpil89ixY1oHeKtXr0ZYWJjac2fPnsXZs2dVflaYAA8AcnJycOTIERw5ckRjGTc3N6xZs6bEJ4shIiIiIqL/McUEK4ABkqysX78eAFCpUiU0atRI5+sbNWqEypUrAwA2bNigcq5t27ZwcXGBIAi4d++evl01qK5du2LNmjUYNWoUGjVqhHLlysHW1hY2Njbw8fFBly5d8PPPP+PBgwd4//33jd1dIiIiIiIyEEEQTHKLBACQCG+ntdRR+fLlERsbi7Zt2+Lo0aOFqqNDhw44fvw4fH198eTJE5VzLVq0wMWLF2Fra4u0tDR9ulriSKVSODs7Izk5GU5OTsbuDhERERERAYhLiYPPjz4wk5ghbVoabCxsirxNbWMDvUfw4uPjAQDJycmFrkNxrfJaOQVHR0cAgEwmK3T9REREREREhqIYvaviWqVYgjtd6B3gubu7QxAE3Lx5E69fv9b5+levXuHff/+FRCKBm5tbnvOpqakAAAcHB327SkREREREpDfF+jtTS7ACGCDAa9iwIYDcEbapU6fqfP306dPF0TlFXcru378PiUSCcuXK6ddRIiIiIiIiA1BskWBqCVYAAwR4Q4YMEY9Xr16N8ePHIz09vcDrMjIyMHHiRKxatUr82dChQ1XK3L9/X5wCWru26f3yiIiIiIjo3XMr3jS3SAAMsE1C//79sWLFCpw4cQISiQTLli3Djh07MGTIELRr1w4BAQHi1gnJycm4c+cOjh8/jg0bNiAuLg4AIJFIEBQUhP79+6vUvXPnTvE4KChI364SERERERHpRRAEkx7B0zuLJpC7jq5jx464fv06JBIJBEGARCLJ9xpFGUEQULduXRw9ejTPGrxWrVrhwYMHMDMzw/Xr1+Hh4aFvV0sUZtEkIiIiIjItj5Mfw/8nf1iYWSBtWhqszK2Kpd1iy6IJ5G7mferUKYwdO1b8mSJuFARB5aZ8DgDGjBmD06dPq02wcvbsWcTFxSE2NvadC+6IiIiIiMj0KEbvqrtVL7bgThcGCfCA3CyXy5cvR2RkJL788kvUrFlT4yheQEAAvvjiC0REROC3334Tt0IgIiIiIiIyZWIGTRPb4FxB7zV4b6tWrRq+//57fP/990hLS8PTp0+RlJQEAHB2dka5cuW45QEREREREZVIij3wTDHBClAEAZ4ye3t7VK9evSibICIiIiIiKjaKETxTTLACGHCKJhERERERUWkmF+S4HX8bgOmO4DHAIyIiIiIi0sLDpId4k/0G1ubWqOxa2djdUYsBHhERERERkRYU6+8C3ANgYVakq90KzaC9Sk1Nxfbt23H27FncuXMHSUlJePPmDbTdak8ikeD+/fuG7BIREREREZFBKLZIMNUMmoABA7wff/wRs2fPRlpaWqGu12ZzdCIiIiIiImMRE6x4mGaCFcBAAd6ECRPw66+/aj1SR0REREREVNKIWySU5hG848eP45dffhFH3+zs7NCvXz+0bt0avr6+sLOz07uTRERERERExiSTy3An4Q4A090iATBAgLdq1SrxuG7duvj7779Rrlw5faslIiIiIiIyGfdf30dmTibsLO1QwaWCsbujkd5ZNM+ePQsgN0HK1q1bGdwREREREVGpo1h/V9OjJswkprsZgd49i4+Ph0QiQa1atVCtWjVD9ImIiIiIiMikiBk0TXSDcwW9AzxnZ2cAgIeHh96dISIiIiIiMkW34v8/wUppD/AqV64MQRAQHx9viP4QERERERGZHMUIniknWAEMEOANGDAAABAREYEXL17o3SEiIiIiIiJTkpWThbuv7gIw7S0SAAMEeCNHjoS/vz8EQcDMmTMN0SciIiIiIiKTEfUqCjK5DI5WjvBz8jN2d/Kld4Dn6OiIbdu2wd7eHqtXr8Y333wDuVxuiL4REREREREZnfIG54r9v02V3vvgPX78GJ6entiyZQuGDRuG+fPnY8eOHQgJCUGLFi3g7e0NKysrresrX768vl0iIiIiIiIyGMUWCaaeYAUwQIBXoUIFlShWEATcvXsXX3/9tc51SSQSyGQyfbtERERERERkMIoAz9QTrAAGCPAUBEGARCLJM2QpCEKB10okEq3KERERERERFTdxiua7MIIH/C+IK2yQxuCOiIiIiIhMUYYsA9GvowG8IyN4TKhCRERERESl1Z2EO5ALcpSxKQNvB29jd6dAemfRJCIiIiIiKq2UNzg39QyaAAM8IiIiIiIijUpSBk2AAR4REREREZFGynvglQQM8IiIiIiIiDQoSVskAAzwiIiIiIiI1ErLSsODxAcASs4UTa2yaIaEhIjHEokEa9asUXtOX2/XTUREREREZCyRCZEAAE97T3jYexi5N9qRCFpsQmdmZqaSMSYnJ0fjOX0p1/2uk0qlcHZ2RnJyMpycnIzdHSIiIiKid0ro9VCM3D0S7Sq0w7Hhx4zaF21jA633wVPEgeqCOUNtVF4S0o4SEREREdG7QbFFQkmZngloGeDNmjWrUOeIiIiIiIhKqpKWYAXQcoomGQenaBIRERERGU/5JeXxRPoEp0eeRuvyrY3aF21jA2bRJCIiIiIieos0U4on0icAStYUTQZ4REREREREb1Gsv/Nx9EEZ2zJG7o32GOARERERERG9pSSuvwMY4BEREREREeVREjNoAjpsk6ALuVyOmJgYJCUl4c2bNzpto9CmTRu923/58iUuXbqES5cuITw8HOHh4Xj16hUAYPjw4QgNDdW7jbdt2rQJa9euxb///oukpCR4eXkhMDAQn376KVq0aGHw9oiIiIiIqOjcir8F4B0O8ORyOcLCwhAWFoZLly4hMzNT5zokEglkMpneffHy8tK7Dm2lp6ejX79+2L9/v8rPHz9+jI0bN2LTpk2YOXMmt5MgIiIiIipBFCN47+QUzWfPnqFx48YYNWoUTp8+jYyMDAiCUKiboZUvXx7BwcEGr1chJCREDO7atWuHv/76C5cuXcKaNWtQuXJlyOVyzJ49G6tWrSqyPhARERERkeG8Tn+NuNQ4AEBNj5pG7o1u9B7By8rKQocOHXD37l2Vn5uZmcHNzQ12dnb6NqGzmTNnokmTJmjSpAm8vLzw8OFDVKxY0eDtHDt2DJs3bwYA9OjRA7t27YK5uTkAoEmTJujZsycaNWqEx48fY8qUKejfvz/KlCk5GXiIiIiIiN5FitE7f2d/OFo7Grk3utE7wFuxYgXu3r0LiUQCQRDQo0cPfP7552jRogWsra0N0UedzZkzp1ja+eGHHwAAFhYWWL58uRjcKbi7u2PhwoUYNGgQkpKSsHr1anz11VfF0jciIiIiIiqcWy//f/2dZ8lafwcYYIrmjh07xOOJEydi9+7daNu2rdGCu+KSkpKCo0ePAgDee+89lCtXTm25Pn36iDvN79q1q9j6R0REREREhSNukeBRstbfAQYI8CIjIwEA9vb2mD9/vt4dKinCw8ORlZUFAAgKCtJYzsrKCs2bNxevyc7OLpb+ERERERFR4SgCvHdyBC81NRUSiQT16tUr9aN2ym7fvi0eBwQE5FtWcV4mkyEqKqpI+0VERERERPoRp2iWsC0SAAMEeD4+PgCQZ/1Zaff06VPxWNP0TAU/Pz/x+MmTJxrLZWZmQiqVqtyIiIiIiKj4vEx7iYQ3CZBAghoeNYzdHZ3pHeA1atQIgiAgOjraEP0pMVJSUsRjBweHfMva29uLx6mpqRrLzZ8/H87OzuJNOTAkIiIiIqKipxi9q1SmEuwsi39HAH3pHeCNGjUKABAXF4fTp0/r3aGSIiMjQzy2srLKt6zy1NX09HSN5aZOnYrk5GTxlt9oHxERERERGV5J3eBcQe8ALzg4GAMGDIAgCPj000/fmWmFNjY24rEi2YommZmZ4rGtra3GctbW1nByclK5ERERERFR8RETrJTA9XeAAQI8AFi9ejWCg4Nx69YttGrVCufOnTNEtSbN0fF/Gx7mN+0SANLS0sTjgqZzEhERERGR8ZTkPfAAA2x0PnfuXABA06ZNceXKFURERCAwMBABAQFo0aIFvL29C5zCqGzmzJn6dqlYKCdWefr0KRo3bqyxrPJUS66rIyIiIiIyTYIg/G8PvBI6RVPvAG/27NmQSCTifYlEAkEQcOfOHdy5c0fn+kpKgFezZk3xuKDHqThvYWGBqlWrFmm/iIiIiIiocJ6lPENSRhLMJeao7lbd2N0pFINM0RQEQeWm7mfa3EqSJk2aiCOTJ0+e1FguKysLFy5cEK+xtLQslv4REREREZFuFKN3Vd2qwtqiZO7xrfcI3vDhww3RjxLH0dERHTp0wIEDB3DkyBE8ffpU7X54O3fuFBPP9O7du7i7SUREREREWirJG5wr6B3grV271hD9MDmhoaEYOXIkAGDWrFmYPXt2njJffvklDhw4AJlMhk8//RQ7d+5U2fA9ISEBU6ZMAQC4uLiIW0oQEREREZHpKelbJAAGCPBM0ZkzZ1Q2Xk9ISBCPo6OjERoaqlJ+xIgRhWqnffv2GDhwIDZv3ow9e/agY8eOmDhxInx8fHDz5k18++23ePz4MQBg4cKFKFOmTKHaISIiIiKiolfSt0gASmmAt3r1aoSFhak9d/bsWZw9e1blZ4UN8ADgjz/+gFQqxf79+3H8+HEcP35c5byZmRlmzJiBMWPGFLoNIiIiIiIqWsoZNEvqFgmAgZKsvMtsbW2xb98+bNy4ER07doSnpyesrKzg5+eHDz/8EGfOnFE7vZOIiIiIiEzH4+THSM1KhaWZJaq6ltzM9xKhpKWvfIdIpVI4OzsjOTkZTk5Oxu4OEREREVGpte/ePnTf1B21PWvj5n9uGrs7eWgbG3AEj4iIiIiI3nklfYNzBa3W4ClnhpRIJJDJZGrP6evtuomIiIiIiIpDaUiwAmgZ4AmCAIlEonYz8vzOERERERERlQSlYQ88QIcpmvkFcAzuiIiIiIiopMqR5yAyPhLAOzJFMyYmplDniIiIiIiITF1MUgzSZemwsbBBpTKVjN0dvWgV4Pn7+xfqHBERERERkamLeJm7/q6Gew2Ymxkux4gxMIsmERERERG908T1dyV4g3MFBnhERERERPROE7dI8CjZ6+8ABnhERERERPSOE7dI4AgeERERERFRySWTy3An4Q6Akr9FAqBlkhVdvXjxApcuXUJsbCySk5ORmZmp9bUzZ84sii4RERERERHlEf06Glk5WbC3tIe/S8lPIGnQAG/Lli348ccfcfny5ULXwQCPiIiIiIiKiyLBSk2PmjCTlPwJjgYJ8GQyGYYMGYJt27YBKHjjc4lEorac4udERERERETFQbFFQknf4FzBIAHehAkTsHXrVvF++fLl0bRpU5w7dw7Pnj2DRCLBsGHDkJKSgtjYWFy/fh2ZmZliQNe1a1e4u7sboitERERERERaExOslIL1d4ABArzbt2/jt99+AwCYmZnhxx9/xPjx4wEAXbp0wbNnzwAAa9euFa/JyMjApk2bMHPmTDHg27p1K1q0aKFvd4iIiIiIiLRWmvbAAwyQRXPt2rUQBAESiQSff/65GNzlx8bGBiNHjsTNmzfRvHlzxMbGonv37nj8+LG+3SEiIiIiItJKpiwTUa+jAJSeKZp6B3inTp0CkLt+btKkSTpd6+Ligt27d8PV1RVJSUn4z3/+o293iIiIiIiItHLv1T3I5DI4WTvB19HX2N0xCL0DvEePHkEikaBq1arw9vZWOaecNCU7O1vt9R4eHhg9ejQEQcChQ4cQFxenb5eIiIiIiIgKpFh/V9uzdqlJ+Kh3gJeYmAgA8PHxyXPO2tpaPE5NTdVYR+vWrQEAcrkc586d07dLREREREREBRLX35WSBCuAAQI8KysrAOq3RnBychKPY2NjNdbh7OysVTkiIiIiIiJDUR7BKy30DvC8vLwA/G8kT1mFChXE46tXr2qs48mTJ+Jxenq6vl0iIiIiIiIqkGIPPI7gKalZsyYEQUBUVFSeUbyGDRuKx1u2bNFYx8aNG8XjsmXL6tslIiIiIiKifKVnpyP6dTSA0rNFAmCAAK9Vq1YAckferl+/rnIuODgYjo6OAICDBw9iyZIlKucFQcB///tf7N+/X/xZmzZt9O0SERERERFRvu4k3IEAAW62bvCy9zJ2dwxG7wAvODhYPP7rr79Uztna2uLTTz8VR/a+/PJLVKlSBQMGDMCAAQNQsWJFzJ49G0Buxs0ePXqoTOskIiIiIiIqCsobnJeWDJqAAQK8Bg0aoEqVKhAEAatXr4ZMJlM5P3PmTDRr1kwM8mJiYrB9+3Zs375dZe2dn58fVq5cqW93iIiIiIiICiQmWPEoPQlWAAMEeABw8eJFPHnyBJcuXcoT/drY2ODw4cMYM2YMzMzMIAhCnlvPnj1x4cIFMWELERERERFRUVIewStNLAxRSZkyZVCmTBmN5x0cHPDbb7/hu+++w7Fjx/D48WNkZ2ejbNmyaNOmDadlEhERERFRsVKM4JWmDJqAgQI8bbm6uqJfv37F2SQREREREZGK1KxUPEx6CIAjeHmcOnVKPK5Xr57KpuVERERERESm5nb8bQCAl70X3O3cjdwbw9I7wGvbti0kEglsbGzw7NkzQ/SJiIiIiIioyCg2OK/tWboSrAAGSLJiZWUFQRAQEBDA0TsiIiIiIjJ5YoKVUrb+DjBAgOft7Q2JRAIXFxcDdIeIiIiIiKhoiVskcAQvr6pVq0IQBDx9+tQQ/SEiIiIiIipSYgbNUpZgBTBAgNe/f38AQHR0NKKiovTuEBERERERUVFJykjCU2nu4FRNj5pG7o3h6R3gffjhh+I+duPHj4dcLte3SiIiIiIioiKhyKBZzqkcXGxcjNuZIqB3gOfg4IAtW7bA0dERhw4dwvvvv4+4uDhD9I2IiIiIiMigSnOCFUCHbRIU+925urqidu3aeX6+ePFifPHFF9i/fz8qVaqEbt26oXXr1qhcuTIcHR1hZqZdLNmmTRtd+k9ERERERKS10rxFAqBDgKfY765Tp07Yv39/np8rCIKAzMxM7Nq1C7t27dKpMxKJBDKZTKdriIiIiIiItHUrniN4WhEEARKJJE+wR0REREREZCoUI3ilMYMmYIAAr3z58ipBHRERERERkSlKeJOAF2kvAJTODJqAAQK8hw8fGqAbRERERERERUsxelfBpQIcrByM3JuioXcWTSIiIiIiopJAscF5aU2wAjDAIyIiIiKid0Rp3yIBYIBHRERERETvCI7glQKPHj3CpEmTEBAQAHt7e7i6uqJJkyZYtGgR3rx5o1fdoaGhYubQgm6hoaGGeUBERERERKQzQRD+l0GzFI/g6ZxkJTY2FuvWrSuKvgAAhg0bZrC69u7diyFDhkAqlYo/e/PmDS5fvozLly9j9erV2LdvH6pUqWKwNomIiIiIyPS8SHuBV+mvYCYxQ4B7gLG7U2R0DvBu3bqFkSNHFkVfABguwLt27RoGDBiA9PR0ODg4YOrUqWjXrh3S09OxefNm/P7777h37x66deuGy5cvw9HRUa/2/vnnH/j4+Gg8X65cOb3qJyIiIiKiwlOM3lUuUxm2lrZG7k3RMdhG5/pSbJRuKBMmTEB6ejosLCxw6NAhtGjRQjzXvn17VK1aFZMnT8a9e/ewePFizJ49W6/2qlWrhgoVKujXaSIiIiIiKhJigpVSusG5gs5r8ARBKJKbIV26dAmnT58GAHz00UcqwZ3CpEmTUKNGDQDAzz//X3t3HhdV2f4P/DMw7KuCqCiioIB7pJT8UBFTzAfUtNLMBRWzRU3NR03zUStN7cls/ZbpuFWmJqa5tFgBbpBiuKDgCqYYKrHKPsz5/UGcZ0aGYQYYDgyf9+s1L++Zc8+5r+E4Ohf3Pdf9IcrKyuo1BiIiIiIiajzEAiutTLfAClCLGbzg4OBGXzBk3759Yru65aRmZmaYPHkyFi9ejJycHERHRyM0NLSBIiQiIiIioobUXGbwDE7wbGxs4OnpaYxY6s3x48cBAHZ2dujTp0+1/YKDg8X2iRMnmOAREREREZkgQRDEGTxTrqAJmOg2CcnJyQCAzp07Qy6vPof18/tf9ZzK59TW1KlT4e7uDktLS7i6uqJfv35YunQp0tPT63ReIiIiIiKqm/T8dOSV5EFuJoevq6/U4RiVySV4xcXFyMzMBFBz5coWLVrAzs4OAHDr1q06jRsTE4O//voLZWVl+Pvvv/H7779j1apV6Ny5MzZs2FCncxMRERERUe1VLs/s0rILLM0tJY7GuBpNFc36kp+fL7bt7e1r7G9nZ4eCggI8ePCgVuN5eXlhzJgxCAwMhIeHBwDgxo0biIqKwp49e1BcXIyXXnoJMpkMM2bM0HmukpISlJSUiPfV9+8jIiIiIqLaqdwioYebaRdYAUwwwSsuLhbblpY1Z+dWVlYAgKKiIoPHGj16NCIiIqps7xAQEIBx48bh4MGDGDNmDMrKyjBv3jyMHDkSbdq0qfZ8q1evxptvvmlwHEREREREVL2k+/8UWDHx798BJrhE09raWmyXlpbW2L9yxszGxvDNDp2cnHTu3RceHo5ly5YBAAoLC6FQKHSeb/HixcjNzRVvdV02SkREREREzWsGz+QSPAcHB7Gtz7LLgoICAPot56yNGTNmiElgbGyszr5WVlZwdHTUuBERERERUe2pBBUu3b8EwPS3SAAMTPDqe0NyY7C2toaLiwsA4Pbt2zr7Zmdniwle5ffn6pubm5sYDytqEhERERE1rJs5N1FQVgBLc0t0btlZ6nCMTu/v4KWmpgKo3VLGhtatWzccO3YM165dg1KprHarhJSUFLHdtWtXo8WjaxknEREREREZT+X+d36ufpCbmVwJkir0nsHz9PSEp6cn3NzcjBlPvejfvz+AiuWXZ86cqbaf+pLJoKAgo8Ry//59cdsGd3d3o4xBRERERETaVW6R0BwKrAAm+B08AHjqqafE9pYtW7T2UalU2L59OwDA2dkZISEhRonliy++EJe2BgcHG2UMIiIiIiLSrnIGrzkUWAFMNMF77LHHMGDAAACAQqFAXFxclT7r1q1DcnIyAGDOnDmwsLDQOB4TEwOZTAaZTIYpU6ZUeX5aWhoSExN1xnHw4EG89dZbACqWtk6dOrU2L4eIiIiIiGqpuc3gmewi1A8//BBBQUEoKipCaGgolixZgpCQEBQVFWHnzp344osvAAA+Pj6YP3++wedPS0tDSEgIAgMDMWLECPTu3Vtcvnrjxg3s2bMHe/bsEWfv3nvvPbRr167+XiAREREREelUripHSmZF3Y3mUEETMOEEz9/fH7t27cLEiRORl5eHJUuWVOnj4+ODQ4cOaWytYKi4uDitM4SVbG1tsX79esyYMaPWYxARERERkeFuZN9AsbIYNnIbdHLuJHU4DcJkEzwAGDFiBM6fP48PP/wQhw4dwu3bt2FpaYnOnTvj2WefxaxZs2Bra1urc/fp0wdfffUV4uLikJCQgL/++guZmZlQKpVo0aIFunfvjieeeALTp09vEoVpiIiIiIhMTeXyzK6tusLczFziaBqGTGgKm9s1U3l5eXByckJubi43PSciIiIiMtDKoyvxn+j/YHLvydj21Dapw6kTfXMDkyyyQkRERERE1NwKrABM8IiIiIiIyEQ1ty0SACZ4RERERERkgsrKy3A58zIAzuARERERERE1aVezrqJMVQZ7S3t0cOogdTgNhgkeERERERGZnIv3KpZndm/VHTKZTOJoGg4TPCIiIiIiMjnNscAKwASPiIiIiIhMUHMssAIwwSMiIiIiIhMkzuC5cQaPiIiIiIioySpRluBa1jUAXKJJRERERETUpF3++zLKhXI4WzvD3cFd6nAaFBM8IiIiIiIyKeoFVppTBU2ACR4REREREZmYyi0SmluBFYAJHhERERERmZik+81ziwSACR4REREREZkYzuARERERERGZgMKyQtzIvgGg+W2RADDBIyIiIiIiE5J8PxkCBLjausLNzk3qcBocEzwiIiIiIjIZF+833+WZABM8IiIiIiIyIepbJDRHTPCIiIiIiMhkcAaPiIiIiIjIRHAGj4iIiIiIyATkl+Tjz9w/ATTPCpoAEzwiIiIiIjIRl+5fAgC0tW+LljYtJY5GGkzwiIiIiIjIJIjLM5vp7B3ABI+IiIiIiEyEWGClVfMssAIwwSMiIiIiIhPBGTwmeEREREREZCKa+xYJABM8IiIiIiIyAdlF2biTfwcA0K1VN4mjkQ4TPCIiIiIiavIqZ+88HD3gaOUocTTSYYJHRERERERN3sV7XJ4JAHKpAyAiIiIiouZNJahQWl5a7a1EWaLzeGl5KaKSowAA3Vs13wIrABM8IiIiIqJmo6C0AHcL7tY5mapyU9XtPOVCeb29xp6te9bbuZoiJnhERERERCZMJagQmxYLRaICUclRKFYWSx1SjeRmcliaWxp8a+fQDs90e0bq8CXFBI+IiIiIyASl56Vj69mt2Hx2M25k3xAft5HbwFpubVDiZCW3qmibGZZwic8z4GZhZgFzM3MJf3JNGxM8IiIiIiITUVZehoNXDmJT4ib8eO1HqAQVAMDB0gHP9XgOkf6ReKzdY5DJZBJHSsbCBI+IiIiIqIlLyUyB4g8Ftp/fjnsF98TH+3foj0j/SDzb7VnYWdpJGCE1FCZ4RERERERN0IPSB9h9cTcUiQqcvHVSfLy1XWtE9I7ANP9p8HX1lTBCkgITPCIiIiKiJkIQBMTfjociUYFdF3fhQekDAIC5zBz/6vIvRPpH4l9d/gULcwuJIyWpMMEjIiIiImrk7hXcw5fnvoQiUYHkzGTx8S4tu2Ca/zRE9I5AW4e2EkZIjQUTPCIiIiKiRqhcVY6frv8ERaIC31/+HkqVEkBFFcxnuz+LSP9IDOgwgAVTSAMTPCIiIiKiRuRG9g1sTtyMrWe3Ij0/XXw8wD0Akf6ReK7Hc3CydpIwQmrMmOAREREREUmsqKwI36V8h01/bEJ0WrT4eEublpjUaxIi/SPRs3VPCSOkpoIJHhERERGRRBL/SoQiUYGvL3yNnOIcAIAMMgz1HopI/0iM8h0FK7mVtEFSk8IEj4iIiIioAWUXZWPHhR1QJCqQmJEoPu7p5Impj0zFlEemwNPZU8IIqSljgkdEREREZGQqQYWYtBgoEhWIuhSFkvISAICluSVG+41GpH8knvB6AmYyM4kjpaaOCR4RERERkZHczruNrWe3YsvZLbiRfUN8vKdbT0x/dDom9JwAF1sXCSMkU2PSCd7Nmzfx0Ucf4dChQ7h16xasrKzg7e2NsWPHYubMmbC1ta2XcX744Qd88cUXOH36NO7fv49WrVohICAAM2bMwPDhw+tlDCIiIiJqGkrLS3Hg8gEoEhX46fpPUAkqAICjlSPG9xiPSP9I9HXvy+0NyChkgiAIUgdhDAcOHMDEiRORl5en9biPjw8OHTqEzp0713oMlUqFGTNmQKFQVNtn+vTp2LBhA8zMDJ9uz8vLg5OTE3Jzc+Ho6FjrOImIiIjI+C7dvwTFHwp8ef5L3C+8Lz4+0HMgIv0j8Uy3Z2BrUT8TDNT86JsbmOQMXmJiIsaNG4eioiLY29tj8eLFCAkJQVFREXbu3ImNGzfiypUrCAsLQ0JCAhwcHGo1zhtvvCEmd/7+/li4cCG8vb1x/fp1vPvuu0hMTMSmTZvQqlUrvPPOO/X5EomIiIioEcgvyceui7ugSFQg/na8+Hhb+7aI6B2Baf7T0MWli4QRUnNjkjN4AwcOxLFjxyCXy3H06FEEBgZqHP/vf/+LhQsXAgCWL1+OFStWGDzGlStX0L17dyiVSvTt2xdHjx6FjY2NeLywsBDBwcFISEiAXC5HcnKywbOFnMEjIiIianwEQUDc7Tgo/lBg18VdKCgrAACYy8wR7hOOSP9IDO8yHHIzk5xLIYnomxuYXIJ36tQpPP744wCAF198EZ9//nmVPiqVCj169EBycjKcnZ1x7949WFhYGDTOK6+8gs8++wwAEBcXh379+lXpEx8fLyaXr7zyCj799FODxmCCR0RERNR43Cu4h+3ntkORqEBKZor4uI+LDyL9IzG592S0sW8jYYRkyvTNDUyuDuu+ffvE9tSpU7X2MTMzw+TJkwEAOTk5iI6ONmgMQRCwf/9+AICfn5/W5A4A+vXrB19fXwDA/v37YWK5NBEREZHJU6qUOHTlEMbsGoN277fDgiMLkJKZAlsLW0x5ZAqOTT2GlJkpWBi0kMkdNQomN298/PhxAICdnR369OlTbb/g4GCxfeLECYSGhuo9RmpqKu7cuVPlPNWNc/nyZaSnpyMtLQ2dOnXSexwiIiIiksb1rOvYnLgZW89txZ38O+Ljj7d7HJH+kRjXYxwcrbjCihofk0vwkpOTAQCdO3eGXF79y/Pz86vyHH1dunRJ63n0GadWCZ6yAFCaG/48IiIiomoIggABgtY/VYKq2mPqfcqFcpSrKv783/3yh/586PF/2hX9VVX763iuSr2/tudq/KmqOaaHjlXGdL8wEyfVCqa42rpgUo/xiHxkMrq36va/H6KyQIIrR82Wnn/fTCrBKy4uRmZmJgCgffv2Ovu2aNECdnZ2KCgowK1btwwa5/bt22K7pnE8PDzEdk3jlJSUoKSkRLxfucVD4IfuMLc2KEQiIqImob6+vFCfX4Koz5gE4Z8/td0eOqYy8DkqHed6+Dmqhx6jmskADLMFIh2BkfZ/wzL7EyD6E6nDouasUL9uJpXg5efni217e/sa+1cmeA8ePDDaOHZ2dmK7pnFWr16NN998s8rjl0phgt+WJCIiIlNgBsAcgLnsn7bsn/vq7Yf/fOgxMwP7m+Ohserref+0LWXAYBvAw7AafESNgkkleMXFxWLb0tKyxv5WVlYAgKKiIqONUzmGPuMsXrwYr732mng/Ly8PHh4e2Dd2F+zsTXNTTJnUARARkeRksob930DWgP/7yGQyyCCr9k8zmZnO4//rV3MfmUzH+erzXGqxm8nMGvz6ETVbeXnAC+41djOpBM/a+n/rGEtLS2vsX7kcUn3/uvoeR33JZU3jWFlZaSSElUK8n+Q2CUREREREzZm8XK9uJrXwz8HBQWzrs+yyoKDii4r6LOes7TiVY9RmHCIiIiIiIkOYVIJnbW0NFxcXAJqFULTJzs4Wky/1Qij6UC+sUtM46oVVDB2HiIiIiIjIECaV4AFAt24VpWuvXbsGpVJZbb+UlBSx3bVr11qN8fB56nscIiIiIiIiQ5hcgte/f38AFUsjz5w5U22/2NhYsR0UFGTQGJ06dYK7u3uV82hz9OhRAEC7du3QsWNHg8YhIiIiIiIyhMkleE899ZTY3rJli9Y+KpUK27dvBwA4OzsjJCTEoDFkMhlGjRoFoGKGLj4+Xmu/+Ph4cQZv1KhRrDJFRERERERGZXIJ3mOPPYYBAwYAABQKBeLi4qr0WbduHZKTkwEAc+bMgYWF5iYnMTExFSWAZTJMmTJF6zhz586Fubk5AGD27NlVtkAoKirC7NmzAQByuRxz586ty8siIiIiIiKqkckleADw4YcfwsbGBkqlEqGhoVi9ejXi4+MRHR2NF198EQsXLgQA+Pj4YP78+bUaw8fHBwsWLAAAJCQkICgoCLt27UJCQgJ27dqFoKAgJCQkAAAWLFiALl261M+LIyIiIiIiqoZJ7YNXyd/fH7t27cLEiRORl5eHJUuWVOnj4+ODQ4cOaWx5YKhVq1bh3r172Lx5MxITE/Hcc89V6RMZGYmVK1fWegwiIiIiIiJ9meQMHgCMGDEC58+fx7x58+Dj4wNbW1s4Ozujb9++WLt2LRITE9G5c+c6jWFmZgaFQoFDhw5h1KhRcHd3h6WlJdzd3TFq1CgcPnwYmzZtgpmZyf6YiYiIiIioEZEJgiBIHQRpl5eXBycnJ+Tm5sLR0VHqcIiIiIiISCL65gacWiIiIiIiIjIRTPCIiIiIiIhMBBM8IiIiIiIiE8EEj4iIiIiIyESY5DYJpqKy/k1eXp7EkRARERERkZQqc4KaamQywWvE8vPzAQAeHh4SR0JERERERI1Bfn4+nJycqj3ObRIaMZVKhTt37sDBwQEymUzqcOpVXl4ePDw8cOvWLW4B0cTw2jVNvG5NF69d08Vr13Tx2jVNpn7dBEFAfn4+3N3dde6zzRm8RszMzAzt27eXOgyjcnR0NMk3YHPAa9c08bo1Xbx2TRevXdPFa9c0mfJ10zVzV4lFVoiIiIiIiEwEEzwiIiIiIiITwQSPJGFlZYXly5fDyspK6lDIQLx2TROvW9PFa9d08do1Xbx2TROvWwUWWSEiIiIiIjIRnMEjIiIiIiIyEUzwiIiIiIiITAQTPCIiIiIiIhPBBI+IiIiIiMhEMMEjo0tISMBbb72F0NBQtG/fHlZWVrC3t4ePjw+mTp2K48ePSx0iGWjRokWQyWTiLSYmRuqQqAZ//vknli9fjr59+6JVq1awtraGh4cHBgwYgGXLliEpKUnqEElNaWkpNm3ahGHDhqFt27biv5u+vr6YOnUqTp48KXWIzcq9e/dw8OBBLFu2DMOHD4erq6v479+UKVMMPt8PP/yA0aNHi/8ntm/fHqNHj8YPP/xQ/8E3c/Vx7QoLC7F37168/PLLCAgIQIsWLWBhYQEXFxcEBgZixYoVyMjIMO4LaYbq+32nrrCwEF5eXuL5OnbsWC8xNxoCkRENGDBAAFDjbfLkyUJJSYnU4ZIeEhMTBblcrnH9oqOjpQ6LdPjoo48EOzs7ne/BOXPmSB0m/SMtLU3o3r17jf9uzp49W1CpVFKH2yzoug4RERF6n6e8vFyIjIzUeb7p06cL5eXlxnsxzUxdr925c+cEe3v7Gt+Pjo6Ows6dO43/gpqR+nrfaTN//nyN83l6etZLzI2FvK4JIpEud+7cAQC4u7vj2WefxYABA9ChQweUl5cjLi4O69atQ3p6OrZv346ysjLs2LFD4ohJF5VKhRkzZkCpVMLNzQ337t2TOiSqwcqVK/Gf//wHAODj44MXXngBAQEBcHJywt9//43ExER89913MDPjgo7GoKysDGFhYbh48SIAoFevXnjttdfg6+uL/Px8HD9+HOvWrUNBQQE+/vhjuLu74/XXX5c46ualQ4cO8PPzw88//2zwc9944w0oFAoAgL+/PxYuXAhvb29cv34d7777LhITE7Fp0ya0atUK77zzTn2H3uzV5trl5eXhwYMHAICgoCCEh4ejb9++cHFxwf3797F3715s3LgReXl5mDBhAhwdHTF8+HBjvYRmqy7vu4clJibigw8+gLW1NSwsLJCfn18PETYyUmeYZNrCwsKEXbt2CUqlUuvx+/fvCz4+PuJvUGJjYxs4QjLE+vXrBQCCn5+fsHjxYs7gNXK//PKLxix5aWlptX05g944fPvtt+I1CwwM1PpvZ0JCgmBhYSEAEJydnYWysjIJIm1eli1bJhw4cEDIyMgQBEEQUlNTDZ5JuHz5srj6oW/fvkJhYaHG8YKCAqFv374CAEEulwtXr16t75fRLNX12p04cUIYO3ascPHixWr77Nu3T5DJZAIAwdvbmzPr9aQ+3ncPUyqVQp8+fQQAwltvvSV4enqa5AweEzyS3IEDBzSWHFHjdPPmTXGZSkxMjLB8+XImeI1YeXm50KVLFwGA0Lt3byYBTcS8efPE99X3339fbb/Ro0eL/c6fP9+AEZIg1O6D5ssvvyw+Jy4uTmufuLg4sc8rr7xSjxFTpfpIErR5+umnxfOeOXOm3s5L/1Mf127dunUCAMHX11coKSkx2QSPa3JIciEhIWL7+vXrEkZCusycORMPHjxAREQEgoODpQ6HavDzzz/j6tWrACqK4sjlXJHfFJSWloptLy+vavt5e3trfQ41ToIgYP/+/QAAPz8/9OvXT2u/fv36wdfXFwCwf/9+CILQYDFS3fCzTON38+ZNLFu2DADw+eefw9LSUuKIjIcJHkmupKREbJubm0sYCVVn9+7dOHjwIFq2bIn33ntP6nBID99++y0AQCaTITw8XHw8KysLV69eRVZWllShkQ6VH+4B4MaNG9X2q/wAKZPJ0KVLF6PHRXWTmpoqfie9pl+QVR5PT09HWlqasUOjesLPMo3fK6+8goKCAkyaNAmDBg2SOhyjYoJHkouNjRXbXbt2lTAS0iYnJwdz5swBAKxduxaurq4SR0T6iI+PBwB07NgRDg4O2LFjB3r27AkXFxf4+PjAxcUFvr6+eO+99zQ+mJC0xo8fD0dHRwAV77fy8vIqfRITE3Ho0CEAwPPPPy/2p8br0qVLYtvPz09nX/XjycnJRouJ6hc/yzRuO3fuxOHDh9GiRQusW7dO6nCMjgkeSUqlUmHNmjXi/bFjx0oYDWmzcOFCZGRkICgoCJGRkVKHQ3pQqVRISUkBALi6umLOnDmYMGFClb3urly5ggULFmDw4MHIycmRIFJ6mKurK7788kvY2trixIkTCAgIwPbt2xEfH49ffvkFb775JoKDg1FaWopHH320WXxQMQW3b98W2+3bt9fZ18PDQ2zfunXLaDFR/Tl37pz4S5eePXsywWtksrOzMXfuXADAmjVr0KpVK2kDagBM8EhS69evx6lTpwAAY8aMQZ8+fSSOiNQdO3YMmzZtglwux+effw6ZTCZ1SKSH3NxcqFQqAMCFCxfw0UcfoW3btvjqq6+QlZWFwsJCxMbGit8DOnnyJKZNmyZlyKRm5MiROHPmDKZPn46zZ88iIiICgYGBGDp0KFasWAFbW1t88MEHOHbsGFq3bi11uKQH9TLs9vb2Ovva2dmJ7cry/NR4lZSUYPr06eJs+6pVqySOiB62YMEC3L17F4GBgXjhhRekDqdBMMEjycTGxor7N7m5ueGzzz6TOCJSV1paihkzZkAQBMybNw89evSQOiTSU0FBgdguLi6Gra0toqOjMWHCBLRo0QI2NjYYOHAgfvvtN/Tu3RsA8N133+H333+XKmRSU1paiu3bt1dbZOPu3bv46quv8Msvv0gQHdVGcXGx2K6psIOVlZXYLioqMlpMVD9mzZqFhIQEAEBERARGjBghcUSk7ujRo9i8eXOz+0U1EzySxMWLFzF69GgolUpYW1vj22+/hZubm9RhkZp33nkHKSkp6NChA5YvXy51OGQAa2trjfvTp0/XKN5RycbGRuO3zbt27TJ6bKRbQUEBhgwZgtWrVyMrKwsLFy5EcnIySkpKkJubi59//hn9+/dHQkICnnrqKbz//vtSh0x6UH9P1lT1VP07sTY2NkaLiepu9erV2LRpEwAgICAAn376qcQRkbqSkhLxF9Vz5sxBr169pA6pwTDBowaXmpqK0NBQZGdnw9zcHDt37sTAgQOlDovUpKSkYPXq1QCAjz/+WGPJEDV+Dg4OGvdDQ0Or7fvEE0+IWyicPn3aqHFRzVasWIFjx44BABQKBdauXQs/Pz9YWlrC0dERQ4cORXR0NEJCQiAIAhYsWIBz585JHDXVRP09WdOyS/UZ+JqWc5J0NmzYgCVLlgCoKIxz+PBh/l/ZyKxatQqXL1+Gh4cH3nzzTanDaVDcGIka1J07dzBkyBDcuXMHMpkMmzdvxqhRo6QOix6yfv16lJaWwsvLC4WFhdi5c2eVPuoFO3777TdkZGQAAEaMGMH/5CRmZWWFVq1a4f79+wA0izY8zNraGq6ursjIyBD7kzQEQcDmzZsBAD4+PoiIiNDaTy6X4+2330b//v2hUqmwdetWrF+/viFDJQOpF1ZRL7iijXphFV3vXZLON998g1deeQUA4OnpiSNHjrDCdCO0du1aAMCQIUNw4MABrX0qf6FSUFAgftZxc3PD4MGDGyZII2GCRw0mMzMTQ4cOFfd2+vjjjzF58mSJoyJtKpcI3bhxA+PHj6+x/9tvvy22U1NTmeA1At27d0dMTAwAaC21r67yODdDl9bdu3fF/Qn9/f119lUvSFVZMZUar27duontmq6X+nFWY2x8vv/+e0yePBkqlQpt27bFr7/+WmNlVJJG5XLoLVu2YMuWLTr7ZmZmip93goODm3yCxyWa1CByc3MxbNgwcS+gNWvWYObMmRJHRWS61Jc969owOy8vD5mZmQCAdu3aGT0uqp56gq1UKnX2LSsr0/o8apw6deoEd3d3AJr7pWlz9OhRABXvx44dOxo7NDLAr7/+irFjx0KpVMLFxQVHjhyBt7e31GERVcEEj4yusLAQYWFh+OOPPwAAb7zxBhYtWiRxVKTL1q1bIQiCzpt64ZXo6GjxcX4gaRyefvppsf3dd99V2++7774TKzUOGDDA6HFR9Vq2bCluWh4XF6czyVNPEjp16mT02KhuZDKZ+HWElJQUxMfHa+0XHx8vzuCNGjWq2VT8awpOnjyJUaNGoaSkBE5OTvjpp5/QvXt3qcMiHWr6HCMIAjw9PQFULLWtfKxy9UtTxgSPjKq0tBSjR4/GiRMnAABz5szBypUrJY6KyPT16tULw4cPB1DxfZFff/21Sp+MjAwsXboUQEXp9qlTpzZojKTJzMwMYWFhACq+r1zdflrZ2dkavyQLDw9vkPiobubOnQtzc3MAwOzZs6tsgVBUVITZs2cDqJiVrdyYmaR39uxZhIWFoaCgAHZ2djh06BD37aVGjes6yKjGjx+Pn3/+GQAwePBgREZGahTneJilpSV8fHwaKjwik/bBBx8gLi4OOTk5CA8Px9y5c/Gvf/0LNjY2OHXqFFavXi0WfHj77be5RLMRWLZsGfbv34/CwkKsWLECZ86cQUREBLy8vFBcXIz4+Hh88MEH+PPPPwFUVEHVVSWV6sfx48dx7do18X7lsmYAuHbtGrZu3arRf8qUKVXO4ePjgwULFmDNmjVISEhAUFAQFi1aBG9vb1y/fh1r165FYmIigIqNmbt06WKU19Lc1PXaXb9+HcOGDUNOTg4AYOXKlXByctL5WcbNzY1bP9WD+njfNVsCkREBMOjm6ekpdcikp+XLl4vXLTo6WupwqBrHjh0TWrduXe17TiaTCUuXLpU6TFJz5MgRwdXVtcZ/LwcPHixkZWVJHW6zEBERYdD/ZdUpLy8Xpk2bpvO5kZGRQnl5eQO+OtNW12u3ZcsWgz/LLF++vOFfqAmqr/edLp6enib5+ZMzeEREJqx///64ePEiPv74Y+zbtw+pqakoLS1F27ZtMWjQIMyePbvGio3UsIYMGYKUlBQoFAr88MMPuHjxInJyciCXy9GmTRsEBATg+eefx8iRI/kdrSbGzMwMCoUCTz/9NL744gucPn0amZmZcHV1RUBAAF588UVxaTURUW3JBOGfb9cTERERERFRk8YiK0RERERERCaCCR4REREREZGJYIJHRERERERkIpjgERERERERmQgmeERERERERCaCCR4REREREZGJYIJHRERERERkIpjgERERERERmQgmeERERERERCaCCR4REREREZGJYIJHRERERERkIpjgERER6fDjjz9i3Lhx8PLygp2dHWQymXhLS0uTOjwiIiINTPCIiKjOhg8fDplMBnNzc+Tm5mocU6lUcHZ2hkwmQ1BQkEQR1s7LL7+M4cOHY/fu3UhNTUVhYWGdz5mWlqaRJMbExNQ9UCIion/IpQ6AiIiaNpVKhZMnTwIAevfuDScnJ43jZ8+eFZO+gQMHNnh8tRUVFYXPP/9cvN+iRQv06NEDtra24mM2NjZShEZERFQtJnhERFQn586dQ15eHgAgODi4yvHY2FixPWDAgAaLq64UCoXYDgsLw969e2FpaSlhRERERDXjEk0iIqqTo0ePim1tM3SVCZ6ZmVmTWqJ55swZsf3vf/+byR0RETUJTPCIiKhOjh07BgCQyWRVZugEQRCP9+rVq8ryzcYsKytLbHt4eEgYCRERkf6Y4BERUZ0cP34cANCtWze4urpqHLtw4YKYKDWl5ZkAoFQqxba5ubmEkRAREemPCR4REdXalStXcPfuXQC6l2cCDZPgpaenY9WqVQgKCkLbtm1hZWUFNzc39OnTB4sXL0ZycrLO56tXt1TXqVMnjWONrfrlvXv3sG3bNkyZMgWPPvooWrZsCQsLCzg7O8PHxwcTJ07Et99+C5VKpfM8QUFB4utbtGiR3uMXFRWJlVJlMhl2796ts39mZibWr1+P0NBQeHp6wsbGBs7OzujWrRtmzpyJ+Ph4vcbt2LFjleuRn5+PDRs2YMiQIfD09ISVlVW11+vUqVOYNWuW+DOTy+WwtbWFu7s7goKCMHPmTOzevRsFBQV6/yyIiKQmEwRBkDoIIiJq3Hbu3ImdO3dWeTwjIwO///47AKBnz57w8vLSOH7u3Dlxr7iQkBA4OjpqHH/11VcxePDgeonx/fffx7Jly3R+GJfL5Zg9ezbeffddyOVV64w9nNjpEh0djUGDBhkcZ1paGjp16lTn81SaO3cuPvnkE5SXl9fYt0ePHoiKioKPj4/W45VJIgC0adMGt27d0vpzetiXX36JyZMnAwBcXV2Rnp5e7XcWP/jgA6xYsaLKdhoPmzBhAjZu3KizUmnHjh1x8+ZNABU/Rzs7O4wbNw6pqalV+qr/nEtKSjBjxgxs3769xtcGVGwDcvjwYb36EhFJjVU0iYioRikpKdi/f7/OPhcuXMCFCxeqPR4dHV3lsaeeeqquoQEA5s+fj/fff1/jsc6dO6N9+/bIzMzExYsXIQgClEol1q9fjxs3bmDPnj1Vkpdhw4aJ7Z9++klsDxw4sEqi0bJly3qJva6SkpLE5E4mk6FTp05o06YNbGxskJOTg+TkZHH/vqSkJAQGBiIxMREdOnSocq6xY8di7ty5yMnJQUZGBg4ePKjXNdq0aZPYnjRpktbkTqVS4aWXXsLGjRvFx2QyGbp06QJ3d3cUFxcjKSkJDx48AAB8/fXXSEtLw6+//gorK6saY7h27Rrmz58vVnStvP45OTlISUnR6Dt16lR888034n25XA5fX1+4ublBEARkZWXhypUrKC4uFmMnImoyBCIiohosX75cAFDvty1bttQ5tt27d2ucMyAgQDh79qxGn7S0NCE8PFyj31tvvaXzvOp9U1NT6xxnpdTUVI1zR0dH1+l8Tz75pDB27Fhh7969Ql5eXpXjJSUlwo4dOwR3d3dxzNDQ0GrPN2vWLLFfeHh4jeNfuXJF4/VcvHhRa7/Vq1eLfWQymTBnzhzh9u3bVWL97LPPBFtbW7Hv3Llzqx3b09NT7Ofg4CAAEIYOHSokJydr9MvKyhKysrIEQRCEhIQEjXiXLl0qZGdnVzm3UqkUTpw4Ibz66qvCs88+W+PPgYiosWCCR0REtZKWliZ+SH7++eerHN+wYYN4/OuvvzZKDCUlJUKbNm3EcR599FHhwYMHWvuWl5cLI0eOFPtaWFgIt27dqvbcTSXBq+71ahvX2dlZHPfChQta+124cEHsY25uLqSnp+s87+uvvy72DwwM1Nrn8uXLgoWFhZjc7dixQ+c5Y2JiBLlcLsZQ3c9fPcEDIAwfPlwoKyvTee633npL7D9x4kSdfSsplUq9+hERNQYsskJERLVSuf0BoL3AyokTJ8R2//79jRJDVFQUMjIyAFQs91MoFLCzs9Pa18zMDF988QUcHBwAAGVlZdiwYYNR4mpI1b3eh3Xs2BGzZ88W73///fda+/Xo0QOBgYEAgPLycmzdurXacyqVSmzbtk28P336dK391q9fj7KyMgAVyyPHjx+vM9bg4GC88MILYgz6XCdLS0ts3Lixxu8M3r59W2zruy8jq6gSUVPCBI+IiGpFPcHTViGzMsFr37691u971Yd9+/aJ7eDgYDzyyCM6+7du3RrPP/+81uc3B48//rjYPn36dLX9ZsyYIbY3b94MoZp6bIcPH8Zff/0FAHBwcMC4ceOq9FGpVNixY4d4f+7cuXrFOmHCBLH922+/1dg/LCwM7dq1q7GftbW12D5//rxesRARNSUsskJERLVy9OhRABVVE7t27apxLCMjA9evXweg/yxJbVRW8AQqKh3qIzw8XJwRunTpEvLz88VZvabu9OnTOHHiBC5duoTs7GwUFBRoFAhR37w9PT292vOMGzcOc+fORW5uLq5fv47Y2FitlT4VCoXYfu6557TOJp47d04sfOLq6oqePXvq9Vp69Oghts+ePQtBEHRWOdV3lrhPnz5ie8OGDfDx8cGLL76os1onEVFTwgSPiIgMdv/+fbEyYf/+/at88G6I5ZlKpVIskQ9A78RBvZ9KpUJqaip69epV7/E1pMOHD2P+/PlVqkXqomubAhsbG0yaNAmffPIJgIoqmQ8neH/99ZfG1gHVLc9MSkoS2yUlJXjyySf1jrFSaWkp8vLy4OTkVG0fb29vvc71zDPPYMmSJUhPT4dKpcK8efOwfPlyhIaGYtCgQRgwYAB69uxp0JYZRESNCRM8IiIy2PHjx8W2ruWZgPFm8HJycjTuu7i46PU8V1dXjfvZ2dn1FZIk3nvvPSxYsMDg55WUlOg8PmPGDDHBi4qKwieffAJnZ2fx+LZt26BUKgFUJM2PPfaY1vP8/fffYjs/P19j+wlD5Obm6kzw9J2FtbW1xYEDBxAeHo47d+4AAPLy8rBnzx7s2bMHQMXfkbCwMERGRmr9+01E1JjxO3hERFStrVu3QiaTVbmNGTNG7DN//vwqx9evXy8ef/TRR6scX7FiRZ1jezhBqW5j7Yc93K+mRKcxi4+P10juPD09sWrVKhw9ehS3bt1CQUEBysvLIVRUzda6F2F1evbsiX79+gEAiouL8fXXX2sc37x5s9iubvYOgM6N5w1R0150Zmb6f6Tx9/dHcnIyVq5cic6dO1c5npmZiW3btmHgwIEIDw9HZmamwfESEUmFCR4RETVJD8/m5Ofn6/W8h/upz0o1NWvWrBHb/fr1Q1JSEpYsWYIBAwagffv2sLW11Uh89P0ZVVIvtqL+fbvY2FhcvXoVAGBlZYWJEydWew7169S9e3cx2TT01rFjR4Nir4mjoyPeeOMNXL16FdevX4dCocDkyZOrFGo5dOgQnnzySXG2koioseMSTSIiqla7du0wbNgwjcdKSkoQExMjHlcvhgFUFO+o/N5Vz5494e7uXuW82mZNDGVvbw8bGxsUFRUBAFJTU/VaTldZ/KVSq1at6hyLFARBwC+//CLeX7NmDezt7XU+R1dhFW3GjRuHefPmITc3F4mJiUhMTIS/v79GsjdmzBi0bNmy2nO0bt1abN+7d8+g8RuKl5cXvLy8MG3aNAiCgBMnTmDp0qWIjY0FAJw5cwbffPMNJk2aJHGkREQ1Y4JHRETVGjp0KIYOHarxWHR0tJjgzZ49G4sWLdI4/vrrr4sJ3saNGzVK89c3f39/nDx5EgBw6tQpTJ48ucbnqFfebNGiRb3PDDWUrKwsjeWPffv2rfE5cXFxBo1ha2uLiRMn4tNPPwVQUWzlnXfeEb+rBuhenglAXOYJVBTnuXHjBry8vAyKoyHJZDL0798fP/74I/z9/cXCNT///DMTPCJqErhEk4iIDFI5qwFoL7BSuX2CnZ2dRkl6Y1AfPyoqStxMW5evvvpKbGurANpU6PNa1eXl5WHv3r0Gj6O+THPHjh1QKBTirKmXlxdCQkJ0Pt/Dw0NjGw31jdEbM2tra43Z67t370oYDRGR/pjgERGRQSoTOBsbmyqzRkVFRThz5gwAIDAwEHK5cReKTJ06VWxnZGTgww8/1Nk/KipKYwYvMjLSaLEZm4uLCywsLMT76pVLtVm8eDEePHhg8Di9evUSZ2FzcnLwxhtviMemTZumV4I8b948sf3+++8jOTnZ4DjqS3Wbtmuj/p1FXctQiYgaEyZ4RESkt9LSUsTHxwMAHn/88SoVKePj41FaWgoAGDhwoNHj8fX1xTPPPCPeX7JkCfbt26e1b3x8PKZNmybe7927N8LDw40dotFYWFjg//2//yfeX7hwobihuDpBEPDOO+/g//7v/2o9lvosXnFxMQDA3NxcI8HWJSIiAr179wYAPHjwAEOGDMGxY8dqfF5SUhJeeOEFbNmypRZRazd+/HisXbsW9+/f19nvzJkz2Llzp3i/If4+ExHVB34Hj4iI9Hbq1ClxeZ62D7zqH9ob6gPxp59+imPHjuHu3bsoKyvD6NGj8fTTT+Ppp59Gu3btkJmZicOHD2vs22ZtbY3t27fD3Ny8QWLUJTQ01KAS/5MmTcLGjRsBAHPmzBGXzJ47dw69evXCrFmz0KdPHwiCgOTkZGzbtg2nT58GUPF9uU2bNhkc43PPPYfXXntNY3P04cOHay2go42lpSX27t2Lxx57DH///Tfu3LmDgQMHYvDgwQgPD4efnx8cHBzw4MED/PXXX0hMTMQvv/wizvTV51LfjIwMvP7661i6dClCQkLQv39/9OjRAy4uLpDJZEhPT8eRI0fw9ddfi7+s6NChA79/R0RNBhM8IiLSW+XyTED39++srKyMWlxFnZubG6KjozF06FCxSmRUVBSioqK09ndwcMD333+PXr16NUh8NTH0u3Tq/UePHo3IyEixquXNmzer3fT83//+N8LCwmqV4Nna2mLChAkas4A1FVd5mJeXF37//XeMHDkSly5dAgD89ttv+O233wyOpz4olUocOXIER44c0dnPzc0N+/fv13sjdSIiqXGJJhER6a1ytkgulyMwMFDjmFKpFJdvBgQEwNrausHi6tq1K86fP49XX30VdnZ2WvtYWFhg/PjxSEpKwqBBgxosNmPbuHEjVq9eDUdHR63Hvby8sGPHDvz3v/+t0ziVSywBoG3btggLCzP4HN7e3vjjjz/w0Ucf1VhJ097eHiNGjMA333yDKVOmGDxWdRYtWoTx48fXuD2Gg4MDXnrpJSQlJeGRRx6pt/GJiIxNJhjybWMiIqJGrri4GEePHsWNGzeQlZUFR0dHdOjQAYMGDao2CTIF+fn5iImJwdWrV1FaWoo2bdqga9eu9TaTGhISIm6P8frrr2P16tV1PufVq1eRkJCAe/fuIT8/H3Z2dmjdujX8/PzQs2dPjSIyxnD16lVcunQJf/75J/Lz82FmZoYWLVqgW7du6Nu3L2xsbIw6PhGRMTDBIyIiIp2uXLkCX19fABX7xF29ehXe3t4SR0VERNpwiSYRERHp9O6774rt0NBQJndERI0YEzwiIiKq1t69ezW2KVi4cKGE0RARUU1YRZOIiIhESUlJWLp0KVQqFVJTU5GUlCQee/LJJzF48GAJoyMiopowwSMiIiJRZmYm9u/fX+VxDw+PWm2xQEREDYtLNImIiEgruVyOjh07YtasWUhISEC7du2kDomIiGrAKppEREREREQmgjN4REREREREJoIJHhERERERkYlggkdERERERGQimOARERERERGZCCZ4REREREREJoIJHhERERERkYlggkdERERERGQimOARERERERGZiP8PPXFwIttksPoAAAAASUVORK5CYII=;" vertex="1" parent="1">
          <mxGeometry x="260" y="180" width="399.99" height="190" as="geometry" />
        </mxCell>
      </root>
    </mxGraphModel>
  </diagram>
</mxfile>
